<?xml version="1.0" standalone="no"?>
<!DOCTYPE svg PUBLIC "-//W3C//DTD SVG 1.1//EN" "http://www.w3.org/Graphics/SVG/1.1/DTD/svg11.dtd" >
<svg xmlns="http://www.w3.org/2000/svg" xmlns:xlink="http://www.w3.org/1999/xlink" version="1.1">
<metadata>
Created by FontForge 20170731 at Tue Aug  7 14:02:18 2012
 By ,,,
Copyright (c) 2012 by Jos Buivenga. All rights reserved.
</metadata>
<defs>
<font id="MuseoSansCyrl-300" horiz-adv-x="381" >
  <font-face 
    font-family="Museo Sans Cyrl 300"
    font-weight="300"
    font-stretch="normal"
    units-per-em="1000"
    panose-1="2 0 0 0 0 0 0 0 0 0"
    ascent="750"
    descent="-250"
    x-height="503"
    cap-height="703"
    bbox="-117 -214 1088 883"
    underline-thickness="50"
    underline-position="-200"
    unicode-range="U+0020-FB04"
  />
<missing-glyph horiz-adv-x="510" 
d="M5 0v700h500v-700h-500zM255 395l170 255h-340zM285 350l170 -255v510zM55 95l170 255l-170 255v-510zM85 50h340l-170 255z" />
    <glyph glyph-name="f_f" unicode="ff" horiz-adv-x="642" 
d="M100 0v446h-63v57h63v19q0 58 18.5 98t48.5 57.5t55 24t52 6.5q20 0 31 -3v-60q-8 2 -24 2q-18 0 -34.5 -4.5t-36 -16t-31 -39t-11.5 -66.5v-18h253v19q0 58 18.5 98t48 57.5t55 24t51.5 6.5q21 0 31 -3v-60q-6 2 -24 2t-34 -4.5t-35.5 -16t-31 -39t-11.5 -66.5v-18h128
v-57h-128v-446h-68v446h-253v-446h-68z" />
    <glyph glyph-name="fi" unicode="fi" horiz-adv-x="546" 
d="M100 0v446h-63v57h63v19q0 58 18.5 98t48.5 57.5t55 24t52 6.5q16 0 31 -3v-60q-8 2 -24 2q-18 0 -34.5 -4.5t-36 -16t-31 -39t-11.5 -66.5v-18h297v-503h-67v446h-230v-446h-68zM395 618v85h73v-85h-73z" />
    <glyph glyph-name="fl" unicode="fl" horiz-adv-x="558" 
d="M392 119v584h68v-569q0 -76 57 -76q10 0 16 1v-61q-12 -2 -25 -2q-15 0 -28 2t-30 9.5t-29 20.5t-20.5 36.5t-8.5 54.5zM100 0v442h-63v57h63v23q0 58 18.5 98t48.5 57.5t55.5 24t51.5 6.5q16 0 31 -3v-60q-8 2 -24 2q-18 0 -34.5 -4.5t-35.5 -16t-30.5 -39t-11.5 -66.5
v-22h128v-57h-128v-442h-69z" />
    <glyph glyph-name="f_f_i" unicode="ffi" horiz-adv-x="867" 
d="M100 0v446h-63v57h63v19q0 58 18.5 98t48.5 57.5t55 24t52 6.5q16 0 31 -3v-60q-8 2 -24 2q-18 0 -34.5 -4.5t-36 -16t-31 -39t-11.5 -66.5v-18h253v19q0 58 18.5 98t48 57.5t55 24t51.5 6.5q16 0 31 -3v-60q-8 2 -24 2q-18 0 -34 -4.5t-35.5 -16t-31 -39t-11.5 -66.5
v-18h297v-503h-68v446h-229v-446h-68v446h-253v-446h-68zM716 618v85h73v-85h-73z" />
    <glyph glyph-name="f_f_l" unicode="ffl" horiz-adv-x="878" 
d="M100 0v446h-63v57h63v19q0 58 18.5 98t48.5 57.5t55 24t52 6.5q16 0 31 -3v-60q-8 2 -24 2q-18 0 -34.5 -4.5t-36 -16t-31 -39t-11.5 -66.5v-18h253v19q0 58 18.5 98t48 57.5t55 24t51.5 6.5q16 0 31 -3v-60q-8 2 -24 2q-18 0 -34 -4.5t-35.5 -16t-31 -39t-11.5 -66.5
v-18h128v-57h-128v-446h-68v446h-253v-446h-68zM713 119v584h68v-569q0 -76 57 -76q10 0 16 1v-61q-12 -2 -25 -2q-15 0 -28 2t-30 9.5t-29 20.5t-20.5 36.5t-8.5 54.5z" />
    <glyph glyph-name="f_j" unicode="fj" horiz-adv-x="546" 
d="M100 0v446h-63v57h63v19q0 58 18.5 98t48.5 57.5t55 24t52 6.5q16 0 31 -3v-60q-8 2 -24 2q-18 0 -34.5 -4.5t-36 -16t-31 -39t-11.5 -66.5v-18h297v-521q0 -59 -18.5 -99.5t-48.5 -58t-55.5 -24t-52.5 -6.5q-14 0 -29 3v60q8 -2 22 -2q18 0 35 4.5t36.5 16.5t31.5 40
t12 68v462h-230v-446h-68zM395 618v85h73v-85h-73z" />
    <glyph glyph-name=".notdef" horiz-adv-x="510" 
d="M5 0v700h500v-700h-500zM255 395l170 255h-340zM285 350l170 -255v510zM55 95l170 255l-170 255v-510zM85 50h340l-170 255z" />
    <glyph glyph-name=".null" horiz-adv-x="0" 
 />
    <glyph glyph-name="nonmarkingreturn" horiz-adv-x="333" 
 />
    <glyph glyph-name="space" unicode=" " horiz-adv-x="250" 
 />
    <glyph glyph-name="exclam" unicode="!" horiz-adv-x="262" 
d="M98 184l-3 519h70l-3 -519h-64zM92 0v79h78v-79h-78z" />
    <glyph glyph-name="quotedbl" unicode="&#x22;" horiz-adv-x="338" 
d="M200 545v168h59v-168h-59zM79 545v168h59v-168h-59z" />
    <glyph glyph-name="numbersign" unicode="#" horiz-adv-x="726" 
d="M155 0l34 195h-142l10 56h142l35 196h-142l10 56h141l35 200h61l-35 -200h173l35 200h61l-35 -200h140l-9 -56h-140l-35 -196h140l-10 -56h-140l-34 -195h-61l34 195h-173l-34 -195h-61zM260 251h173l35 196h-174z" />
    <glyph glyph-name="dollar" unicode="$" horiz-adv-x="568" 
d="M66 78l41 53q34 -34 84 -55.5t100 -21.5q60 0 100 33.5t40 88.5q0 47 -36.5 80.5t-88.5 56t-104 46.5t-88.5 66t-36.5 101q0 70 51 123t133 63v95h56v-94q100 -5 167 -66l-34 -58q-29 27 -71 43.5t-83 16.5q-65 0 -106.5 -36t-41.5 -85q0 -44 36.5 -75.5t88.5 -53
t104 -46t88.5 -68.5t36.5 -107q0 -75 -50 -127.5t-135 -60.5v-93h-56v93q-120 9 -195 88z" />
    <glyph glyph-name="percent" unicode="%" horiz-adv-x="728" 
d="M195 437q-58 0 -99 40.5t-41 98.5q0 57 41 98t99 41t99.5 -41t41.5 -98q0 -58 -41.5 -98.5t-99.5 -40.5zM61 0l535 703h72l-535 -703h-72zM195 493q34 0 57.5 24t23.5 59q0 34 -23.5 58.5t-57.5 24.5t-57.5 -24.5t-23.5 -58.5q0 -35 23.5 -59t57.5 -24zM393 126
q0 58 41 99t99 41t99.5 -41t41.5 -99q0 -57 -41.5 -97.5t-99.5 -40.5t-99 40.5t-41 97.5zM452 127q0 -35 23.5 -59t57.5 -24t58 24t24 59q0 34 -24 58.5t-58 24.5t-57.5 -24.5t-23.5 -58.5z" />
    <glyph glyph-name="ampersand" unicode="&#x26;" horiz-adv-x="665" 
d="M60 194q0 63 34 115t94 70v2q-97 41 -97 156q0 81 57 129.5t153 48.5q39 0 80 -11l-19 -57q-28 7 -58 7q-62 0 -102 -32.5t-40 -88.5q0 -21 5.5 -40t20 -40.5t47 -34t78.5 -12.5h148v99h69v-99h96v-62h-96v-103q0 -124 -62 -188.5t-171 -64.5q-104 0 -170.5 58.5
t-66.5 147.5zM132 198q0 -62 45 -103.5t120 -41.5q164 0 164 190v101h-148q-89 0 -135 -39t-46 -107z" />
    <glyph glyph-name="quotesingle" unicode="'" horiz-adv-x="217" 
d="M79 545v168h59v-168h-59z" />
    <glyph glyph-name="parenleft" unicode="(" horiz-adv-x="278" 
d="M170 -95q-112 195 -112 432q0 208 112 393h64q-113 -189 -113 -394q0 -230 113 -431h-64z" />
    <glyph glyph-name="parenright" unicode=")" horiz-adv-x="278" 
d="M44 -95q113 203 113 431q0 203 -113 394h63q113 -184 113 -393q0 -238 -113 -432h-63z" />
    <glyph glyph-name="asterisk" unicode="*" horiz-adv-x="496" 
d="M161 337l-53 38l95 120v2l-147 42l19 63l145 -53l-6 154h67l-6 -154l145 52l21 -61l-148 -43v-2l94 -120l-53 -39l-85 127h-2z" />
    <glyph glyph-name="plus" unicode="+" horiz-adv-x="568" 
d="M23 255v58h231v255h61v-255h230v-58h-230v-255h-61v255h-231z" />
    <glyph glyph-name="comma" unicode="," horiz-adv-x="262" 
d="M44 -97l57 179h78l-76 -179h-59z" />
    <glyph glyph-name="hyphen" unicode="-" horiz-adv-x="432" 
d="M74 253v62h284v-62h-284z" />
    <glyph glyph-name="period" unicode="." horiz-adv-x="230" 
d="M74 0v83h82v-83h-82z" />
    <glyph glyph-name="slash" unicode="/" horiz-adv-x="402" 
d="M42 -42l254 784h64l-254 -784h-64z" />
    <glyph glyph-name="zero" unicode="0" horiz-adv-x="617" 
d="M308 -12q-128 0 -185 99t-57 265q0 79 12.5 142.5t40 114.5t75.5 78.5t114 27.5q88 0 144 -50t77.5 -128t21.5 -185q0 -80 -12.5 -143.5t-40 -114t-75.5 -78.5t-115 -28zM308 53q64 0 103.5 41t53.5 104t14 154q0 66 -8 117.5t-27 93t-53 64t-83 22.5q-170 0 -170 -297
q0 -140 38.5 -219.5t131.5 -79.5z" />
    <glyph glyph-name="one" unicode="1" horiz-adv-x="472" 
d="M57 0v62h158v516l1 39h-2q-7 -14 -35 -42l-75 -74l-44 44l159 158h64v-641h155v-62h-381z" />
    <glyph glyph-name="two" unicode="2" horiz-adv-x="564" 
d="M62 0q-4 32 -4 45q0 50 20 93.5t51.5 75t70 60t77.5 54.5t70.5 52.5t51.5 61t20 72.5q0 59 -40.5 97t-105.5 38q-48 0 -89.5 -26.5t-68.5 -69.5l-51 35q31 56 87.5 91.5t125.5 35.5q97 0 155.5 -56t58.5 -141q0 -48 -19.5 -89.5t-51 -72t-69.5 -58t-76 -53t-69.5 -52
t-51.5 -60t-20 -71.5h368v-62h-440z" />
    <glyph glyph-name="three" unicode="3" horiz-adv-x="562" 
d="M49 84l43 53q32 -35 80 -58.5t100 -23.5q65 0 112.5 42.5t47.5 108.5q0 71 -51.5 110.5t-124.5 39.5h-49l-17 41l176 206l37 39v2q-20 -3 -57 -3h-264v62h411v-46l-209 -242q36 -2 72 -13.5t70 -34t55.5 -64t21.5 -95.5q0 -91 -66 -155.5t-165 -64.5q-61 0 -120 25.5
t-103 70.5z" />
    <glyph glyph-name="four" unicode="4" horiz-adv-x="601" 
d="M38 195v45l345 463h75v-448h100v-60h-100v-195h-69v195h-351zM121 255h268v295l4 67h-2q-17 -29 -35 -54l-235 -306v-2z" />
    <glyph glyph-name="five" unicode="5" horiz-adv-x="555" 
d="M54 87l45 49q56 -81 158 -81q74 0 124.5 46.5t50.5 117.5q0 72 -51 119t-127 47q-71 0 -128 -39l-44 16l38 341h340v-62h-279l-21 -180l-6 -40h2q43 27 106 27q104 0 173 -66.5t69 -162.5q0 -97 -70.5 -164t-173.5 -67q-61 0 -116 26t-90 73z" />
    <glyph glyph-name="six" unicode="6" horiz-adv-x="589" 
d="M62 317q0 69 18 137t54 127.5t97 96.5t139 37q72 0 130 -29l-26 -61q-42 24 -104 24q-101 0 -161.5 -83.5t-70.5 -197.5h2q25 37 74 59.5t104 22.5q96 0 157 -64t61 -166q0 -104 -63 -168t-157 -64q-113 0 -183.5 93t-70.5 236zM320 53q65 0 105.5 47.5t40.5 121.5
q0 76 -43.5 121t-115.5 45q-67 0 -118.5 -36.5t-51.5 -91.5q0 -40 19.5 -86t63.5 -83.5t100 -37.5z" />
    <glyph glyph-name="seven" unicode="7" horiz-adv-x="527" 
d="M103 0l284 576l38 65v2q-17 -2 -52 -2h-329v62h457v-48l-326 -655h-72z" />
    <glyph glyph-name="eight" unicode="8" horiz-adv-x="595" 
d="M59 198q0 40 14 75.5t36 60.5t38 38t31 23q-85 56 -85 140q0 75 56 127.5t157 52.5q97 0 156 -50.5t59 -131.5q0 -43 -20 -87.5t-37.5 -66.5t-33.5 -38q100 -58 100 -150q0 -84 -66 -143.5t-167 -59.5q-98 0 -168 58.5t-70 151.5zM373 369q78 78 78 159q0 57 -40.5 90
t-105.5 33t-103.5 -33t-38.5 -82q0 -22 9.5 -41.5t22.5 -32.5t37.5 -27.5t42 -22.5t50 -21.5t48.5 -21.5zM131 203q0 -66 50 -108.5t115 -42.5q64 0 113.5 39.5t49.5 98.5q0 27 -12.5 49t-39 40t-49 29t-63.5 28t-61 27q-103 -64 -103 -160z" />
    <glyph glyph-name="nine" unicode="9" horiz-adv-x="589" 
d="M89 17l27 61q46 -25 102 -25q70 0 122.5 43t78.5 104.5t33 134.5h-2q-26 -37 -75 -59.5t-103 -22.5q-97 0 -158 63.5t-61 164.5q0 106 63 170t158 64q113 0 183 -93t70 -237q0 -69 -18.5 -136.5t-54 -127t-97 -96.5t-139.5 -37q-70 0 -129 29zM282 315q69 0 120 38t51 82
q0 76 -52 145t-126 69q-71 0 -111.5 -47t-40.5 -121q0 -75 43.5 -120.5t115.5 -45.5z" />
    <glyph glyph-name="colon" unicode=":" horiz-adv-x="227" 
d="M74 423v80h78v-80h-78zM74 0v80h78v-80h-78z" />
    <glyph glyph-name="semicolon" unicode=";" horiz-adv-x="281" 
d="M116 423v80h77v-80h-77zM66 -97l49 179h75l-66 -179h-58z" />
    <glyph glyph-name="less" unicode="&#x3c;" horiz-adv-x="568" 
d="M45 259v50l452 202v-67l-368 -159v-2l368 -159v-67z" />
    <glyph glyph-name="equal" unicode="=" horiz-adv-x="568" 
d="M51 342v58h466v-58h-466zM51 168v58h466v-58h-466z" />
    <glyph glyph-name="greater" unicode="&#x3e;" horiz-adv-x="568" 
d="M71 57v67l367 159v2l-367 159v67l451 -202v-50z" />
    <glyph glyph-name="question" unicode="?" horiz-adv-x="450" 
d="M157 184v45q0 44 18 79.5t43.5 59.5t51 47.5t43.5 54t18 66.5q0 49 -37 82t-94 33q-65 0 -120 -42l-38 50q28 25 72 41t89 16q86 0 143 -50t57 -127q0 -46 -18.5 -83t-44.5 -61.5t-52.5 -47.5t-45 -53.5t-18.5 -66.5v-43h-67zM151 0v79h79v-79h-79z" />
    <glyph glyph-name="at" unicode="@" horiz-adv-x="778" 
d="M60 242q0 153 104 260.5t251 107.5q127 0 186 -54t59 -136v-315h71v-56h-269q-85 0 -142 56.5t-57 135.5t57 135.5t142 56.5h130q-2 51 -45.5 84.5t-126.5 33.5q-122 0 -206.5 -91t-84.5 -218q0 -129 84.5 -217.5t211.5 -88.5v-60q-155 0 -260 106t-105 260zM333 242
q0 -57 39 -97t96 -40h124v275h-122q-58 0 -97.5 -40.5t-39.5 -97.5z" />
    <glyph glyph-name="A" unicode="A" horiz-adv-x="632" 
d="M21 0l258 703h74l258 -703h-73l-81 224h-283l-80 -224h-73zM195 284h241l-92 255l-27 92h-2q-15 -59 -27 -92z" />
    <glyph glyph-name="B" unicode="B" horiz-adv-x="616" 
d="M101 0v703h240q84 0 137 -48t53 -129q0 -108 -89 -153v-2q54 -15 86 -63t32 -111q0 -91 -60 -144t-151 -53h-248zM170 398h171q53 0 86 34t33 89q0 54 -32.5 87t-88.5 33h-169v-243zM170 62h180q64 0 101 37t37 100t-38.5 101t-100.5 38h-179v-276z" />
    <glyph glyph-name="C" unicode="C" horiz-adv-x="718" 
d="M55 356q0 154 99.5 256.5t253.5 102.5q159 0 254 -91l-37 -51q-41 36 -99 56.5t-116 20.5q-126 0 -204.5 -83.5t-78.5 -209.5q0 -128 79 -216t207 -88q132 0 227 93l40 -49q-111 -109 -269 -109t-257 105.5t-99 262.5z" />
    <glyph glyph-name="D" unicode="D" horiz-adv-x="738" 
d="M101 0v703h226q161 0 257 -93.5t96 -257.5q0 -165 -96 -258.5t-257 -93.5h-226zM170 62h150q132 0 210 75.5t78 214.5q0 138 -78 213.5t-210 75.5h-150v-579z" />
    <glyph glyph-name="E" unicode="E" horiz-adv-x="560" 
d="M101 0v703h395v-62h-326v-256h267v-62h-267v-261h345v-62h-414z" />
    <glyph glyph-name="F" unicode="F" horiz-adv-x="506" 
d="M101 0v703h369v-62h-300v-264h258v-62h-258v-315h-69z" />
    <glyph glyph-name="G" unicode="G" horiz-adv-x="758" 
d="M55 352q0 153 102 258t253 105q149 0 250 -82l-38 -53q-37 31 -95 50.5t-114 19.5q-126 0 -206 -85t-80 -212q0 -130 79.5 -215t200.5 -85q62 0 120.5 27.5t100.5 74.5v119h-120v62h185v-336h-63v53l1 30h-2q-39 -43 -100 -69t-129 -26q-146 0 -245.5 104t-99.5 260z" />
    <glyph glyph-name="H" unicode="H" horiz-adv-x="747" 
d="M101 0v703h69v-320h407v320h70v-703h-70v321h-407v-321h-69z" />
    <glyph glyph-name="I" unicode="I" horiz-adv-x="271" 
d="M101 0v703h69v-703h-69z" />
    <glyph glyph-name="J" unicode="J" horiz-adv-x="520" 
d="M32 197v28h69v-26q0 -63 32 -104.5t95 -41.5q55 0 92 35t37 109v444h-172v62h241v-506q0 -106 -57.5 -157.5t-139.5 -51.5t-139.5 52t-57.5 157z" />
    <glyph glyph-name="K" unicode="K" horiz-adv-x="591" 
d="M101 0v703h69v-305h118l190 305h79l-211 -332v-2l225 -369h-81l-202 336h-118v-336h-69z" />
    <glyph glyph-name="L" unicode="L" horiz-adv-x="517" 
d="M101 0v703h69v-641h326v-62h-395z" />
    <glyph glyph-name="M" unicode="M" horiz-adv-x="842" 
d="M74 0l56 703h71l185 -413l34 -86h2q18 50 34 86l185 413h71l56 -703h-69l-39 492l-2 98h-2q-21 -62 -37 -98l-166 -361h-64l-165 361l-38 100h-2q1 -62 -2 -100l-39 -492h-69z" />
    <glyph glyph-name="N" unicode="N" horiz-adv-x="751" 
d="M101 0v703h67l359 -506l58 -95h2q-6 58 -6 95v506h69v-703h-67l-359 506l-58 95h-2q6 -58 6 -95v-506h-69z" />
    <glyph glyph-name="O" unicode="O" horiz-adv-x="825" 
d="M54 357q0 151 102.5 254.5t255.5 103.5q154 0 256 -103t102 -255q0 -156 -102 -262.5t-256 -106.5q-153 0 -255.5 106.5t-102.5 262.5zM126 357q0 -129 81.5 -216.5t204.5 -87.5t204.5 87t81.5 217q0 125 -81.5 209t-204.5 84t-204.5 -84t-81.5 -209z" />
    <glyph glyph-name="P" unicode="P" horiz-adv-x="597" 
d="M101 0v703h243q95 0 156 -58t61 -154q0 -97 -61 -156t-156 -59h-174v-276h-69zM170 338h165q71 0 113 41t42 112q0 70 -41.5 110t-112.5 40h-166v-303z" />
    <glyph glyph-name="Q" unicode="Q" horiz-adv-x="825" 
d="M55 356q0 152 102.5 255.5t254.5 103.5q155 0 257 -103t102 -256q0 -143 -88 -242l87 -87l-42 -44l-85 88q-99 -83 -231 -83q-153 0 -255 106.5t-102 261.5zM127 356q0 -128 82 -215.5t203 -87.5q106 0 182 65l-87 88l42 43l85 -87q65 81 65 194q0 126 -82.5 210
t-204.5 84q-121 0 -203 -84t-82 -210z" />
    <glyph glyph-name="R" unicode="R" horiz-adv-x="617" 
d="M101 0v703h213q84 0 129 -20q104 -50 104 -176q0 -71 -37 -124t-97 -70v-2q8 -9 19 -28l153 -283h-80l-158 296h-177v-296h-69zM170 358h167q63 0 101 40.5t38 106.5q0 42 -19.5 74.5t-54.5 48.5q-29 13 -92 13h-140v-283z" />
    <glyph glyph-name="S" unicode="S" horiz-adv-x="534" 
d="M47 78l41 53q35 -34 83.5 -55.5t98.5 -21.5q63 0 102.5 33t39.5 87q0 36 -19.5 63.5t-50 46t-68 35t-75 34.5t-68 39.5t-50 56t-19.5 78.5q0 85 63 136.5t158 51.5q113 0 186 -68l-34 -58q-29 27 -71 43.5t-84 16.5q-62 0 -104.5 -32t-42.5 -86q0 -34 19.5 -60.5
t50 -43.5t68 -33t75 -34t68 -40t50 -57.5t19.5 -81.5q0 -84 -58 -138.5t-157 -54.5q-131 0 -221 90z" />
    <glyph glyph-name="T" unicode="T" horiz-adv-x="607" 
d="M269 0v641h-252v62h574v-62h-253v-641h-69z" />
    <glyph glyph-name="U" unicode="U" horiz-adv-x="723" 
d="M93 245v458h69v-457q0 -90 54 -141.5t145 -51.5q92 0 146 52t54 143v455h70v-458q0 -116 -74.5 -186.5t-194.5 -70.5t-194.5 70.5t-74.5 186.5z" />
    <glyph glyph-name="V" unicode="V" horiz-adv-x="632" 
d="M279 0l-260 703h74l195 -534l27 -90h2q14 54 27 90l195 534h74l-260 -703h-74z" />
    <glyph glyph-name="W" unicode="W" horiz-adv-x="927" 
d="M217 0l-182 703h73l136 -546l16 -75h2q7 38 18 75l150 546h66l150 -546l17 -75h2q6 39 15 75l143 546h72l-188 -703h-82l-136 495l-25 105h-3q-12 -60 -25 -105l-136 -495h-83z" />
    <glyph glyph-name="X" unicode="X" horiz-adv-x="576" 
d="M19 0l224 367l-205 336h81l123 -208l46 -81h2q21 45 43 81l124 208h81l-206 -336l225 -367h-79l-147 243l-44 78h-2q-21 -42 -43 -79l-144 -242h-79z" />
    <glyph glyph-name="Y" unicode="Y" horiz-adv-x="579" 
d="M255 0v302l-238 401h79l149 -255l43 -84h2q22 47 43 84l149 255h79l-237 -401v-302h-69z" />
    <glyph glyph-name="Z" unicode="Z" horiz-adv-x="579" 
d="M35 0v49l364 528q11 17 23.5 33t19.5 24l6 7v2q-17 -2 -52 -2h-341v62h479v-49l-364 -528q-11 -17 -23.5 -33t-18.5 -23l-7 -8v-2q17 2 52 2h364v-62h-502z" />
    <glyph glyph-name="bracketleft" unicode="[" horiz-adv-x="282" 
d="M92 -95v825h136v-56h-73v-713h73v-56h-136z" />
    <glyph glyph-name="backslash" unicode="\" horiz-adv-x="402" 
d="M296 -42l-254 784h64l254 -784h-64z" />
    <glyph glyph-name="bracketright" unicode="]" horiz-adv-x="282" 
d="M54 -39h73v713h-73v56h136v-825h-136v56z" />
    <glyph glyph-name="asciicircum" unicode="^" horiz-adv-x="606" 
d="M73 250l199 453h46l199 -453h-66l-156 370l-156 -370h-66z" />
    <glyph glyph-name="underscore" unicode="_" horiz-adv-x="589" 
d="M37 0h516v-58h-516v58z" />
    <glyph glyph-name="grave" unicode="`" horiz-adv-x="504" 
d="M264 752l-86 119h79l69 -119h-62z" />
    <glyph glyph-name="a" unicode="a" horiz-adv-x="517" 
d="M37 135q0 175 306 175h30v14q0 130 -124 130q-77 0 -143 -48l-31 52q30 26 79 41.5t99 15.5q91 0 139.5 -49.5t48.5 -143.5v-322h-65v59l3 42h-2q-21 -48 -66.5 -80.5t-103.5 -32.5q-69 0 -119.5 39t-50.5 108zM106 141q0 -38 30 -67t83 -29q69 0 111.5 58t42.5 130v23
h-29q-32 0 -55.5 -1t-61 -7.5t-61.5 -17.5t-42 -34t-18 -55z" />
    <glyph glyph-name="b" unicode="b" horiz-adv-x="589" 
d="M81 0v703h68v-248l-3 -42h2q23 47 69 74.5t103 27.5q101 0 160 -72.5t59 -190.5q0 -119 -63 -191.5t-164 -72.5q-53 0 -98 28t-69 75h-2q3 -17 3 -41v-50h-65zM147 250q0 -82 42 -141.5t118 -59.5q69 0 116 54.5t47 147.5q0 91 -44.5 146.5t-115.5 55.5q-69 0 -116 -51
t-47 -152z" />
    <glyph glyph-name="c" unicode="c" horiz-adv-x="542" 
d="M47 251q0 115 76 189.5t188 74.5q52 0 102 -18.5t82 -53.5l-35 -51q-27 28 -66.5 45t-80.5 17q-84 0 -140 -57t-56 -146q0 -88 56.5 -144.5t141.5 -56.5q44 0 88 18.5t73 50.5l31 -51q-33 -37 -85.5 -58.5t-110.5 -21.5q-113 0 -188.5 73.5t-75.5 189.5z" />
    <glyph glyph-name="d" unicode="d" horiz-adv-x="589" 
d="M49 252q0 118 63 190.5t164 72.5q53 0 97.5 -26.5t67.5 -72.5h2q-3 17 -3 38v249h68v-703h-66v57l3 36h-2q-23 -46 -68 -75.5t-107 -29.5q-100 0 -159.5 73t-59.5 191zM119 252q0 -92 44.5 -147.5t115.5 -55.5q69 0 115.5 51t46.5 153q0 82 -41.5 141t-117.5 59
q-69 0 -116 -54t-47 -147z" />
    <glyph glyph-name="e" unicode="e" horiz-adv-x="553" 
d="M47 251q0 120 71.5 192t177.5 72q100 0 155 -66.5t55 -165.5q0 -12 -2 -34h-386q2 -93 58 -146t137 -53q87 0 153 60l31 -52q-35 -32 -85.5 -51t-100.5 -19q-113 0 -188.5 74t-75.5 189zM121 303h316q-3 75 -43 115.5t-100 40.5q-65 0 -113 -41t-60 -115z" />
    <glyph glyph-name="f" unicode="f" horiz-adv-x="322" 
d="M100 0v442h-63v57h63v23q0 58 18.5 98t48.5 57.5t55.5 24t51.5 6.5q16 0 31 -3v-60q-8 2 -24 2q-18 0 -34.5 -4.5t-35.5 -16t-30.5 -39t-11.5 -66.5v-22h128v-57h-128v-442h-69z" />
    <glyph glyph-name="g" unicode="g" horiz-adv-x="582" 
d="M120 -114q66 -34 137 -34q79 0 127 38.5t48 118.5v50l4 37h-2q-49 -93 -160 -93q-101 0 -162.5 72t-61.5 186t59 184t159 70q54 0 99.5 -22t67.5 -66h2q-2 6 -2 17v59h66v-491q0 -112 -69.5 -167t-172.5 -55q-87 0 -164 41zM119 262q0 -90 45 -144t120 -54
q67 0 108.5 46.5t41.5 150.5q0 193 -159 193q-73 0 -114.5 -51t-41.5 -141z" />
    <glyph glyph-name="h" unicode="h" horiz-adv-x="594" 
d="M81 0v703h68v-276l-3 -41h2q18 46 71.5 87.5t129.5 41.5q91 0 130 -49t39 -146v-320h-68v302q0 71 -22 110t-88 39q-80 0 -135.5 -59t-55.5 -149v-243h-68z" />
    <glyph glyph-name="i" unicode="i" horiz-adv-x="230" 
d="M78 618v85h74v-85h-74zM81 0v503h68v-503h-68z" />
    <glyph glyph-name="j" unicode="j" horiz-adv-x="230" 
d="M78 618v85h74v-85h-74zM81 -16v519h68v-521q0 -59 -18.5 -99.5t-48.5 -58t-55.5 -24t-52.5 -6.5q-14 0 -29 3v60q8 -2 22 -2q18 0 34.5 4.5t36 16.5t31.5 40t12 68z" />
    <glyph glyph-name="k" unicode="k" horiz-adv-x="496" 
d="M81 0v703h68v-392h81l150 192h82l-175 -219v-2l193 -282h-82l-167 251h-82v-251h-68z" />
    <glyph glyph-name="l" unicode="l" horiz-adv-x="246" 
d="M81 119v584h68v-569q0 -76 57 -76q10 0 16 1v-61q-12 -2 -25 -2q-15 0 -28 2t-30 9.5t-29 20.5t-20.5 36.5t-8.5 54.5z" />
    <glyph glyph-name="m" unicode="m" horiz-adv-x="916" 
d="M81 0v503h67v-79l-4 -40h2q19 52 73 91.5t112 39.5q133 0 155 -126h2q22 51 73.5 88.5t111.5 37.5q89 0 128 -49t39 -146v-320h-68v303q0 71 -22.5 110t-85.5 39q-73 0 -121 -63.5t-48 -145.5v-243h-68v303q0 70 -21 109.5t-85 39.5q-74 0 -123 -64.5t-49 -144.5v-243
h-68z" />
    <glyph glyph-name="n" unicode="n" horiz-adv-x="594" 
d="M81 0v503h67v-79l-4 -40h2q19 46 71.5 88.5t131.5 42.5q91 0 130 -49t39 -146v-320h-68v302q0 71 -22 110t-88 39q-81 0 -136 -59t-55 -146v-246h-68z" />
    <glyph glyph-name="o" unicode="o" horiz-adv-x="624" 
d="M47 254q0 111 77 186t188 75t188.5 -75t77.5 -186q0 -113 -77.5 -189.5t-188.5 -76.5t-188 76.5t-77 189.5zM117 254q0 -88 56.5 -146t138.5 -58t139 58t57 146q0 85 -57 142.5t-139 57.5t-138.5 -57.5t-56.5 -142.5z" />
    <glyph glyph-name="p" unicode="p" horiz-adv-x="589" 
d="M81 -200v703h65v-53l-3 -39h2q23 49 69.5 76.5t105.5 27.5q101 0 160 -72.5t59 -190.5q0 -119 -63 -191.5t-162 -72.5q-53 0 -97 26.5t-69 73.5h-2q3 -18 3 -44v-244h-68zM147 250q0 -81 43.5 -141t116.5 -60q69 0 116 54.5t47 147.5q0 91 -44.5 146.5t-115.5 55.5
q-69 0 -116 -51t-47 -152z" />
    <glyph glyph-name="q" unicode="q" horiz-adv-x="589" 
d="M49 252q0 118 63 190.5t164 72.5q53 0 98 -27t69 -74h2q-3 16 -3 38v51h66v-703h-68v246l3 44h-2q-22 -43 -65.5 -72.5t-107.5 -29.5q-100 0 -159.5 73t-59.5 191zM119 252q0 -92 44.5 -147.5t115.5 -55.5q69 0 115.5 51t46.5 153q0 82 -41.5 141t-117.5 59
q-69 0 -116 -54t-47 -147z" />
    <glyph glyph-name="r" unicode="r" horiz-adv-x="357" 
d="M81 0v503h67v-93l-4 -40h2q20 60 62.5 99t98.5 39q15 0 27 -3v-67q-6 2 -25 2q-53 0 -91 -37t-53.5 -86.5t-15.5 -103.5v-213h-68z" />
    <glyph glyph-name="s" unicode="s" horiz-adv-x="438" 
d="M37 61l36 48q59 -61 152 -61q44 0 72.5 21.5t28.5 59.5q0 31 -27.5 52.5t-67 36t-79 31.5t-67 48.5t-27.5 77.5q0 66 49 103t122 37q97 0 155 -55l-32 -51q-21 21 -56 33.5t-70 12.5q-43 0 -72 -19.5t-29 -58.5q0 -31 27.5 -53t67.5 -36.5t79.5 -31.5t67 -48.5
t27.5 -77.5q0 -62 -48 -102t-122 -40q-117 0 -187 73z" />
    <glyph glyph-name="t" unicode="t" horiz-adv-x="325" 
d="M99 183v259h-66v57h67v143h67v-143h127v-57h-127v-252q0 -41 12 -69.5t31 -41t36 -17.5t35 -5q14 0 23 2v-61q-12 -2 -29 -2q-21 0 -41 3t-45.5 14.5t-44.5 30.5t-32 55t-13 84z" />
    <glyph glyph-name="u" unicode="u" horiz-adv-x="588" 
d="M75 183v320h69v-302q0 -71 21.5 -110t87.5 -39q83 0 134.5 62t51.5 148v241h68v-503h-67v79l4 40h-2q-18 -47 -70.5 -89t-127.5 -42q-88 0 -128.5 48t-40.5 147z" />
    <glyph glyph-name="v" unicode="v" horiz-adv-x="511" 
d="M219 0l-194 503h73l139 -369l17 -61h2q9 36 18 61l139 369h72l-192 -503h-74z" />
    <glyph glyph-name="w" unicode="w" horiz-adv-x="825" 
d="M199 0l-170 503h73l121 -374l15 -54h2q8 29 16 54l123 372h68l123 -372l16 -54h2q6 28 15 54l121 374h72l-169 -503h-75l-123 358l-15 55h-2q-8 -30 -16 -55l-122 -358h-75z" />
    <glyph glyph-name="x" unicode="x" horiz-adv-x="479" 
d="M20 0l176 262l-162 241h80l108 -169l17 -29h2q9 16 17 29l108 169h79l-162 -241l177 -262h-80l-122 189l-17 28h-2q-8 -14 -17 -28l-123 -189h-79z" />
    <glyph glyph-name="y" unicode="y" horiz-adv-x="526" 
d="M45 -126q28 -23 60 -23q60 0 96 82l30 72l-209 498h75l147 -367l19 -53h2q7 28 17 53l145 367h73l-248 -608q-20 -49 -57.5 -77t-86.5 -28q-23 0 -45.5 7.5t-32.5 14.5l-11 8z" />
    <glyph glyph-name="z" unicode="z" horiz-adv-x="498" 
d="M37 0v44l281 353l40 46v2q-17 -2 -50 -2h-259v60h401v-45l-281 -352l-41 -46v-2q17 2 50 2h282v-60h-423z" />
    <glyph glyph-name="braceleft" unicode="{" horiz-adv-x="340" 
d="M129 83v95q0 45 -21.5 75.5t-63.5 38.5v62q40 8 62.5 38t22.5 77v82q0 47 12 82t28.5 53t39 28.5t38 13t31.5 2.5h15v-56h-9q-13 0 -25.5 -3.5t-29.5 -15t-27 -38.5t-10 -68v-98q0 -43 -21 -77t-59 -50v-2q80 -31 80 -127v-110q0 -41 10 -68t27 -38.5t29.5 -15t25.5 -3.5
h9v-56q-6 -1 -15 -1q-16 0 -31.5 2.5t-38 13.5t-39 29t-28.5 53t-12 82z" />
    <glyph glyph-name="bar" unicode="|" horiz-adv-x="244" 
d="M90 -157v945h63v-945h-63z" />
    <glyph glyph-name="braceright" unicode="}" horiz-adv-x="340" 
d="M47 -40h9q13 0 25.5 3.5t29 15t27 38.5t10.5 68v110q0 46 21 79.5t59 47.5v2q-35 13 -57.5 47.5t-22.5 79.5v98q0 41 -10.5 68t-27 38.5t-29 15t-25.5 3.5h-9v56h15q16 0 31.5 -2.5t38 -13t39 -28.5t28.5 -53t12 -82v-82q0 -45 22 -76.5t63 -38.5v-62q-41 -7 -63 -38.5
t-22 -75.5v-95q0 -47 -12 -82t-28.5 -53t-39 -29t-38 -13.5t-31.5 -2.5l-15 1v56z" />
    <glyph glyph-name="asciitilde" unicode="~" horiz-adv-x="602" 
d="M74 209q0 79 33.5 117t92.5 38q37 0 65.5 -16t44 -36t39 -36t51.5 -16q40 0 55.5 31t15.5 69h58q0 -79 -33.5 -117t-92.5 -38q-37 0 -65.5 16.5t-43.5 35.5t-39 35.5t-52 16.5q-39 0 -54.5 -31t-15.5 -69h-59z" />
    <glyph glyph-name="uni00A0" unicode="&#xa0;" horiz-adv-x="250" 
 />
    <glyph glyph-name="exclamdown" unicode="&#xa1;" horiz-adv-x="240" 
d="M151 318l3 -519h-70l3 519h64zM157 502v-79h-78v79h78z" />
    <glyph glyph-name="cent" unicode="&#xa2;" horiz-adv-x="568" 
d="M267 -13v85q-100 11 -155 88.5t-55 191.5q0 113 55 190.5t155 88.5v84h56v-84q127 -15 186 -148l-63 -24q-49 107 -149 107q-83 0 -126.5 -59.5t-43.5 -154.5q0 -96 43 -155.5t127 -59.5q100 0 149 107l63 -24q-62 -137 -186 -148v-85h-56z" />
    <glyph glyph-name="sterling" unicode="&#xa3;" horiz-adv-x="568" 
d="M49 0v62h63v264h-44v55h44v149q0 79 58.5 132t147.5 53t157 -57l-43 -50q-49 42 -113 42t-100.5 -35.5t-36.5 -88.5v-145h191v-55h-191v-264h339v-62h-472z" />
    <glyph glyph-name="currency" unicode="&#xa4;" horiz-adv-x="597" 
d="M129 0v180h-72v55h72v75h-72v59h72v334h214q98 0 157 -53.5t59 -144.5q0 -90 -61 -142.5t-157 -52.5h-143v-75h253v-55h-253v-180h-69zM198 369h136q71 0 112 37.5t41 101.5t-41 100t-112 36h-136v-275z" />
    <glyph glyph-name="yen" unicode="&#xa5;" horiz-adv-x="568" 
d="M86 211v51h163v40l-28 48h-135v51h107l-176 302h79l144 -250l43 -89h2q21 49 43 89l144 250h79l-176 -302h105v-51h-133l-28 -48v-40h161v-51h-161v-211h-70v211h-163z" />
    <glyph glyph-name="section" unicode="&#xa7;" horiz-adv-x="415" 
d="M142 85l-69 434q-3 18 -3 35q0 70 47.5 115.5t124.5 45.5q68 0 116 -42l-35 -47q-38 29 -81 29q-47 0 -78.5 -28.5t-31.5 -78.5q0 -17 4 -30l66 -433h-60zM57 -20l35 48q36 -30 82 -30q47 0 78 29.5t31 79.5q0 17 -4 32l-65 429h60l68 -434q3 -19 3 -35
q0 -70 -47.5 -115.5t-124.5 -45.5q-66 0 -116 42z" />
    <glyph glyph-name="dieresis" unicode="&#xa8;" horiz-adv-x="504" 
d="M297 785v86h62v-86h-62zM146 785v86h61v-86h-61z" />
    <glyph glyph-name="copyright" unicode="&#xa9;" horiz-adv-x="829" 
d="M60 352q0 151 103.5 257t249.5 106q149 0 253 -105.5t104 -257.5t-104 -258t-253 -106q-147 0 -250 106t-103 258zM118 352q0 -131 85 -220.5t210 -89.5q127 0 213 89.5t86 220.5q0 130 -86.5 219.5t-212.5 89.5q-124 0 -209.5 -89.5t-85.5 -219.5zM217 350
q0 84 55.5 145t150.5 61q50 0 93.5 -25.5t69.5 -67.5l-46 -31q-18 29 -49.5 49t-65.5 20q-69 0 -109 -44t-40 -106t39.5 -106t109.5 -44q34 0 65 19t50 50l46 -31q-24 -39 -68.5 -66t-94.5 -27q-95 0 -150.5 60t-55.5 144z" />
    <glyph glyph-name="ordfeminine" unicode="&#xaa;" horiz-adv-x="425" 
d="M190 382q-44 0 -77 25t-33 70q0 111 192 111h12v4q0 74 -70 74q-43 0 -85 -28l-25 38q46 37 115 37q59 0 89.5 -31.5t30.5 -91.5v-202h-53v49h-2q-12 -23 -37.5 -39t-56.5 -16zM198 429q38 0 62 33t24 73v9h-13q-134 0 -134 -63q0 -22 16 -37t45 -15zM79 264v46h263v-46
h-263z" />
    <glyph glyph-name="guillemotleft" unicode="&#xab;" horiz-adv-x="526" 
d="M230 282l164 206h74l-164 -206l164 -205h-74zM214 77l-164 205l164 206h74l-164 -206l164 -205h-74z" />
    <glyph glyph-name="logicalnot" unicode="&#xac;" horiz-adv-x="627" 
d="M81 342v58h467v-242h-61v184h-406z" />
    <glyph glyph-name="uni00AD" unicode="&#xad;" horiz-adv-x="432" 
d="M74 253v62h284v-62h-284z" />
    <glyph glyph-name="registered" unicode="&#xae;" horiz-adv-x="829" 
d="M60 352q0 151 103.5 257t249.5 106q149 0 253 -105.5t104 -257.5t-104 -258t-253 -106q-147 0 -250 106t-103 258zM118 352q0 -131 85 -220.5t210 -89.5q127 0 213 89.5t86 220.5q0 130 -86.5 219.5t-212.5 89.5q-124 0 -209.5 -89.5t-85.5 -219.5zM294 157v390h139
q53 0 85.5 -32t32.5 -84q0 -41 -22 -68.5t-52 -34.5v-2q4 -5 13 -22l76 -147h-63l-77 158h-75v-158h-57zM351 359h73q32 0 50.5 19.5t18.5 52.5t-18.5 51t-50.5 18h-73v-141z" />
    <glyph glyph-name="macron" unicode="&#xaf;" horiz-adv-x="504" 
d="M129 785v55h246v-55h-246z" />
    <glyph glyph-name="degree" unicode="&#xb0;" horiz-adv-x="398" 
d="M199 436q-58 0 -99 40.5t-41 98.5q0 57 41 98t99 41t99.5 -41t41.5 -98q0 -58 -41.5 -98.5t-99.5 -40.5zM199 492q34 0 57.5 24t23.5 59q0 34 -23.5 58.5t-57.5 24.5t-57.5 -24.5t-23.5 -58.5q0 -35 23.5 -59t57.5 -24z" />
    <glyph glyph-name="plusminus" unicode="&#xb1;" horiz-adv-x="568" 
d="M23 255v58h231v255h61v-255h230v-58h-230v-255h-61v255h-231zM41 -104h486v-58h-486v58z" />
    <glyph glyph-name="twosuperior" unicode="&#xb2;" 
d="M51 423q-3 17 -3 31q0 46 22.5 82t54 59t63.5 43t54.5 45.5t22.5 56.5q0 32 -23.5 54.5t-58.5 22.5q-49 0 -90 -49l-35 35q19 28 53.5 47t72.5 19q62 0 99.5 -36t37.5 -91q0 -41 -21.5 -73t-52.5 -53.5t-62 -40.5t-54 -45t-24 -57h222v-50h-278z" />
    <glyph glyph-name="threesuperior" unicode="&#xb3;" 
d="M181 413q-41 0 -80 17t-63 49l35 38q15 -21 44 -36.5t63 -15.5q36 0 64.5 25.5t28.5 63.5t-29.5 61t-68.5 23h-33l-14 30l99 116l25 25v2q-18 -3 -37 -3h-153v51h262v-37l-119 -139q50 -5 87.5 -37t37.5 -92q0 -58 -43 -99.5t-106 -41.5z" />
    <glyph glyph-name="acute" unicode="&#xb4;" horiz-adv-x="504" 
d="M178 752l69 119h79l-87 -119h-61z" />
    <glyph glyph-name="mu" unicode="&#xb5;" horiz-adv-x="589" 
d="M145 30q7 -51 7 -76v-154h-63v703h68v-302q0 -34 4 -57.5t14.5 -46t33 -34t57.5 -11.5q84 0 135 62t51 148v241h68v-503h-66v77l2 38h-2q-2 -5 -6 -13.5t-20.5 -30.5t-37 -39t-56.5 -30.5t-78 -13.5q-76 0 -109 42h-2z" />
    <glyph glyph-name="mu" unicode="&#x3bc;" horiz-adv-x="589" 
d="M145 30q7 -51 7 -76v-154h-63v703h68v-302q0 -34 4 -57.5t14.5 -46t33 -34t57.5 -11.5q84 0 135 62t51 148v241h68v-503h-66v77l2 38h-2q-2 -5 -6 -13.5t-20.5 -30.5t-37 -39t-56.5 -30.5t-78 -13.5q-76 0 -109 42h-2z" />
    <glyph glyph-name="paragraph" unicode="&#xb6;" horiz-adv-x="568" 
d="M279 -50v291q-98 0 -168.5 67.5t-70.5 164.5q0 96 70 163t168 67h239v-62h-181v-691h-57zM398 -50v631h58v-631h-58z" />
    <glyph glyph-name="periodcentered" unicode="&#xb7;" horiz-adv-x="229" 
d="M74 247v83h80v-83h-80z" />
    <glyph glyph-name="cedilla" unicode="&#xb8;" horiz-adv-x="504" 
d="M200 -91l26 111l40 -7v-8l-11 -60q32 -5 51 -23.5t19 -47.5q0 -41 -27.5 -60t-68.5 -19q-30 0 -50 5v48q15 -6 42 -6q51 0 51 34t-57 34z" />
    <glyph glyph-name="onesuperior" unicode="&#xb9;" 
d="M78 423v50h95v289l1 24h-1q-4 -8 -21 -24l-40 -39l-35 37l99 99h52v-386h92v-50h-242z" />
    <glyph glyph-name="ordmasculine" unicode="&#xba;" horiz-adv-x="486" 
d="M242 383q-70 0 -118.5 48t-48.5 119q0 69 49 116.5t118 47.5t118 -47.5t49 -116.5q0 -71 -48.5 -119t-118.5 -48zM242 434q47 0 79.5 33t32.5 83q0 49 -32.5 81.5t-79.5 32.5t-79.5 -32.5t-32.5 -81.5q0 -50 32.5 -83t79.5 -33zM92 264v46h303v-46h-303z" />
    <glyph glyph-name="guillemotright" unicode="&#xbb;" horiz-adv-x="526" 
d="M237 77l164 205l-164 206h74l164 -206l-164 -205h-74zM58 77l164 205l-164 206h74l164 -206l-164 -205h-74z" />
    <glyph glyph-name="onequarter" unicode="&#xbc;" horiz-adv-x="931" 
d="M768 0v114h-211v38l212 284h54v-272h65v-50h-65v-114h-55zM625 164h143v136l4 62h-2q-16 -27 -33 -49l-112 -147v-2zM314 0h-59l336 703h58zM62 268v50h95v289l1 24h-1q-4 -8 -21 -24l-40 -39l-35 37l99 99h52v-386h92v-50h-242z" />
    <glyph glyph-name="onehalf" unicode="&#xbd;" horiz-adv-x="920" 
d="M588 0q-3 16 -3 31q0 46 22.5 82t54.5 59t63.5 43t54 45.5t22.5 56.5q0 32 -23.5 54.5t-58.5 22.5q-49 0 -90 -49l-35 35q19 28 53.5 47t72.5 19q62 0 99.5 -36t37.5 -91q0 -41 -21.5 -73t-52.5 -53.5t-62 -40.5t-54 -45t-24 -57h222v-50h-278zM314 0h-59l336 703h58z
M62 268v50h95v289l1 24h-1q-4 -8 -21 -24l-40 -39l-35 37l99 99h52v-386h92v-50h-242z" />
    <glyph glyph-name="threequarters" unicode="&#xbe;" horiz-adv-x="951" 
d="M788 0v114h-211v38l212 284h54v-272h65v-50h-65v-114h-55zM645 164h143v136l4 62h-2q-16 -27 -33 -49l-112 -147v-2zM190 258q-41 0 -80 17t-63 49l35 38q15 -21 43.5 -36.5t63.5 -15.5q36 0 64.5 25.5t28.5 63.5t-29.5 61t-68.5 23h-33l-14 30l99 116l25 25v2
q-18 -3 -37 -3h-153v51h262v-37l-119 -139q50 -5 87.5 -37t37.5 -92q0 -58 -43 -99.5t-106 -41.5zM333 0h-59l336 703h58z" />
    <glyph glyph-name="questiondown" unicode="&#xbf;" horiz-adv-x="440" 
d="M287 318v-45q0 -44 -18 -79.5t-43.5 -59.5t-51 -47.5t-43.5 -54t-18 -66.5q0 -49 37 -82t94 -33q65 0 120 42l38 -50q-28 -25 -72 -41t-89 -16q-86 0 -143 50t-57 127q0 46 18.5 83t44.5 61.5t52.5 47.5t45 53.5t18.5 66.5v43h67zM293 502v-79h-79v79h79z" />
    <glyph glyph-name="Agrave" unicode="&#xc0;" horiz-adv-x="632" 
d="M21 0l258 703h74l258 -703h-73l-81 224h-283l-80 -224h-73zM195 284h241l-92 255l-27 92h-2q-15 -59 -27 -92zM285 752l-86 119h79l69 -119h-62z" />
    <glyph glyph-name="Aacute" unicode="&#xc1;" horiz-adv-x="632" 
d="M21 0l258 703h74l258 -703h-73l-81 224h-283l-80 -224h-73zM195 284h241l-92 255l-27 92h-2q-15 -59 -27 -92zM283 752l69 119h79l-87 -119h-61z" />
    <glyph glyph-name="Acircumflex" unicode="&#xc2;" horiz-adv-x="632" 
d="M21 0l258 703h74l258 -703h-73l-81 224h-283l-80 -224h-73zM195 284h241l-92 255l-27 92h-2q-15 -59 -27 -92zM195 752l83 119h75l84 -119h-66l-54 80h-2l-54 -80h-66z" />
    <glyph glyph-name="Atilde" unicode="&#xc3;" horiz-adv-x="632" 
d="M21 0l258 703h74l258 -703h-73l-81 224h-283l-80 -224h-73zM195 284h241l-92 255l-27 92h-2q-15 -59 -27 -92zM160 755q0 116 92 116q29 0 50.5 -17.5t39.5 -35.5t36 -18q22 0 31 21.5t9 46.5h54q0 -116 -92 -116q-29 0 -50.5 18t-39.5 35.5t-36 17.5q-39 0 -39 -68h-55z
" />
    <glyph glyph-name="Adieresis" unicode="&#xc4;" horiz-adv-x="632" 
d="M21 0l258 703h74l258 -703h-73l-81 224h-283l-80 -224h-73zM195 284h241l-92 255l-27 92h-2q-15 -59 -27 -92zM361 785v86h62v-86h-62zM210 785v86h61v-86h-61z" />
    <glyph glyph-name="Aring" unicode="&#xc5;" horiz-adv-x="632" 
d="M21 0l258 703h74l258 -703h-73l-81 224h-283l-80 -224h-73zM195 284h241l-92 255l-27 92h-2q-15 -59 -27 -92zM316 742q-32 0 -54 19.5t-22 50.5t22 51t54 20q31 0 53 -20t22 -51t-22 -50.5t-53 -19.5zM316 779q14 0 23 9.5t9 23.5q0 15 -9 24.5t-23 9.5q-15 0 -24 -9.5
t-9 -24.5q0 -14 9 -23.5t24 -9.5z" />
    <glyph glyph-name="AE" unicode="&#xc6;" horiz-adv-x="850" 
d="M17 0l289 703h481v-62h-327v-256h267v-62h-267v-261h345v-62h-414v324h-171l-130 -324h-73zM245 384h146v257h-41z" />
    <glyph glyph-name="Ccedilla" unicode="&#xc7;" horiz-adv-x="719" 
d="M359 -91l19 80q-145 12 -234 115.5t-89 251.5q0 154 99.5 256.5t253.5 102.5q159 0 254 -91l-37 -51q-41 36 -99 56.5t-116 20.5q-126 0 -204.5 -83.5t-78.5 -209.5q0 -128 79 -216t207 -88q132 0 227 93l40 -49q-107 -105 -258 -109l-8 -43q32 -5 51 -23.5t19 -47.5
q0 -41 -27.5 -60t-68.5 -19q-30 0 -50 5v48q15 -6 42 -6q51 0 51 34t-57 34z" />
    <glyph glyph-name="Egrave" unicode="&#xc8;" horiz-adv-x="560" 
d="M101 0v703h395v-62h-326v-256h267v-62h-267v-261h345v-62h-414zM279 752l-86 119h79l69 -119h-62z" />
    <glyph glyph-name="Eacute" unicode="&#xc9;" horiz-adv-x="560" 
d="M277 752l69 119h79l-87 -119h-61zM101 0v703h395v-62h-326v-256h267v-62h-267v-261h345v-62h-414z" />
    <glyph glyph-name="Ecircumflex" unicode="&#xca;" horiz-adv-x="560" 
d="M189 752l83 119h75l84 -119h-66l-54 80h-2l-54 -80h-66zM101 0v703h395v-62h-326v-256h267v-62h-267v-261h345v-62h-414z" />
    <glyph glyph-name="Edieresis" unicode="&#xcb;" horiz-adv-x="560" 
d="M355 785v86h62v-86h-62zM204 785v86h61v-86h-61zM101 0v703h395v-62h-326v-256h267v-62h-267v-261h345v-62h-414z" />
    <glyph glyph-name="Igrave" unicode="&#xcc;" horiz-adv-x="271" 
d="M101 0v703h69v-703h-69zM106 752l-86 119h79l69 -119h-62z" />
    <glyph glyph-name="Iacute" unicode="&#xcd;" horiz-adv-x="271" 
d="M101 0v703h69v-703h-69zM104 752l69 119h79l-87 -119h-61z" />
    <glyph glyph-name="Icircumflex" unicode="&#xce;" horiz-adv-x="271" 
d="M101 0v703h69v-703h-69zM16 752l83 119h75l84 -119h-66l-54 80h-2l-54 -80h-66z" />
    <glyph glyph-name="Idieresis" unicode="&#xcf;" horiz-adv-x="271" 
d="M101 0v703h69v-703h-69zM182 785v86h62v-86h-62zM31 785v86h61v-86h-61z" />
    <glyph glyph-name="Eth" unicode="&#xd0;" horiz-adv-x="744" 
d="M107 0v323h-60v60h60v320h226q161 0 257 -93.5t96 -257.5q0 -165 -96 -258.5t-257 -93.5h-226zM176 62h150q132 0 210 75.5t78 214.5q0 138 -78 213.5t-210 75.5h-150v-258h167v-60h-167v-261z" />
    <glyph glyph-name="Ntilde" unicode="&#xd1;" horiz-adv-x="751" 
d="M101 0v703h67l359 -506l58 -95h2q-6 58 -6 95v506h69v-703h-67l-359 506l-58 95h-2q6 -58 6 -95v-506h-69zM219 755q0 116 92 116q29 0 50.5 -17.5t39.5 -35.5t36 -18q22 0 31 21.5t9 46.5h54q0 -116 -92 -116q-29 0 -50.5 18t-39.5 35.5t-36 17.5q-39 0 -39 -68h-55z
" />
    <glyph glyph-name="Ograve" unicode="&#xd2;" horiz-adv-x="825" 
d="M54 357q0 151 102.5 254.5t255.5 103.5q154 0 256 -103t102 -255q0 -156 -102 -262.5t-256 -106.5q-153 0 -255.5 106.5t-102.5 262.5zM126 357q0 -129 81.5 -216.5t204.5 -87.5t204.5 87t81.5 217q0 125 -81.5 209t-204.5 84t-204.5 -84t-81.5 -209zM381 752l-86 119h79
l69 -119h-62z" />
    <glyph glyph-name="Oacute" unicode="&#xd3;" horiz-adv-x="825" 
d="M379 752l69 119h79l-87 -119h-61zM54 357q0 151 102.5 254.5t255.5 103.5q154 0 256 -103t102 -255q0 -156 -102 -262.5t-256 -106.5q-153 0 -255.5 106.5t-102.5 262.5zM126 357q0 -129 81.5 -216.5t204.5 -87.5t204.5 87t81.5 217q0 125 -81.5 209t-204.5 84
t-204.5 -84t-81.5 -209z" />
    <glyph glyph-name="Ocircumflex" unicode="&#xd4;" horiz-adv-x="825" 
d="M291 752l83 119h75l84 -119h-66l-54 80h-2l-54 -80h-66zM54 357q0 151 102.5 254.5t255.5 103.5q154 0 256 -103t102 -255q0 -156 -102 -262.5t-256 -106.5q-153 0 -255.5 106.5t-102.5 262.5zM126 357q0 -129 81.5 -216.5t204.5 -87.5t204.5 87t81.5 217
q0 125 -81.5 209t-204.5 84t-204.5 -84t-81.5 -209z" />
    <glyph glyph-name="Otilde" unicode="&#xd5;" horiz-adv-x="825" 
d="M54 357q0 151 102.5 254.5t255.5 103.5q154 0 256 -103t102 -255q0 -156 -102 -262.5t-256 -106.5q-153 0 -255.5 106.5t-102.5 262.5zM126 357q0 -129 81.5 -216.5t204.5 -87.5t204.5 87t81.5 217q0 125 -81.5 209t-204.5 84t-204.5 -84t-81.5 -209zM256 755
q0 116 92 116q29 0 50.5 -17.5t39.5 -35.5t36 -18q22 0 31 21.5t9 46.5h54q0 -116 -92 -116q-29 0 -50.5 18t-39.5 35.5t-36 17.5q-39 0 -39 -68h-55z" />
    <glyph glyph-name="Odieresis" unicode="&#xd6;" horiz-adv-x="825" 
d="M457 785v86h62v-86h-62zM306 785v86h61v-86h-61zM54 357q0 151 102.5 254.5t255.5 103.5q154 0 256 -103t102 -255q0 -156 -102 -262.5t-256 -106.5q-153 0 -255.5 106.5t-102.5 262.5zM126 357q0 -129 81.5 -216.5t204.5 -87.5t204.5 87t81.5 217q0 125 -81.5 209
t-204.5 84t-204.5 -84t-81.5 -209z" />
    <glyph glyph-name="multiply" unicode="&#xd7;" horiz-adv-x="568" 
d="M28 41l216 243l-216 243l42 41l214 -240l213 240l43 -41l-217 -243l217 -243l-43 -41l-213 240l-214 -240z" />
    <glyph glyph-name="Oslash" unicode="&#xd8;" horiz-adv-x="824" 
d="M131 5l49 69q-59 51 -92.5 124.5t-33.5 157.5q0 152 104 255.5t254 103.5q102 0 189 -54l48 67l41 -30l-47 -66q127 -106 127 -276q0 -154 -104 -261t-254 -107q-104 0 -191 56l-49 -68zM221 131l341 476q-66 43 -150 43q-119 0 -202.5 -84.5t-83.5 -209.5q0 -67 26 -126
t69 -99zM259 98q68 -45 153 -45q120 0 203 87t83 215q0 136 -96 222z" />
    <glyph glyph-name="Ugrave" unicode="&#xd9;" horiz-adv-x="723" 
d="M93 245v458h69v-457q0 -90 54 -141.5t145 -51.5q92 0 146 52t54 143v455h70v-458q0 -116 -74.5 -186.5t-194.5 -70.5t-194.5 70.5t-74.5 186.5zM330 752l-86 119h79l69 -119h-62z" />
    <glyph glyph-name="Uacute" unicode="&#xda;" horiz-adv-x="723" 
d="M328 752l69 119h79l-87 -119h-61zM93 245v458h69v-457q0 -90 54 -141.5t145 -51.5q92 0 146 52t54 143v455h70v-458q0 -116 -74.5 -186.5t-194.5 -70.5t-194.5 70.5t-74.5 186.5z" />
    <glyph glyph-name="Ucircumflex" unicode="&#xdb;" horiz-adv-x="723" 
d="M240 752l83 119h75l84 -119h-66l-54 80h-2l-54 -80h-66zM93 245v458h69v-457q0 -90 54 -141.5t145 -51.5q92 0 146 52t54 143v455h70v-458q0 -116 -74.5 -186.5t-194.5 -70.5t-194.5 70.5t-74.5 186.5z" />
    <glyph glyph-name="Udieresis" unicode="&#xdc;" horiz-adv-x="723" 
d="M406 785v86h62v-86h-62zM255 785v86h61v-86h-61zM93 245v458h69v-457q0 -90 54 -141.5t145 -51.5q92 0 146 52t54 143v455h70v-458q0 -116 -74.5 -186.5t-194.5 -70.5t-194.5 70.5t-74.5 186.5z" />
    <glyph glyph-name="Yacute" unicode="&#xdd;" horiz-adv-x="579" 
d="M255 0v302l-238 401h79l149 -255l43 -84h2q22 47 43 84l149 255h79l-237 -401v-302h-69zM256 752l69 119h79l-87 -119h-61z" />
    <glyph glyph-name="Thorn" unicode="&#xde;" horiz-adv-x="600" 
d="M101 0v703h69v-125h174q95 0 156 -58t61 -155q0 -96 -61.5 -155t-157.5 -59h-172v-151h-69zM170 213h165q71 0 113 40.5t42 111.5t-41.5 111t-112.5 40h-166v-303z" />
    <glyph glyph-name="germandbls" unicode="&#xdf;" horiz-adv-x="574" 
d="M81 0v531q0 85 60.5 134.5t141.5 49.5q78 0 126 -43.5t48 -105.5q0 -35 -17.5 -65.5t-38 -48.5t-38 -40t-17.5 -43q0 -18 20 -37.5t49 -38t58 -39.5t49 -52t20 -66q0 -68 -47 -105.5t-115 -37.5q-89 0 -148 32v65q59 -35 143 -35q41 0 69 21t28 62q0 31 -30.5 60.5
t-67.5 49.5t-67.5 52t-30.5 67q0 29 17.5 56t38.5 45t38.5 44t17.5 53q0 35 -28.5 62t-79.5 27q-53 0 -92 -34t-39 -94v-526h-68z" />
    <glyph glyph-name="agrave" unicode="&#xe0;" horiz-adv-x="517" 
d="M37 135q0 175 306 175h30v14q0 130 -124 130q-77 0 -143 -48l-31 52q30 26 79 41.5t99 15.5q91 0 139.5 -49.5t48.5 -143.5v-322h-65v59l3 42h-2q-21 -48 -66.5 -80.5t-103.5 -32.5q-69 0 -119.5 39t-50.5 108zM106 141q0 -38 30 -67t83 -29q69 0 111.5 58t42.5 130v23
h-29q-32 0 -55.5 -1t-61 -7.5t-61.5 -17.5t-42 -34t-18 -55zM225 585l-86 119h79l69 -119h-62z" />
    <glyph glyph-name="aacute" unicode="&#xe1;" horiz-adv-x="517" 
d="M37 135q0 175 306 175h30v14q0 130 -124 130q-77 0 -143 -48l-31 52q30 26 79 41.5t99 15.5q91 0 139.5 -49.5t48.5 -143.5v-322h-65v59l3 42h-2q-21 -48 -66.5 -80.5t-103.5 -32.5q-69 0 -119.5 39t-50.5 108zM106 141q0 -38 30 -67t83 -29q69 0 111.5 58t42.5 130v23
h-29q-32 0 -55.5 -1t-61 -7.5t-61.5 -17.5t-42 -34t-18 -55zM221 585l69 119h79l-87 -119h-61z" />
    <glyph glyph-name="acircumflex" unicode="&#xe2;" horiz-adv-x="517" 
d="M37 135q0 175 306 175h30v14q0 130 -124 130q-77 0 -143 -48l-31 52q30 26 79 41.5t99 15.5q91 0 139.5 -49.5t48.5 -143.5v-322h-65v59l3 42h-2q-21 -48 -66.5 -80.5t-103.5 -32.5q-69 0 -119.5 39t-50.5 108zM106 141q0 -38 30 -67t83 -29q69 0 111.5 58t42.5 130v23
h-29q-32 0 -55.5 -1t-61 -7.5t-61.5 -17.5t-42 -34t-18 -55zM133 585l83 119h75l84 -119h-66l-54 80h-2l-54 -80h-66z" />
    <glyph glyph-name="atilde" unicode="&#xe3;" horiz-adv-x="517" 
d="M37 135q0 175 306 175h30v14q0 130 -124 130q-77 0 -143 -48l-31 52q30 26 79 41.5t99 15.5q91 0 139.5 -49.5t48.5 -143.5v-322h-65v59l3 42h-2q-21 -48 -66.5 -80.5t-103.5 -32.5q-69 0 -119.5 39t-50.5 108zM106 141q0 -38 30 -67t83 -29q69 0 111.5 58t42.5 130v23
h-29q-32 0 -55.5 -1t-61 -7.5t-61.5 -17.5t-42 -34t-18 -55zM98 588q0 116 92 116q29 0 50.5 -18t39.5 -35.5t36 -17.5q22 0 31 21.5t9 46.5h54q0 -116 -92 -116q-29 0 -50.5 17.5t-39.5 35.5t-36 18q-39 0 -39 -68h-55z" />
    <glyph glyph-name="adieresis" unicode="&#xe4;" horiz-adv-x="517" 
d="M37 135q0 175 306 175h30v14q0 130 -124 130q-77 0 -143 -48l-31 52q30 26 79 41.5t99 15.5q91 0 139.5 -49.5t48.5 -143.5v-322h-65v59l3 42h-2q-21 -48 -66.5 -80.5t-103.5 -32.5q-69 0 -119.5 39t-50.5 108zM106 141q0 -38 30 -67t83 -29q69 0 111.5 58t42.5 130v23
h-29q-32 0 -55.5 -1t-61 -7.5t-61.5 -17.5t-42 -34t-18 -55zM299 618v86h62v-86h-62zM148 618v86h61v-86h-61z" />
    <glyph glyph-name="aring" unicode="&#xe5;" horiz-adv-x="517" 
d="M37 135q0 175 306 175h30v14q0 130 -124 130q-77 0 -143 -48l-31 52q30 26 79 41.5t99 15.5q91 0 139.5 -49.5t48.5 -143.5v-322h-65v59l3 42h-2q-21 -48 -66.5 -80.5t-103.5 -32.5q-69 0 -119.5 39t-50.5 108zM106 141q0 -38 30 -67t83 -29q69 0 111.5 58t42.5 130v23
h-29q-32 0 -55.5 -1t-61 -7.5t-61.5 -17.5t-42 -34t-18 -55zM254 575q-32 0 -54 19.5t-22 50.5t22 51t54 20q31 0 53 -20t22 -51t-22 -50.5t-53 -19.5zM254 612q14 0 23 9.5t9 23.5q0 15 -9 24.5t-23 9.5q-15 0 -24 -9.5t-9 -24.5q0 -14 9 -23.5t24 -9.5z" />
    <glyph glyph-name="ae" unicode="&#xe6;" horiz-adv-x="866" 
d="M38 137q0 34 11.5 61t28.5 44.5t44.5 30t51.5 19t58 10t55.5 4t52.5 0.5h33v18q0 130 -128 130q-75 0 -139 -48l-32 51q30 27 78 42.5t97 15.5q135 0 170 -104h2q62 104 190 104q98 0 153.5 -65.5t55.5 -163.5q0 -1 -3 -34h-378q2 -96 54 -149t134 -53q89 0 152 60
l31 -52q-33 -31 -84.5 -50.5t-101.5 -19.5q-77 0 -135 37t-86 103h-2q-3 -11 -9.5 -25t-22.5 -35.5t-35.5 -38t-52 -29t-70.5 -12.5q-73 0 -123 39.5t-50 109.5zM443 306h307q-3 74 -43.5 112.5t-98.5 38.5q-65 0 -109 -39t-56 -112zM108 141q0 -39 29.5 -67.5t82.5 -28.5
q69 0 111.5 58.5t42.5 130.5v18h-59q-39 0 -69.5 -3.5t-65 -13.5t-53.5 -34t-19 -60z" />
    <glyph glyph-name="ccedilla" unicode="&#xe7;" horiz-adv-x="544" 
d="M257 -91l19 81q-101 11 -165 83t-64 178q0 115 76 189.5t188 74.5q52 0 102 -18.5t82 -53.5l-35 -51q-27 28 -66.5 45t-80.5 17q-84 0 -140 -57t-56 -146q0 -88 56.5 -144.5t141.5 -56.5q44 0 88 18.5t73 50.5l31 -51q-69 -75 -187 -80l-8 -43q32 -5 51 -23.5t19 -47.5
q0 -41 -27.5 -60t-68.5 -19q-30 0 -50 5v48q15 -6 42 -6q51 0 51 34t-57 34z" />
    <glyph glyph-name="egrave" unicode="&#xe8;" horiz-adv-x="553" 
d="M47 251q0 120 71.5 192t177.5 72q100 0 155 -66.5t55 -165.5q0 -12 -2 -34h-386q2 -93 58 -146t137 -53q87 0 153 60l31 -52q-35 -32 -85.5 -51t-100.5 -19q-113 0 -188.5 74t-75.5 189zM121 303h316q-3 75 -43 115.5t-100 40.5q-65 0 -113 -41t-60 -115zM266 585
l-86 119h79l69 -119h-62z" />
    <glyph glyph-name="eacute" unicode="&#xe9;" horiz-adv-x="553" 
d="M263 585l69 119h79l-87 -119h-61zM47 251q0 120 71.5 192t177.5 72q100 0 155 -66.5t55 -165.5q0 -12 -2 -34h-386q2 -93 58 -146t137 -53q87 0 153 60l31 -52q-35 -32 -85.5 -51t-100.5 -19q-113 0 -188.5 74t-75.5 189zM121 303h316q-3 75 -43 115.5t-100 40.5
q-65 0 -113 -41t-60 -115z" />
    <glyph glyph-name="ecircumflex" unicode="&#xea;" horiz-adv-x="553" 
d="M175 585l83 119h75l84 -119h-66l-54 80h-2l-54 -80h-66zM47 251q0 120 71.5 192t177.5 72q100 0 155 -66.5t55 -165.5q0 -12 -2 -34h-386q2 -93 58 -146t137 -53q87 0 153 60l31 -52q-35 -32 -85.5 -51t-100.5 -19q-113 0 -188.5 74t-75.5 189zM121 303h316
q-3 75 -43 115.5t-100 40.5q-65 0 -113 -41t-60 -115z" />
    <glyph glyph-name="edieresis" unicode="&#xeb;" horiz-adv-x="553" 
d="M341 618v86h62v-86h-62zM190 618v86h61v-86h-61zM47 251q0 120 71.5 192t177.5 72q100 0 155 -66.5t55 -165.5q0 -12 -2 -34h-386q2 -93 58 -146t137 -53q87 0 153 60l31 -52q-35 -32 -85.5 -51t-100.5 -19q-113 0 -188.5 74t-75.5 189zM121 303h316q-3 75 -43 115.5
t-100 40.5q-65 0 -113 -41t-60 -115z" />
    <glyph glyph-name="igrave" unicode="&#xec;" horiz-adv-x="230" 
d="M81 0v503h68v-503h-68zM86 585l-86 119h79l69 -119h-62z" />
    <glyph glyph-name="iacute" unicode="&#xed;" horiz-adv-x="230" 
d="M84 585l69 119h79l-87 -119h-61zM81 0v503h68v-503h-68z" />
    <glyph glyph-name="icircumflex" unicode="&#xee;" horiz-adv-x="230" 
d="M-4 585l83 119h75l84 -119h-66l-54 80h-2l-54 -80h-66zM81 0v503h68v-503h-68z" />
    <glyph glyph-name="idieresis" unicode="&#xef;" horiz-adv-x="230" 
d="M162 618v86h62v-86h-62zM11 618v86h61v-86h-61zM81 0v503h68v-503h-68z" />
    <glyph glyph-name="eth" unicode="&#xf0;" horiz-adv-x="579" 
d="M49 232q0 96 63.5 165.5t175.5 69.5q27 0 51.5 -5.5t40.5 -13.5t28.5 -16.5t17.5 -13.5l6 -6h2q-34 99 -124 160l-176 -80l-14 48l136 63q-64 33 -142 51l19 57q114 -26 197 -76l131 59l13 -48l-97 -45q150 -119 150 -329q0 -71 -24 -133t-82 -106.5t-141 -44.5
q-105 0 -168 73t-63 171zM119 231q0 -74 44 -128t119 -54q86 0 131 64.5t45 147.5q0 64 -45 106t-118 42q-85 0 -130.5 -52.5t-45.5 -125.5z" />
    <glyph glyph-name="ntilde" unicode="&#xf1;" horiz-adv-x="594" 
d="M81 0v503h67v-79l-4 -40h2q19 46 71.5 88.5t131.5 42.5q91 0 130 -49t39 -146v-320h-68v302q0 71 -22 110t-88 39q-81 0 -136 -59t-55 -146v-246h-68zM153 588q0 116 92 116q29 0 50.5 -18t39.5 -35.5t36 -17.5q22 0 31 21.5t9 46.5h54q0 -116 -92 -116q-29 0 -50.5 17.5
t-39.5 35.5t-36 18q-39 0 -39 -68h-55z" />
    <glyph glyph-name="ograve" unicode="&#xf2;" horiz-adv-x="624" 
d="M47 254q0 111 77 186t188 75t188.5 -75t77.5 -186q0 -113 -77.5 -189.5t-188.5 -76.5t-188 76.5t-77 189.5zM117 254q0 -88 56.5 -146t138.5 -58t139 58t57 146q0 85 -57 142.5t-139 57.5t-138.5 -57.5t-56.5 -142.5zM281 585l-86 119h79l69 -119h-62z" />
    <glyph glyph-name="oacute" unicode="&#xf3;" horiz-adv-x="624" 
d="M279 585l69 119h79l-87 -119h-61zM47 254q0 111 77 186t188 75t188.5 -75t77.5 -186q0 -113 -77.5 -189.5t-188.5 -76.5t-188 76.5t-77 189.5zM117 254q0 -88 56.5 -146t138.5 -58t139 58t57 146q0 85 -57 142.5t-139 57.5t-138.5 -57.5t-56.5 -142.5z" />
    <glyph glyph-name="ocircumflex" unicode="&#xf4;" horiz-adv-x="624" 
d="M191 585l83 119h75l84 -119h-66l-54 80h-2l-54 -80h-66zM47 254q0 111 77 186t188 75t188.5 -75t77.5 -186q0 -113 -77.5 -189.5t-188.5 -76.5t-188 76.5t-77 189.5zM117 254q0 -88 56.5 -146t138.5 -58t139 58t57 146q0 85 -57 142.5t-139 57.5t-138.5 -57.5
t-56.5 -142.5z" />
    <glyph glyph-name="otilde" unicode="&#xf5;" horiz-adv-x="624" 
d="M47 254q0 111 77 186t188 75t188.5 -75t77.5 -186q0 -113 -77.5 -189.5t-188.5 -76.5t-188 76.5t-77 189.5zM117 254q0 -88 56.5 -146t138.5 -58t139 58t57 146q0 85 -57 142.5t-139 57.5t-138.5 -57.5t-56.5 -142.5zM156 588q0 116 92 116q29 0 50.5 -18t39.5 -35.5
t36 -17.5q22 0 31 21.5t9 46.5h54q0 -116 -92 -116q-29 0 -50.5 17.5t-39.5 35.5t-36 18q-39 0 -39 -68h-55z" />
    <glyph glyph-name="odieresis" unicode="&#xf6;" horiz-adv-x="624" 
d="M357 618v86h62v-86h-62zM206 618v86h61v-86h-61zM47 254q0 111 77 186t188 75t188.5 -75t77.5 -186q0 -113 -77.5 -189.5t-188.5 -76.5t-188 76.5t-77 189.5zM117 254q0 -88 56.5 -146t138.5 -58t139 58t57 146q0 85 -57 142.5t-139 57.5t-138.5 -57.5t-56.5 -142.5z" />
    <glyph glyph-name="divide" unicode="&#xf7;" horiz-adv-x="568" 
d="M246 433v74h75v-74h-75zM39 255v58h490v-58h-490zM246 61v74h75v-74h-75z" />
    <glyph glyph-name="oslash" unicode="&#xf8;" horiz-adv-x="625" 
d="M105 -3l37 52q-95 77 -95 205q0 111 77.5 186t188.5 75q73 0 136 -36l39 53l41 -29l-39 -54q89 -77 89 -195q0 -113 -77.5 -189.5t-188.5 -76.5q-72 0 -129 33l-38 -54zM180 103l232 323q-48 28 -99 28q-82 0 -139 -57.5t-57 -142.5q0 -91 63 -151zM221 73q41 -23 92 -23
q82 0 139 58t57 146q0 84 -58 140z" />
    <glyph glyph-name="ugrave" unicode="&#xf9;" horiz-adv-x="588" 
d="M75 183v320h69v-302q0 -71 21.5 -110t87.5 -39q83 0 134.5 62t51.5 148v241h68v-503h-67v79l4 40h-2q-18 -47 -70.5 -89t-127.5 -42q-88 0 -128.5 48t-40.5 147zM262 585l-86 119h79l69 -119h-62z" />
    <glyph glyph-name="uacute" unicode="&#xfa;" horiz-adv-x="588" 
d="M258 585l69 119h79l-87 -119h-61zM75 183v320h69v-302q0 -71 21.5 -110t87.5 -39q83 0 134.5 62t51.5 148v241h68v-503h-67v79l4 40h-2q-18 -47 -70.5 -89t-127.5 -42q-88 0 -128.5 48t-40.5 147z" />
    <glyph glyph-name="ucircumflex" unicode="&#xfb;" horiz-adv-x="588" 
d="M170 585l83 119h75l84 -119h-66l-54 80h-2l-54 -80h-66zM75 183v320h69v-302q0 -71 21.5 -110t87.5 -39q83 0 134.5 62t51.5 148v241h68v-503h-67v79l4 40h-2q-18 -47 -70.5 -89t-127.5 -42q-88 0 -128.5 48t-40.5 147z" />
    <glyph glyph-name="udieresis" unicode="&#xfc;" horiz-adv-x="588" 
d="M336 618v86h62v-86h-62zM185 618v86h61v-86h-61zM75 183v320h69v-302q0 -71 21.5 -110t87.5 -39q83 0 134.5 62t51.5 148v241h68v-503h-67v79l4 40h-2q-18 -47 -70.5 -89t-127.5 -42q-88 0 -128.5 48t-40.5 147z" />
    <glyph glyph-name="yacute" unicode="&#xfd;" horiz-adv-x="526" 
d="M45 -126q28 -23 60 -23q60 0 96 82l30 72l-209 498h75l147 -367l19 -53h2q7 28 17 53l145 367h73l-248 -608q-20 -49 -57.5 -77t-86.5 -28q-23 0 -45.5 7.5t-32.5 14.5l-11 8zM231 584l69 119h79l-87 -119h-61z" />
    <glyph glyph-name="thorn" unicode="&#xfe;" horiz-adv-x="588" 
d="M81 -200v903h68v-244l-1 -40h2q20 42 65 69t104 27q101 0 160.5 -73t59.5 -190q0 -118 -62.5 -191t-161.5 -73q-52 0 -98 25.5t-68 70.5h-2q2 -18 2 -44v-240h-68zM147 251q0 -85 43.5 -143.5t117.5 -58.5q69 0 115.5 55.5t46.5 147.5q0 90 -44.5 146t-114.5 56t-117 -51
t-47 -152z" />
    <glyph glyph-name="ydieresis" unicode="&#xff;" horiz-adv-x="526" 
d="M45 -126q28 -23 60 -23q60 0 96 82l30 72l-209 498h75l147 -367l19 -53h2q7 28 17 53l145 367h73l-248 -608q-20 -49 -57.5 -77t-86.5 -28q-23 0 -45.5 7.5t-32.5 14.5l-11 8zM308 617v86h62v-86h-62zM157 617v86h61v-86h-61z" />
    <glyph glyph-name="Amacron" unicode="&#x100;" horiz-adv-x="632" 
d="M21 0l258 703h74l258 -703h-73l-81 224h-283l-80 -224h-73zM195 284h241l-92 255l-27 92h-2q-15 -59 -27 -92zM193 785v55h246v-55h-246z" />
    <glyph glyph-name="amacron" unicode="&#x101;" horiz-adv-x="517" 
d="M37 135q0 175 306 175h30v14q0 130 -124 130q-77 0 -143 -48l-31 52q30 26 79 41.5t99 15.5q91 0 139.5 -49.5t48.5 -143.5v-322h-65v59l3 42h-2q-21 -48 -66.5 -80.5t-103.5 -32.5q-69 0 -119.5 39t-50.5 108zM106 141q0 -38 30 -67t83 -29q69 0 111.5 58t42.5 130v23
h-29q-32 0 -55.5 -1t-61 -7.5t-61.5 -17.5t-42 -34t-18 -55zM131 618v55h246v-55h-246z" />
    <glyph glyph-name="Abreve" unicode="&#x102;" horiz-adv-x="632" 
d="M21 0l258 703h74l258 -703h-73l-81 224h-283l-80 -224h-73zM195 284h241l-92 255l-27 92h-2q-15 -59 -27 -92zM316 749q-48 0 -82 28t-34 79v15h55v-14q0 -31 17 -46t44 -15q25 0 42.5 15.5t17.5 46.5v13h55v-15q0 -51 -34 -79t-81 -28z" />
    <glyph glyph-name="abreve" unicode="&#x103;" horiz-adv-x="517" 
d="M37 135q0 175 306 175h30v14q0 130 -124 130q-77 0 -143 -48l-31 52q30 26 79 41.5t99 15.5q91 0 139.5 -49.5t48.5 -143.5v-322h-65v59l3 42h-2q-21 -48 -66.5 -80.5t-103.5 -32.5q-69 0 -119.5 39t-50.5 108zM106 141q0 -38 30 -67t83 -29q69 0 111.5 58t42.5 130v23
h-29q-32 0 -55.5 -1t-61 -7.5t-61.5 -17.5t-42 -34t-18 -55zM254 582q-48 0 -82 28t-34 79v15h55v-14q0 -31 17 -46t44 -15q25 0 42.5 15.5t17.5 46.5v13h55v-15q0 -51 -34 -79t-81 -28z" />
    <glyph glyph-name="Aogonek" unicode="&#x104;" horiz-adv-x="632" 
d="M21 0l258 703h74l258 -703q-73 -56 -73 -99q0 -20 15.5 -32.5t30.5 -14.5l16 -3l-15 -56q-4 0 -11.5 1t-26.5 7t-33.5 15t-26.5 27t-12 42q0 61 66 113h-3l-81 224h-283l-80 -224h-73zM195 284h241l-92 255l-27 92h-2q-15 -59 -27 -92z" />
    <glyph glyph-name="aogonek" unicode="&#x105;" horiz-adv-x="517" 
d="M37 135q0 175 306 175h30v14q0 130 -124 130q-77 0 -143 -48l-31 52q30 26 79 41.5t99 15.5q91 0 139.5 -49.5t48.5 -143.5v-322q-73 -56 -73 -99q0 -20 15.5 -32.5t30.5 -14.5l16 -3l-15 -56q-4 0 -11.5 1t-26.5 7t-33.5 15t-26.5 27t-12 42q0 59 71 113v59l3 42h-2
q-21 -48 -66.5 -80.5t-103.5 -32.5q-69 0 -119.5 39t-50.5 108zM106 141q0 -38 30 -67t83 -29q69 0 111.5 58t42.5 130v23h-29q-32 0 -55.5 -1t-61 -7.5t-61.5 -17.5t-42 -34t-18 -55z" />
    <glyph glyph-name="Cacute" unicode="&#x106;" horiz-adv-x="718" 
d="M369 752l69 119h79l-87 -119h-61zM55 356q0 154 99.5 256.5t253.5 102.5q159 0 254 -91l-37 -51q-41 36 -99 56.5t-116 20.5q-126 0 -204.5 -83.5t-78.5 -209.5q0 -128 79 -216t207 -88q132 0 227 93l40 -49q-111 -109 -269 -109t-257 105.5t-99 262.5z" />
    <glyph glyph-name="cacute" unicode="&#x107;" horiz-adv-x="542" 
d="M260 585l69 119h79l-87 -119h-61zM47 251q0 115 76 189.5t188 74.5q52 0 102 -18.5t82 -53.5l-35 -51q-27 28 -66.5 45t-80.5 17q-84 0 -140 -57t-56 -146q0 -88 56.5 -144.5t141.5 -56.5q44 0 88 18.5t73 50.5l31 -51q-33 -37 -85.5 -58.5t-110.5 -21.5
q-113 0 -188.5 73.5t-75.5 189.5z" />
    <glyph glyph-name="Ccircumflex" unicode="&#x108;" horiz-adv-x="718" 
d="M281 752l83 119h75l84 -119h-66l-54 80h-2l-54 -80h-66zM55 356q0 154 99.5 256.5t253.5 102.5q159 0 254 -91l-37 -51q-41 36 -99 56.5t-116 20.5q-126 0 -204.5 -83.5t-78.5 -209.5q0 -128 79 -216t207 -88q132 0 227 93l40 -49q-111 -109 -269 -109t-257 105.5
t-99 262.5z" />
    <glyph glyph-name="ccircumflex" unicode="&#x109;" horiz-adv-x="542" 
d="M171 585l83 119h75l84 -119h-66l-54 80h-2l-54 -80h-66zM47 251q0 115 76 189.5t188 74.5q52 0 102 -18.5t82 -53.5l-35 -51q-27 28 -66.5 45t-80.5 17q-84 0 -140 -57t-56 -146q0 -88 56.5 -144.5t141.5 -56.5q44 0 88 18.5t73 50.5l31 -51q-33 -37 -85.5 -58.5
t-110.5 -21.5q-113 0 -188.5 73.5t-75.5 189.5z" />
    <glyph glyph-name="Cdotaccent" unicode="&#x10a;" horiz-adv-x="718" 
d="M55 356q0 154 99.5 256.5t253.5 102.5q159 0 254 -91l-37 -51q-41 36 -99 56.5t-116 20.5q-126 0 -204.5 -83.5t-78.5 -209.5q0 -128 79 -216t207 -88q132 0 227 93l40 -49q-111 -109 -269 -109t-257 105.5t-99 262.5zM369 786v85h65v-85h-65z" />
    <glyph glyph-name="cdotaccent" unicode="&#x10b;" horiz-adv-x="542" 
d="M47 251q0 115 76 189.5t188 74.5q52 0 102 -18.5t82 -53.5l-35 -51q-27 28 -66.5 45t-80.5 17q-84 0 -140 -57t-56 -146q0 -88 56.5 -144.5t141.5 -56.5q44 0 88 18.5t73 50.5l31 -51q-33 -37 -85.5 -58.5t-110.5 -21.5q-113 0 -188.5 73.5t-75.5 189.5zM260 619v85h65
v-85h-65z" />
    <glyph glyph-name="Ccaron" unicode="&#x10c;" horiz-adv-x="718" 
d="M364 752l-83 119h66l54 -80h2l54 80h66l-84 -119h-75zM55 356q0 154 99.5 256.5t253.5 102.5q159 0 254 -91l-37 -51q-41 36 -99 56.5t-116 20.5q-126 0 -204.5 -83.5t-78.5 -209.5q0 -128 79 -216t207 -88q132 0 227 93l40 -49q-111 -109 -269 -109t-257 105.5
t-99 262.5z" />
    <glyph glyph-name="ccaron" unicode="&#x10d;" horiz-adv-x="542" 
d="M254 585l-83 119h66l54 -80h2l54 80h66l-84 -119h-75zM47 251q0 115 76 189.5t188 74.5q52 0 102 -18.5t82 -53.5l-35 -51q-27 28 -66.5 45t-80.5 17q-84 0 -140 -57t-56 -146q0 -88 56.5 -144.5t141.5 -56.5q44 0 88 18.5t73 50.5l31 -51q-33 -37 -85.5 -58.5
t-110.5 -21.5q-113 0 -188.5 73.5t-75.5 189.5z" />
    <glyph glyph-name="Dcaron" unicode="&#x10e;" horiz-adv-x="738" 
d="M303 752l-83 119h66l54 -80h2l54 80h66l-84 -119h-75zM101 0v703h226q161 0 257 -93.5t96 -257.5q0 -165 -96 -258.5t-257 -93.5h-226zM170 62h150q132 0 210 75.5t78 214.5q0 138 -78 213.5t-210 75.5h-150v-579z" />
    <glyph glyph-name="dcaron" unicode="&#x10f;" horiz-adv-x="593" 
d="M570 702h65q6 -27 6 -49q0 -39 -23 -90h-56q19 48 19 81q0 28 -11 58zM49 252q0 118 63 190.5t164 72.5q53 0 97.5 -26.5t67.5 -72.5h2q-3 17 -3 38v249h68v-703h-66v57l3 36h-2q-23 -46 -68 -75.5t-107 -29.5q-100 0 -159.5 73t-59.5 191zM119 252q0 -92 44.5 -147.5
t115.5 -55.5q69 0 115.5 51t46.5 153q0 82 -41.5 141t-117.5 59q-69 0 -116 -54t-47 -147z" />
    <glyph glyph-name="Dcroat" unicode="&#x110;" horiz-adv-x="744" 
d="M107 0v323h-60v60h60v320h226q161 0 257 -93.5t96 -257.5q0 -165 -96 -258.5t-257 -93.5h-226zM176 62h150q132 0 210 75.5t78 214.5q0 138 -78 213.5t-210 75.5h-150v-258h167v-60h-167v-261z" />
    <glyph glyph-name="dcroat" unicode="&#x111;" horiz-adv-x="589" 
d="M49 252q0 118 63 190.5t164 72.5q51 0 95.5 -25t67.5 -70h2q-1 17 -1 38v108h-132v51h132v86h68v-86h79v-51h-79v-566h-66v53l2 37h-2q-21 -44 -66.5 -73t-107.5 -29q-100 0 -159.5 73t-59.5 191zM119 252q0 -92 44.5 -147.5t115.5 -55.5q69 0 115.5 51t46.5 153
q0 82 -41.5 141.5t-117.5 59.5q-69 0 -116 -54.5t-47 -147.5z" />
    <glyph glyph-name="Emacron" unicode="&#x112;" horiz-adv-x="560" 
d="M101 0v703h395v-62h-326v-256h267v-62h-267v-261h345v-62h-414zM187 785v55h246v-55h-246z" />
    <glyph glyph-name="emacron" unicode="&#x113;" horiz-adv-x="553" 
d="M47 251q0 120 71.5 192t177.5 72q100 0 155 -66.5t55 -165.5q0 -12 -2 -34h-386q2 -93 58 -146t137 -53q87 0 153 60l31 -52q-35 -32 -85.5 -51t-100.5 -19q-113 0 -188.5 74t-75.5 189zM121 303h316q-3 75 -43 115.5t-100 40.5q-65 0 -113 -41t-60 -115zM173 618v55h246
v-55h-246z" />
    <glyph glyph-name="Ebreve" unicode="&#x114;" horiz-adv-x="560" 
d="M101 0v703h395v-62h-326v-256h267v-62h-267v-261h345v-62h-414zM310 749q-48 0 -82 28t-34 79v15h55v-14q0 -31 17 -46t44 -15q25 0 42.5 15.5t17.5 46.5v13h55v-15q0 -51 -34 -79t-81 -28z" />
    <glyph glyph-name="ebreve" unicode="&#x115;" horiz-adv-x="553" 
d="M47 251q0 120 71.5 192t177.5 72q100 0 155 -66.5t55 -165.5q0 -12 -2 -34h-386q2 -93 58 -146t137 -53q87 0 153 60l31 -52q-35 -32 -85.5 -51t-100.5 -19q-113 0 -188.5 74t-75.5 189zM121 303h316q-3 75 -43 115.5t-100 40.5q-65 0 -113 -41t-60 -115zM296 582
q-48 0 -82 28t-34 79v15h55v-14q0 -31 17 -46t44 -15q25 0 42.5 15.5t17.5 46.5v13h55v-15q0 -51 -34 -79t-81 -28z" />
    <glyph glyph-name="Edotaccent" unicode="&#x116;" horiz-adv-x="560" 
d="M101 0v703h395v-62h-326v-256h267v-62h-267v-261h345v-62h-414zM277 786v85h65v-85h-65z" />
    <glyph glyph-name="edotaccent" unicode="&#x117;" horiz-adv-x="553" 
d="M47 251q0 120 71.5 192t177.5 72q100 0 155 -66.5t55 -165.5q0 -12 -2 -34h-386q2 -93 58 -146t137 -53q87 0 153 60l31 -52q-35 -32 -85.5 -51t-100.5 -19q-113 0 -188.5 74t-75.5 189zM121 303h316q-3 75 -43 115.5t-100 40.5q-65 0 -113 -41t-60 -115zM263 619v85h65
v-85h-65z" />
    <glyph glyph-name="Eogonek" unicode="&#x118;" horiz-adv-x="560" 
d="M101 0v703h395v-62h-326v-256h267v-62h-267v-261h345v-62q-73 -56 -73 -99q0 -20 15.5 -32.5t30.5 -14.5l16 -3l-16 -56q-4 0 -11.5 1t-26.5 7t-33 15t-26 27t-12 42q0 61 73 113h-351z" />
    <glyph glyph-name="eogonek" unicode="&#x119;" horiz-adv-x="553" 
d="M47 251q0 120 71.5 192t177.5 72q100 0 155 -66.5t55 -165.5l-2 -34h-386q2 -93 58 -146t137 -53q83 0 153 60l31 -51q-11 -11 -53 -40.5t-67 -58t-25 -59.5q0 -20 15.5 -32.5t30.5 -14.5l16 -3l-15 -56q-4 0 -11.5 1t-26.5 7t-33.5 15t-26.5 27t-12 42q0 55 58 105
q-22 -4 -36 -4q-113 0 -188.5 74t-75.5 189zM121 303h316q-3 76 -43 116t-100 40q-65 0 -113 -41.5t-60 -114.5z" />
    <glyph glyph-name="Ecaron" unicode="&#x11a;" horiz-adv-x="560" 
d="M272 752l-83 119h66l54 -80h2l54 80h66l-84 -119h-75zM101 0v703h395v-62h-326v-256h267v-62h-267v-261h345v-62h-414z" />
    <glyph glyph-name="ecaron" unicode="&#x11b;" horiz-adv-x="553" 
d="M258 585l-83 119h66l54 -80h2l54 80h66l-84 -119h-75zM47 251q0 120 71.5 192t177.5 72q100 0 155 -66.5t55 -165.5q0 -12 -2 -34h-386q2 -93 58 -146t137 -53q87 0 153 60l31 -52q-35 -32 -85.5 -51t-100.5 -19q-113 0 -188.5 74t-75.5 189zM121 303h316
q-3 75 -43 115.5t-100 40.5q-65 0 -113 -41t-60 -115z" />
    <glyph glyph-name="Gcircumflex" unicode="&#x11c;" horiz-adv-x="758" 
d="M277 752l83 119h75l84 -119h-66l-54 80h-2l-54 -80h-66zM55 352q0 153 102 258t253 105q149 0 250 -82l-38 -53q-37 31 -95 50.5t-114 19.5q-126 0 -206 -85t-80 -212q0 -130 79.5 -215t200.5 -85q62 0 120.5 27.5t100.5 74.5v119h-120v62h185v-336h-63v53l1 30h-2
q-39 -43 -100 -69t-129 -26q-146 0 -245.5 104t-99.5 260z" />
    <glyph glyph-name="gcircumflex" unicode="&#x11d;" horiz-adv-x="582" 
d="M163 585l83 119h75l84 -119h-66l-54 80h-2l-54 -80h-66zM120 -114q66 -34 137 -34q79 0 127 38.5t48 118.5v50l4 37h-2q-49 -93 -160 -93q-101 0 -162.5 72t-61.5 186t59 184t159 70q54 0 99.5 -22t67.5 -66h2q-2 6 -2 17v59h66v-491q0 -112 -69.5 -167t-172.5 -55
q-87 0 -164 41zM119 262q0 -90 45 -144t120 -54q67 0 108.5 46.5t41.5 150.5q0 193 -159 193q-73 0 -114.5 -51t-41.5 -141z" />
    <glyph glyph-name="Gbreve" unicode="&#x11e;" horiz-adv-x="758" 
d="M55 352q0 153 102 258t253 105q149 0 250 -82l-38 -53q-37 31 -95 50.5t-114 19.5q-126 0 -206 -85t-80 -212q0 -130 79.5 -215t200.5 -85q62 0 120.5 27.5t100.5 74.5v119h-120v62h185v-336h-63v53l1 30h-2q-39 -43 -100 -69t-129 -26q-146 0 -245.5 104t-99.5 260z
M399 749q-48 0 -82 28t-34 79v15h55v-14q0 -31 17 -46t44 -15q25 0 42.5 15.5t17.5 46.5v13h55v-15q0 -51 -34 -79t-81 -28z" />
    <glyph glyph-name="gbreve" unicode="&#x11f;" horiz-adv-x="582" 
d="M120 -114q66 -34 137 -34q79 0 127 38.5t48 118.5v50l4 37h-2q-49 -93 -160 -93q-101 0 -162.5 72t-61.5 186t59 184t159 70q54 0 99.5 -22t67.5 -66h2q-2 6 -2 17v59h66v-491q0 -112 -69.5 -167t-172.5 -55q-87 0 -164 41zM119 262q0 -90 45 -144t120 -54
q67 0 108.5 46.5t41.5 150.5q0 193 -159 193q-73 0 -114.5 -51t-41.5 -141zM284 582q-48 0 -82 28t-34 79v15h55v-14q0 -31 17 -46t44 -15q25 0 42.5 15.5t17.5 46.5v13h55v-15q0 -51 -34 -79t-81 -28z" />
    <glyph glyph-name="Gdotaccent" unicode="&#x120;" horiz-adv-x="758" 
d="M55 352q0 153 102 258t253 105q149 0 250 -82l-38 -53q-37 31 -95 50.5t-114 19.5q-126 0 -206 -85t-80 -212q0 -130 79.5 -215t200.5 -85q62 0 120.5 27.5t100.5 74.5v119h-120v62h185v-336h-63v53l1 30h-2q-39 -43 -100 -69t-129 -26q-146 0 -245.5 104t-99.5 260z
M366 786v85h65v-85h-65z" />
    <glyph glyph-name="gdotaccent" unicode="&#x121;" horiz-adv-x="582" 
d="M120 -114q66 -34 137 -34q79 0 127 38.5t48 118.5v50l4 37h-2q-49 -93 -160 -93q-101 0 -162.5 72t-61.5 186t59 184t159 70q54 0 99.5 -22t67.5 -66h2q-2 6 -2 17v59h66v-491q0 -112 -69.5 -167t-172.5 -55q-87 0 -164 41zM119 262q0 -90 45 -144t120 -54
q67 0 108.5 46.5t41.5 150.5q0 193 -159 193q-73 0 -114.5 -51t-41.5 -141zM251 619v85h65v-85h-65z" />
    <glyph glyph-name="Gcommaaccent" unicode="&#x122;" horiz-adv-x="758" 
d="M366 -63h65q6 -27 6 -49q0 -39 -23 -90h-56q19 47 19 81q0 28 -11 58zM55 352q0 153 102 258t253 105q149 0 250 -82l-38 -53q-37 31 -95 50.5t-114 19.5q-126 0 -206 -85t-80 -212q0 -130 79.5 -215t200.5 -85q62 0 120.5 27.5t100.5 74.5v119h-120v62h185v-336h-63v53
l1 30h-2q-39 -43 -100 -69t-129 -26q-146 0 -245.5 104t-99.5 260z" />
    <glyph glyph-name="gcommaaccent" unicode="&#x123;" horiz-adv-x="582" 
d="M318 565h-65q-6 25 -6 48q0 39 23 90h56q-19 -48 -19 -81q0 -28 11 -57zM120 -114q66 -34 137 -34q79 0 127 38.5t48 118.5v50l4 37h-2q-49 -93 -160 -93q-101 0 -162.5 72t-61.5 186t59 184t159 70q54 0 99.5 -22t67.5 -66h2q-2 6 -2 17v59h66v-491q0 -112 -69.5 -167
t-172.5 -55q-87 0 -164 41zM119 262q0 -90 45 -144t120 -54q67 0 108.5 46.5t41.5 150.5q0 193 -159 193q-73 0 -114.5 -51t-41.5 -141z" />
    <glyph glyph-name="Hcircumflex" unicode="&#x124;" horiz-adv-x="747" 
d="M252 752l83 119h75l84 -119h-66l-54 80h-2l-54 -80h-66zM101 0v703h69v-320h407v320h70v-703h-70v321h-407v-321h-69z" />
    <glyph glyph-name="hcircumflex" unicode="&#x125;" horiz-adv-x="594" 
d="M-4 752l83 119h75l84 -119h-66l-54 80h-2l-54 -80h-66zM81 0v703h68v-276l-3 -41h2q18 46 71.5 87.5t129.5 41.5q91 0 130 -49t39 -146v-320h-68v302q0 71 -22 110t-88 39q-80 0 -135.5 -59t-55.5 -149v-243h-68z" />
    <glyph glyph-name="Hbar" unicode="&#x126;" horiz-adv-x="758" 
d="M107 0v512h-65v53h65v138h70v-138h404v138h70v-138h65v-53h-65v-512h-70v321h-404v-321h-70zM177 383h404v129h-404v-129z" />
    <glyph glyph-name="hbar" unicode="&#x127;" horiz-adv-x="594" 
d="M81 0v566h-76v51h76v86h68v-86h134v-51h-134v-135l-2 -41h2q19 45 71.5 85t128.5 40q91 0 130 -49t39 -146v-320h-68v302q0 71 -22 110t-88 39q-82 0 -136.5 -60t-54.5 -145v-246h-68z" />
    <glyph glyph-name="Itilde" unicode="&#x128;" horiz-adv-x="271" 
d="M101 0v703h69v-703h-69zM-19 755q0 116 92 116q29 0 50.5 -17.5t39.5 -35.5t36 -18q22 0 31 21.5t9 46.5h54q0 -116 -92 -116q-29 0 -50.5 18t-39.5 35.5t-36 17.5q-39 0 -39 -68h-55z" />
    <glyph glyph-name="itilde" unicode="&#x129;" horiz-adv-x="230" 
d="M81 0v503h68v-503h-68zM-39 588q0 116 92 116q29 0 50.5 -18t39.5 -35.5t36 -17.5q22 0 31 21.5t9 46.5h54q0 -116 -92 -116q-29 0 -50.5 17.5t-39.5 35.5t-36 18q-39 0 -39 -68h-55z" />
    <glyph glyph-name="Imacron" unicode="&#x12a;" horiz-adv-x="271" 
d="M101 0v703h69v-703h-69zM14 785v55h246v-55h-246z" />
    <glyph glyph-name="imacron" unicode="&#x12b;" horiz-adv-x="230" 
d="M81 0v503h68v-503h-68zM-7 618v55h246v-55h-246z" />
    <glyph glyph-name="Ibreve" unicode="&#x12c;" horiz-adv-x="271" 
d="M101 0v703h69v-703h-69zM137 749q-48 0 -82 28t-34 79v15h55v-14q0 -31 17 -46t44 -15q25 0 42.5 15.5t17.5 46.5v13h55v-15q0 -51 -34 -79t-81 -28z" />
    <glyph glyph-name="ibreve" unicode="&#x12d;" horiz-adv-x="230" 
d="M81 0v503h68v-503h-68zM117 582q-48 0 -82 28t-34 79v15h55v-14q0 -31 17 -46t44 -15q25 0 42.5 15.5t17.5 46.5v13h55v-15q0 -51 -34 -79t-81 -28z" />
    <glyph glyph-name="Iogonek" unicode="&#x12e;" horiz-adv-x="271" 
d="M101 0v703h69v-703q-73 -56 -73 -99q0 -20 15.5 -32.5t31.5 -14.5l15 -3l-15 -56q-4 0 -11.5 1t-26.5 7t-33.5 15t-26.5 27t-12 42q0 59 70 113h-3z" />
    <glyph glyph-name="iogonek" unicode="&#x12f;" horiz-adv-x="231" 
d="M81 0v503h68v-502l1 -1q-73 -56 -73 -99q0 -20 15.5 -32.5t31.5 -14.5l15 -3l-15 -56q-4 0 -11.5 1t-26.5 7t-33.5 15t-26.5 27.5t-12 42.5q0 59 72 112h-5zM78 618v85h74v-85h-74z" />
    <glyph glyph-name="Idotaccent" unicode="&#x130;" horiz-adv-x="271" 
d="M101 0v703h69v-703h-69zM104 786v85h65v-85h-65z" />
    <glyph glyph-name="dotlessi" unicode="&#x131;" horiz-adv-x="230" 
d="M81 0v503h68v-503h-68z" />
    <glyph glyph-name="IJ" unicode="&#x132;" horiz-adv-x="581" 
d="M271 -5v65q146 0 146 168v475h70v-475q0 -233 -216 -233zM101 0v703h69v-703h-69z" />
    <glyph glyph-name="ij" unicode="&#x133;" horiz-adv-x="461" 
d="M78 618v85h74v-85h-74zM81 0v503h68v-503h-68zM308 618v85h74v-85h-74zM311 -16v519h68v-521q0 -59 -18.5 -99.5t-48.5 -58t-55.5 -24t-52.5 -6.5q-14 0 -29 3v60q8 -2 22 -2q18 0 34.5 4.5t36 16.5t31.5 40t12 68z" />
    <glyph glyph-name="Jcircumflex" unicode="&#x134;" horiz-adv-x="520" 
d="M184 752l83 119h75l84 -119h-66l-54 80h-2l-54 -80h-66zM32 197v28h69v-26q0 -63 32 -104.5t95 -41.5q55 0 92 35t37 109v444h-172v62h241v-506q0 -106 -57.5 -157.5t-139.5 -51.5t-139.5 52t-57.5 157z" />
    <glyph glyph-name="jcircumflex" unicode="&#x135;" horiz-adv-x="230" 
d="M-8 584l84 119h72l84 -119h-65l-54 81h-2l-54 -81h-65zM81 -16v519h68v-521q0 -59 -18.5 -99.5t-48.5 -58t-55.5 -24t-52.5 -6.5q-14 0 -29 3v60q12 -2 22 -2q18 0 34.5 4.5t36 16.5t31.5 40t12 68z" />
    <glyph glyph-name="Kcommaaccent" unicode="&#x136;" horiz-adv-x="591" 
d="M275 -63h65q6 -27 6 -49q0 -39 -23 -90h-56q19 47 19 81q0 28 -11 58zM101 0v703h69v-305h118l190 305h79l-211 -332v-2l225 -369h-81l-202 336h-118v-336h-69z" />
    <glyph glyph-name="kcommaaccent" unicode="&#x137;" horiz-adv-x="496" 
d="M226 -63h65q6 -27 6 -49q0 -39 -23 -90h-56q19 47 19 81q0 28 -11 58zM81 0v703h68v-392h81l150 192h82l-175 -219v-2l193 -282h-82l-167 251h-82v-251h-68z" />
    <glyph glyph-name="kgreenlandic" unicode="&#x138;" horiz-adv-x="494" 
d="M81 0v503h68v-206h79l159 206h83l-183 -233v-2l184 -268h-84l-158 238h-80v-238h-68z" />
    <glyph glyph-name="Lacute" unicode="&#x139;" horiz-adv-x="517" 
d="M104 752l69 119h79l-87 -119h-61zM101 0v703h69v-641h326v-62h-395z" />
    <glyph glyph-name="lacute" unicode="&#x13a;" horiz-adv-x="246" 
d="M85 752l69 119h79l-87 -119h-61zM81 119v584h68v-569q0 -76 57 -76q10 0 16 1v-61q-12 -2 -25 -2q-15 0 -28 2t-30 9.5t-29 20.5t-20.5 36.5t-8.5 54.5z" />
    <glyph glyph-name="Lcommaaccent" unicode="&#x13b;" horiz-adv-x="517" 
d="M271 -63h65q6 -27 6 -49q0 -39 -23 -90h-56q19 47 19 81q0 28 -11 58zM101 0v703h69v-641h326v-62h-395z" />
    <glyph glyph-name="lcommaaccent" unicode="&#x13c;" horiz-adv-x="246" 
d="M116 -63h65q6 -27 6 -49q0 -39 -23 -90h-56q19 47 19 81q0 28 -11 58zM81 119v584h68v-569q0 -76 57 -76q10 0 16 1v-61q-12 -2 -25 -2q-15 0 -28 2t-30 9.5t-29 20.5t-20.5 36.5t-8.5 54.5z" />
    <glyph glyph-name="Lcaron" unicode="&#x13d;" horiz-adv-x="517" 
d="M261 702h65q6 -27 6 -49q0 -39 -23 -90h-56q19 47 19 81q0 28 -11 58zM101 0v703h69v-641h326v-62h-395z" />
    <glyph glyph-name="lcaron" unicode="&#x13e;" horiz-adv-x="250" 
d="M213 702h65q6 -27 6 -49q0 -39 -23 -90h-56q19 47 19 81q0 28 -11 58zM81 119v584h68v-569q0 -76 57 -76q10 0 16 1v-61q-12 -2 -25 -2q-15 0 -28 2t-30 9.5t-29 20.5t-20.5 36.5t-8.5 54.5z" />
    <glyph glyph-name="Ldot" unicode="&#x13f;" horiz-adv-x="517" 
d="M101 0v703h69v-641h326v-62h-395zM294 330v83h80v-83h-80z" />
    <glyph glyph-name="ldot" unicode="&#x140;" horiz-adv-x="285" 
d="M81 119v584h68v-569q0 -76 57 -76q10 0 16 1v-61q-12 -2 -25 -2q-15 0 -28 2t-30 9.5t-29 20.5t-20.5 36.5t-8.5 54.5zM217 330v83h80v-83h-80z" />
    <glyph glyph-name="Lslash" unicode="&#x141;" horiz-adv-x="522" 
d="M106 0v337l-62 -35v70l62 36v295h69v-255l113 65v-71l-113 -65v-315h326v-62h-395z" />
    <glyph glyph-name="lslash" unicode="&#x142;" horiz-adv-x="268" 
d="M16 306v70l81 47v280h68v-241l87 51v-71l-87 -51v-257q0 -76 57 -76l16 1v-61q-12 -2 -25 -2q-116 0 -116 123v233z" />
    <glyph glyph-name="Nacute" unicode="&#x143;" horiz-adv-x="751" 
d="M342 752l69 119h79l-87 -119h-61zM101 0v703h67l359 -506l58 -95h2q-6 58 -6 95v506h69v-703h-67l-359 506l-58 95h-2q6 -58 6 -95v-506h-69z" />
    <glyph glyph-name="nacute" unicode="&#x144;" horiz-adv-x="594" 
d="M276 585l69 119h79l-87 -119h-61zM81 0v503h67v-79l-4 -40h2q19 46 71.5 88.5t131.5 42.5q91 0 130 -49t39 -146v-320h-68v302q0 71 -22 110t-88 39q-81 0 -136 -59t-55 -146v-246h-68z" />
    <glyph glyph-name="Ncommaaccent" unicode="&#x145;" horiz-adv-x="751" 
d="M341 -63h65q6 -27 6 -49q0 -39 -23 -90h-56q19 47 19 81q0 28 -11 58zM101 0v703h67l359 -506l58 -95h2q-6 58 -6 95v506h69v-703h-67l-359 506l-58 95h-2q6 -58 6 -95v-506h-69z" />
    <glyph glyph-name="ncommaaccent" unicode="&#x146;" horiz-adv-x="594" 
d="M265 -63h65q6 -27 6 -49q0 -39 -23 -90h-56q19 47 19 81q0 28 -11 58zM81 0v503h67v-79l-4 -40h2q19 46 71.5 88.5t131.5 42.5q91 0 130 -49t39 -146v-320h-68v302q0 71 -22 110t-88 39q-81 0 -136 -59t-55 -146v-246h-68z" />
    <glyph glyph-name="Ncaron" unicode="&#x147;" horiz-adv-x="751" 
d="M337 752l-83 119h66l54 -80h2l54 80h66l-84 -119h-75zM101 0v703h67l359 -506l58 -95h2q-6 58 -6 95v506h69v-703h-67l-359 506l-58 95h-2q6 -58 6 -95v-506h-69z" />
    <glyph glyph-name="ncaron" unicode="&#x148;" horiz-adv-x="594" 
d="M271 585l-83 119h66l54 -80h2l54 80h66l-84 -119h-75zM81 0v503h67v-79l-4 -40h2q19 46 71.5 88.5t131.5 42.5q91 0 130 -49t39 -146v-320h-68v302q0 71 -22 110t-88 39q-81 0 -136 -59t-55 -146v-246h-68z" />
    <glyph glyph-name="napostrophe" unicode="&#x149;" horiz-adv-x="594" 
d="M19 702h65q6 -27 6 -49q0 -39 -23 -90h-56q19 47 19 81q0 28 -11 58zM81 0v503h67v-79l-4 -40h2q19 46 71.5 88.5t131.5 42.5q91 0 130 -49t39 -146v-320h-68v302q0 71 -22 110t-88 39q-81 0 -136 -59t-55 -146v-246h-68z" />
    <glyph glyph-name="Eng" unicode="&#x14a;" horiz-adv-x="751" 
d="M101 0v703h67l359 -506l58 -95h2q-6 58 -6 95v506h69v-691q0 -114 -61 -165.5t-147 -51.5v65q54 0 95 35t42 110l-355 501l-58 95h-2q6 -58 6 -95v-506h-69z" />
    <glyph glyph-name="eng" unicode="&#x14b;" horiz-adv-x="594" 
d="M81 0v503h67v-80l-2 -35h2q19 46 70.5 86.5t130.5 40.5q91 0 130 -49t39 -146v-343q0 -59 -18.5 -99t-49 -57.5t-56 -24t-52.5 -6.5l-29 3v59q9 -1 22 -1q18 0 35 4.5t36.5 16.5t31.5 40t12 68v322q0 71 -22 110t-88 39q-83 0 -137 -60t-54 -145v-246h-68z" />
    <glyph glyph-name="Omacron" unicode="&#x14c;" horiz-adv-x="825" 
d="M289 785v55h246v-55h-246zM54 357q0 151 102.5 254.5t255.5 103.5q154 0 256 -103t102 -255q0 -156 -102 -262.5t-256 -106.5q-153 0 -255.5 106.5t-102.5 262.5zM126 357q0 -129 81.5 -216.5t204.5 -87.5t204.5 87t81.5 217q0 125 -81.5 209t-204.5 84t-204.5 -84
t-81.5 -209z" />
    <glyph glyph-name="omacron" unicode="&#x14d;" horiz-adv-x="624" 
d="M189 618v55h246v-55h-246zM47 254q0 111 77 186t188 75t188.5 -75t77.5 -186q0 -113 -77.5 -189.5t-188.5 -76.5t-188 76.5t-77 189.5zM117 254q0 -88 56.5 -146t138.5 -58t139 58t57 146q0 85 -57 142.5t-139 57.5t-138.5 -57.5t-56.5 -142.5z" />
    <glyph glyph-name="Obreve" unicode="&#x14e;" horiz-adv-x="825" 
d="M54 357q0 151 102.5 254.5t255.5 103.5q154 0 256 -103t102 -255q0 -156 -102 -262.5t-256 -106.5q-153 0 -255.5 106.5t-102.5 262.5zM126 357q0 -129 81.5 -216.5t204.5 -87.5t204.5 87t81.5 217q0 125 -81.5 209t-204.5 84t-204.5 -84t-81.5 -209zM412 749
q-48 0 -82 28t-34 79v15h55v-14q0 -31 17 -46t44 -15q25 0 42.5 15.5t17.5 46.5v13h55v-15q0 -51 -34 -79t-81 -28z" />
    <glyph glyph-name="obreve" unicode="&#x14f;" horiz-adv-x="624" 
d="M47 254q0 111 77 186t188 75t188.5 -75t77.5 -186q0 -113 -77.5 -189.5t-188.5 -76.5t-188 76.5t-77 189.5zM117 254q0 -88 56.5 -146t138.5 -58t139 58t57 146q0 85 -57 142.5t-139 57.5t-138.5 -57.5t-56.5 -142.5zM312 582q-48 0 -82 28t-34 79v15h55v-14
q0 -31 17 -46t44 -15q25 0 42.5 15.5t17.5 46.5v13h55v-15q0 -51 -34 -79t-81 -28z" />
    <glyph glyph-name="Ohungarumlaut" unicode="&#x150;" horiz-adv-x="825" 
d="M433 752l70 119h77l-87 -119h-60zM299 752l65 119h68l-68 -119h-65zM54 357q0 151 102.5 254.5t255.5 103.5q154 0 256 -103t102 -255q0 -156 -102 -262.5t-256 -106.5q-153 0 -255.5 106.5t-102.5 262.5zM126 357q0 -129 81.5 -216.5t204.5 -87.5t204.5 87t81.5 217
q0 125 -81.5 209t-204.5 84t-204.5 -84t-81.5 -209z" />
    <glyph glyph-name="ohungarumlaut" unicode="&#x151;" horiz-adv-x="624" 
d="M333 585l70 119h77l-87 -119h-60zM199 585l65 119h68l-68 -119h-65zM47 254q0 111 77 186t188 75t188.5 -75t77.5 -186q0 -113 -77.5 -189.5t-188.5 -76.5t-188 76.5t-77 189.5zM117 254q0 -88 56.5 -146t138.5 -58t139 58t57 146q0 85 -57 142.5t-139 57.5t-138.5 -57.5
t-56.5 -142.5z" />
    <glyph glyph-name="OE" unicode="&#x152;" horiz-adv-x="943" 
d="M55 352q0 153 102 256.5t257 103.5q21 0 62.5 -4.5t56.5 -4.5h347v-62h-327v-256h267v-62h-267v-261h345v-62h-365q-14 0 -56 -5t-63 -5q-155 0 -257 104.5t-102 257.5zM127 352q0 -129 80 -214t207 -85q17 0 34.5 2t26.5 4l9 2v581q-32 8 -70 8q-127 0 -207 -85
t-80 -213z" />
    <glyph glyph-name="oe" unicode="&#x153;" horiz-adv-x="1013" 
d="M47 251q0 117 77 190.5t187 73.5q75 0 135 -36t92 -99h2q29 64 86 99.5t129 35.5q100 0 155.5 -66.5t55.5 -165.5l-2 -34h-386q4 -94 59.5 -146.5t135.5 -52.5q85 0 153 60l31 -52q-35 -32 -85.5 -51t-101.5 -19q-78 0 -138 36.5t-91 100.5h-2q-32 -64 -92 -100.5
t-136 -36.5q-110 0 -187 73t-77 190zM581 303h315q-3 75 -43 115t-99 40q-65 0 -113 -41t-60 -114zM117 251q0 -89 56.5 -145t138.5 -56t139 56.5t57 147.5q0 89 -57.5 144.5t-138.5 55.5t-138 -57t-57 -146z" />
    <glyph glyph-name="Racute" unicode="&#x154;" horiz-adv-x="617" 
d="M268 752l69 119h79l-87 -119h-61zM101 0v703h213q84 0 129 -20q104 -50 104 -176q0 -71 -37 -124t-97 -70v-2q8 -9 19 -28l153 -283h-80l-158 296h-177v-296h-69zM170 358h167q63 0 101 40.5t38 106.5q0 42 -19.5 74.5t-54.5 48.5q-29 13 -92 13h-140v-283z" />
    <glyph glyph-name="racute" unicode="&#x155;" horiz-adv-x="357" 
d="M181 584l69 119h79l-87 -119h-61zM81 0v503h67v-93l-4 -40h2q20 60 62.5 99t98.5 39q15 0 27 -3v-67q-6 2 -25 2q-53 0 -91 -37t-53.5 -86.5t-15.5 -103.5v-213h-68z" />
    <glyph glyph-name="Rcommaaccent" unicode="&#x156;" horiz-adv-x="617" 
d="M287 -63h65q6 -27 6 -49q0 -39 -23 -90h-56q19 47 19 81q0 28 -11 58zM101 0v703h213q84 0 129 -20q104 -50 104 -176q0 -71 -37 -124t-97 -70v-2q8 -9 19 -28l153 -283h-80l-158 296h-177v-296h-69zM170 358h167q63 0 101 40.5t38 106.5q0 42 -19.5 74.5t-54.5 48.5
q-29 13 -92 13h-140v-283z" />
    <glyph glyph-name="rcommaaccent" unicode="&#x157;" horiz-adv-x="357" 
d="M84 -63h65q6 -27 6 -49q0 -39 -23 -90h-56q19 47 19 81q0 28 -11 58zM81 0v503h67v-93l-4 -40h2q20 60 62.5 99t98.5 39q15 0 27 -3v-67q-6 2 -25 2q-53 0 -91 -37t-53.5 -86.5t-15.5 -103.5v-213h-68z" />
    <glyph glyph-name="Rcaron" unicode="&#x158;" horiz-adv-x="617" 
d="M263 752l-83 119h66l54 -80h2l54 80h66l-84 -119h-75zM101 0v703h213q84 0 129 -20q104 -50 104 -176q0 -71 -37 -124t-97 -70v-2q8 -9 19 -28l153 -283h-80l-158 296h-177v-296h-69zM170 358h167q63 0 101 40.5t38 106.5q0 42 -19.5 74.5t-54.5 48.5q-29 13 -92 13h-140
v-283z" />
    <glyph glyph-name="rcaron" unicode="&#x159;" horiz-adv-x="357" 
d="M177 584l-83 119h66l54 -80h2l54 80h66l-84 -119h-75zM81 0v503h67v-93l-4 -40h2q20 60 62.5 99t98.5 39q15 0 27 -3v-67q-6 2 -25 2q-53 0 -91 -37t-53.5 -86.5t-15.5 -103.5v-213h-68z" />
    <glyph glyph-name="Sacute" unicode="&#x15a;" horiz-adv-x="534" 
d="M236 752l69 119h79l-87 -119h-61zM47 78l41 53q35 -34 83.5 -55.5t98.5 -21.5q63 0 102.5 33t39.5 87q0 36 -19.5 63.5t-50 46t-68 35t-75 34.5t-68 39.5t-50 56t-19.5 78.5q0 85 63 136.5t158 51.5q113 0 186 -68l-34 -58q-29 27 -71 43.5t-84 16.5q-62 0 -104.5 -32
t-42.5 -86q0 -34 19.5 -60.5t50 -43.5t68 -33t75 -34t68 -40t50 -57.5t19.5 -81.5q0 -84 -58 -138.5t-157 -54.5q-131 0 -221 90z" />
    <glyph glyph-name="sacute" unicode="&#x15b;" horiz-adv-x="438" 
d="M189 585l69 119h79l-87 -119h-61zM37 61l36 48q59 -61 152 -61q44 0 72.5 21.5t28.5 59.5q0 31 -27.5 52.5t-67 36t-79 31.5t-67 48.5t-27.5 77.5q0 66 49 103t122 37q97 0 155 -55l-32 -51q-21 21 -56 33.5t-70 12.5q-43 0 -72 -19.5t-29 -58.5q0 -31 27.5 -53
t67.5 -36.5t79.5 -31.5t67 -48.5t27.5 -77.5q0 -62 -48 -102t-122 -40q-117 0 -187 73z" />
    <glyph glyph-name="Scircumflex" unicode="&#x15c;" horiz-adv-x="534" 
d="M148 752l83 119h75l84 -119h-66l-54 80h-2l-54 -80h-66zM47 78l41 53q35 -34 83.5 -55.5t98.5 -21.5q63 0 102.5 33t39.5 87q0 36 -19.5 63.5t-50 46t-68 35t-75 34.5t-68 39.5t-50 56t-19.5 78.5q0 85 63 136.5t158 51.5q113 0 186 -68l-34 -58q-29 27 -71 43.5
t-84 16.5q-62 0 -104.5 -32t-42.5 -86q0 -34 19.5 -60.5t50 -43.5t68 -33t75 -34t68 -40t50 -57.5t19.5 -81.5q0 -84 -58 -138.5t-157 -54.5q-131 0 -221 90z" />
    <glyph glyph-name="scircumflex" unicode="&#x15d;" horiz-adv-x="438" 
d="M102 585l83 119h75l84 -119h-66l-54 80h-2l-54 -80h-66zM37 61l36 48q59 -61 152 -61q44 0 72.5 21.5t28.5 59.5q0 31 -27.5 52.5t-67 36t-79 31.5t-67 48.5t-27.5 77.5q0 66 49 103t122 37q97 0 155 -55l-32 -51q-21 21 -56 33.5t-70 12.5q-43 0 -72 -19.5t-29 -58.5
q0 -31 27.5 -53t67.5 -36.5t79.5 -31.5t67 -48.5t27.5 -77.5q0 -62 -48 -102t-122 -40q-117 0 -187 73z" />
    <glyph glyph-name="Scedilla" unicode="&#x15e;" horiz-adv-x="535" 
d="M227 -91l18 80q-120 10 -198 89l41 53q35 -34 83.5 -55.5t98.5 -21.5q63 0 102.5 33t39.5 87q0 36 -19.5 63.5t-50 46t-68 35t-75 34.5t-68 39.5t-50 56t-19.5 78.5q0 85 63 136.5t158 51.5q113 0 186 -68l-34 -58q-29 27 -71 43.5t-84 16.5q-62 0 -104.5 -32t-42.5 -86
q0 -34 19.5 -60.5t50 -43.5t68 -33t75 -34t68 -40t50 -57.5t19.5 -81.5q0 -79 -52 -132.5t-141 -59.5l-8 -44q32 -5 51 -23.5t19 -47.5q0 -41 -27.5 -60t-68.5 -19q-30 0 -50 5v48q15 -6 42 -6q51 0 51 34t-57 34z" />
    <glyph glyph-name="scedilla" unicode="&#x15f;" horiz-adv-x="440" 
d="M179 -91l19 80q-103 10 -160 72l36 48q59 -61 152 -61q44 0 72.5 21.5t28.5 59.5q0 31 -27.5 52.5t-67 36t-79 31.5t-67 48.5t-27.5 77.5q0 66 49 103t122 37q97 0 155 -55l-32 -51q-21 21 -56 33.5t-70 12.5q-43 0 -72 -19.5t-29 -58.5q0 -31 27.5 -53t67 -36.5
t79.5 -31.5t67.5 -48.5t27.5 -77.5q0 -58 -42.5 -97t-110.5 -44l-8 -44q32 -5 51 -23.5t19 -47.5q0 -41 -27.5 -60t-68.5 -19q-30 0 -50 5v48q15 -6 42 -6q51 0 51 34t-57 34z" />
    <glyph glyph-name="Scaron" unicode="&#x160;" horiz-adv-x="534" 
d="M231 752l-83 119h66l54 -80h2l54 80h66l-84 -119h-75zM47 78l41 53q35 -34 83.5 -55.5t98.5 -21.5q63 0 102.5 33t39.5 87q0 36 -19.5 63.5t-50 46t-68 35t-75 34.5t-68 39.5t-50 56t-19.5 78.5q0 85 63 136.5t158 51.5q113 0 186 -68l-34 -58q-29 27 -71 43.5t-84 16.5
q-62 0 -104.5 -32t-42.5 -86q0 -34 19.5 -60.5t50 -43.5t68 -33t75 -34t68 -40t50 -57.5t19.5 -81.5q0 -84 -58 -138.5t-157 -54.5q-131 0 -221 90z" />
    <glyph glyph-name="scaron" unicode="&#x161;" horiz-adv-x="438" 
d="M185 585l-83 119h66l54 -80h2l54 80h66l-84 -119h-75zM37 61l36 48q59 -61 152 -61q44 0 72.5 21.5t28.5 59.5q0 31 -27.5 52.5t-67 36t-79 31.5t-67 48.5t-27.5 77.5q0 66 49 103t122 37q97 0 155 -55l-32 -51q-21 21 -56 33.5t-70 12.5q-43 0 -72 -19.5t-29 -58.5
q0 -31 27.5 -53t67.5 -36.5t79.5 -31.5t67 -48.5t27.5 -77.5q0 -62 -48 -102t-122 -40q-117 0 -187 73z" />
    <glyph glyph-name="Tcommaaccent" unicode="&#x162;" horiz-adv-x="607" 
d="M269 0v641h-252v62h574v-62h-253v-641h-14l-10 -55q32 -5 51 -23.5t19 -47.5q0 -41 -27.5 -60t-68.5 -19q-30 0 -50 5v48q15 -6 42 -6q51 0 51 34t-57 34l-15 -1l21 91h-11z" />
    <glyph glyph-name="tcommaaccent" unicode="&#x163;" horiz-adv-x="325" 
d="M153 -91l25 109q-79 45 -79 165v259h-66v57h67v143h67v-143h127v-57h-127v-252q0 -41 12 -69.5t31 -41t36 -17.5t35 -5q14 0 23 2v-61q-12 -2 -29 -2q-32 0 -57 6l-10 -57q32 -5 51 -23.5t19 -47.5q0 -41 -27.5 -60t-68.5 -19q-30 0 -50 5v48q15 -6 42 -6q51 0 51 34
t-57 34z" />
    <glyph glyph-name="Tcaron" unicode="&#x164;" horiz-adv-x="607" 
d="M265 752l-83 119h66l54 -80h2l54 80h66l-84 -119h-75zM269 0v641h-252v62h574v-62h-253v-641h-69z" />
    <glyph glyph-name="tcaron" unicode="&#x165;" horiz-adv-x="325" 
d="M234 702h65q6 -27 6 -49q0 -38 -23 -89h-56q19 48 19 80q0 28 -11 58zM99 183v259h-66v57h67v143h67v-143h127v-57h-127v-252q0 -41 12 -69.5t31 -41t36 -17.5t35 -5q14 0 23 2v-61q-12 -2 -29 -2q-21 0 -41 3t-45.5 14.5t-44.5 30.5t-32 55t-13 84z" />
    <glyph glyph-name="Tbar" unicode="&#x166;" horiz-adv-x="617" 
d="M274 0v324h-161v57h161v260h-252v62h574v-62h-253v-260h166v-57h-166v-324h-69z" />
    <glyph glyph-name="tbar" unicode="&#x167;" horiz-adv-x="330" 
d="M33 278v53h69v111h-66v57h66v143h67v-143h127v-57h-127v-111h125v-53h-125v-90q0 -40 12 -68.5t31 -41t36 -17t35 -4.5l23 2v-61q-12 -2 -29 -2q-21 0 -41 3t-45.5 14.5t-44 30.5t-31.5 55t-13 84v95h-69z" />
    <glyph glyph-name="Utilde" unicode="&#x168;" horiz-adv-x="723" 
d="M93 245v458h69v-457q0 -90 54 -141.5t145 -51.5q92 0 146 52t54 143v455h70v-458q0 -116 -74.5 -186.5t-194.5 -70.5t-194.5 70.5t-74.5 186.5zM205 755q0 116 92 116q29 0 50.5 -17.5t39.5 -35.5t36 -18q22 0 31 21.5t9 46.5h54q0 -116 -92 -116q-29 0 -50.5 18
t-39.5 35.5t-36 17.5q-39 0 -39 -68h-55z" />
    <glyph glyph-name="utilde" unicode="&#x169;" horiz-adv-x="588" 
d="M75 183v320h69v-302q0 -71 21.5 -110t87.5 -39q83 0 134.5 62t51.5 148v241h68v-503h-67v79l4 40h-2q-18 -47 -70.5 -89t-127.5 -42q-88 0 -128.5 48t-40.5 147zM135 588q0 116 92 116q29 0 50.5 -18t39.5 -35.5t36 -17.5q22 0 31 21.5t9 46.5h54q0 -116 -92 -116
q-29 0 -50.5 17.5t-39.5 35.5t-36 18q-39 0 -39 -68h-55z" />
    <glyph glyph-name="Umacron" unicode="&#x16a;" horiz-adv-x="723" 
d="M93 245v458h69v-457q0 -90 54 -141.5t145 -51.5q92 0 146 52t54 143v455h70v-458q0 -116 -74.5 -186.5t-194.5 -70.5t-194.5 70.5t-74.5 186.5zM238 785v55h246v-55h-246z" />
    <glyph glyph-name="umacron" unicode="&#x16b;" horiz-adv-x="588" 
d="M75 183v320h69v-302q0 -71 21.5 -110t87.5 -39q83 0 134.5 62t51.5 148v241h68v-503h-67v79l4 40h-2q-18 -47 -70.5 -89t-127.5 -42q-88 0 -128.5 48t-40.5 147zM168 618v55h246v-55h-246z" />
    <glyph glyph-name="Ubreve" unicode="&#x16c;" horiz-adv-x="723" 
d="M93 245v458h69v-457q0 -90 54 -141.5t145 -51.5q92 0 146 52t54 143v455h70v-458q0 -116 -74.5 -186.5t-194.5 -70.5t-194.5 70.5t-74.5 186.5zM361 749q-48 0 -82 28t-34 79v15h55v-14q0 -31 17 -46t44 -15q25 0 42.5 15.5t17.5 46.5v13h55v-15q0 -51 -34 -79t-81 -28z
" />
    <glyph glyph-name="ubreve" unicode="&#x16d;" horiz-adv-x="588" 
d="M75 183v320h69v-302q0 -71 21.5 -110t87.5 -39q83 0 134.5 62t51.5 148v241h68v-503h-67v79l4 40h-2q-18 -47 -70.5 -89t-127.5 -42q-88 0 -128.5 48t-40.5 147zM291 582q-48 0 -82 28t-34 79v15h55v-14q0 -31 17 -46t44 -15q25 0 42.5 15.5t17.5 46.5v13h55v-15
q0 -51 -34 -79t-81 -28z" />
    <glyph glyph-name="Uring" unicode="&#x16e;" horiz-adv-x="723" 
d="M361 742q-32 0 -54 19.5t-22 50.5t22 51t54 20q31 0 53 -20t22 -51t-22 -50.5t-53 -19.5zM361 779q14 0 23 9.5t9 23.5q0 15 -9 24.5t-23 9.5q-15 0 -24 -9.5t-9 -24.5q0 -14 9 -23.5t24 -9.5zM93 245v458h69v-457q0 -90 54 -141.5t145 -51.5q92 0 146 52t54 143v455h70
v-458q0 -116 -74.5 -186.5t-194.5 -70.5t-194.5 70.5t-74.5 186.5z" />
    <glyph glyph-name="uring" unicode="&#x16f;" horiz-adv-x="588" 
d="M291 575q-32 0 -54 19.5t-22 50.5t22 51t54 20q31 0 53 -20t22 -51t-22 -50.5t-53 -19.5zM291 612q14 0 23 9.5t9 23.5q0 15 -9 24.5t-23 9.5q-15 0 -24 -9.5t-9 -24.5q0 -14 9 -23.5t24 -9.5zM75 183v320h69v-302q0 -71 21.5 -110t87.5 -39q83 0 134.5 62t51.5 148v241
h68v-503h-67v79l4 40h-2q-18 -47 -70.5 -89t-127.5 -42q-88 0 -128.5 48t-40.5 147z" />
    <glyph glyph-name="Uhungarumlaut" unicode="&#x170;" horiz-adv-x="723" 
d="M93 245v458h69v-457q0 -90 54 -141.5t145 -51.5q92 0 146 52t54 143v455h70v-458q0 -116 -74.5 -186.5t-194.5 -70.5t-194.5 70.5t-74.5 186.5zM382 752l70 119h77l-87 -119h-60zM248 752l65 119h68l-68 -119h-65z" />
    <glyph glyph-name="uhungarumlaut" unicode="&#x171;" horiz-adv-x="588" 
d="M75 183v320h69v-302q0 -71 21.5 -110t87.5 -39q83 0 134.5 62t51.5 148v241h68v-503h-67v79l4 40h-2q-18 -47 -70.5 -89t-127.5 -42q-88 0 -128.5 48t-40.5 147zM312 585l70 119h77l-87 -119h-60zM178 585l65 119h68l-68 -119h-65z" />
    <glyph glyph-name="Uogonek" unicode="&#x172;" horiz-adv-x="723" 
d="M93 245v458h69v-457q0 -90 54 -141.5t146 -51.5q91 0 145.5 52t54.5 143v455h69v-458q0 -86 -35.5 -137t-96.5 -91q-37 -25 -53.5 -37t-34 -34.5t-17.5 -44.5q0 -20 15.5 -32.5t30.5 -14.5l16 -3l-16 -56q-4 0 -11.5 1t-26.5 7t-33.5 15t-26.5 27t-12 42q0 54 54 102
q-16 -1 -24 -1q-116 0 -191.5 69.5t-75.5 187.5z" />
    <glyph glyph-name="uogonek" unicode="&#x173;" horiz-adv-x="588" 
d="M75 183v320h69v-302q0 -71 21.5 -110t87.5 -39q83 0 134.5 62t51.5 148v241h68v-503q-73 -56 -73 -99q0 -20 15.5 -32.5t30.5 -14.5l16 -3l-15 -56q-4 0 -11.5 1t-26.5 7t-33.5 15t-26.5 27t-12 42q0 60 72 113h-3v79l4 40h-2q-18 -47 -70.5 -89t-127.5 -42
q-88 0 -128.5 48t-40.5 147z" />
    <glyph glyph-name="Wcircumflex" unicode="&#x174;" horiz-adv-x="927" 
d="M350 752l83 119h75l84 -119h-66l-54 80h-2l-54 -80h-66zM217 0l-182 703h73l136 -546l16 -75h2q7 38 18 75l150 546h66l150 -546l17 -75h2q6 39 15 75l143 546h72l-188 -703h-82l-136 495l-25 105h-3q-12 -60 -25 -105l-136 -495h-83z" />
    <glyph glyph-name="wcircumflex" unicode="&#x175;" horiz-adv-x="825" 
d="M291 585l83 119h75l84 -119h-66l-54 80h-2l-54 -80h-66zM199 0l-170 503h73l121 -374l15 -54h2q8 29 16 54l123 372h68l123 -372l16 -54h2q6 28 15 54l121 374h72l-169 -503h-75l-123 358l-15 55h-2q-8 -30 -16 -55l-122 -358h-75z" />
    <glyph glyph-name="Ycircumflex" unicode="&#x176;" horiz-adv-x="579" 
d="M255 0v302l-238 401h79l149 -255l43 -84h2q22 47 43 84l149 255h79l-237 -401v-302h-69zM168 752l83 119h75l84 -119h-66l-54 80h-2l-54 -80h-66z" />
    <glyph glyph-name="ycircumflex" unicode="&#x177;" horiz-adv-x="526" 
d="M45 -126q28 -23 60 -23q60 0 96 82l30 72l-209 498h75l147 -367l19 -53h2q7 28 17 53l145 367h73l-248 -608q-20 -49 -57.5 -77t-86.5 -28q-23 0 -45.5 7.5t-32.5 14.5l-11 8zM143 584l83 119h75l84 -119h-66l-54 80h-2l-54 -80h-66z" />
    <glyph glyph-name="Ydieresis" unicode="&#x178;" horiz-adv-x="579" 
d="M255 0v302l-238 401h79l149 -255l43 -84h2q22 47 43 84l149 255h79l-237 -401v-302h-69zM329 785v86h62v-86h-62zM178 785v86h61v-86h-61z" />
    <glyph glyph-name="Zacute" unicode="&#x179;" horiz-adv-x="579" 
d="M268 752l69 119h79l-87 -119h-61zM35 0v49l364 528q11 17 23.5 33t19.5 24l6 7v2q-17 -2 -52 -2h-341v62h479v-49l-364 -528q-11 -17 -23.5 -33t-18.5 -23l-7 -8v-2q17 2 52 2h364v-62h-502z" />
    <glyph glyph-name="zacute" unicode="&#x17a;" horiz-adv-x="498" 
d="M214 585l69 119h79l-87 -119h-61zM37 0v44l281 353l40 46v2q-17 -2 -50 -2h-259v60h401v-45l-281 -352l-41 -46v-2q17 2 50 2h282v-60h-423z" />
    <glyph glyph-name="Zdotaccent" unicode="&#x17b;" horiz-adv-x="579" 
d="M35 0v49l364 528q11 17 23.5 33t19.5 24l6 7v2q-17 -2 -52 -2h-341v62h479v-49l-364 -528q-11 -17 -23.5 -33t-18.5 -23l-7 -8v-2q17 2 52 2h364v-62h-502zM268 786v85h65v-85h-65z" />
    <glyph glyph-name="zdotaccent" unicode="&#x17c;" horiz-adv-x="498" 
d="M37 0v44l281 353l40 46v2q-17 -2 -50 -2h-259v60h401v-45l-281 -352l-41 -46v-2q17 2 50 2h282v-60h-423zM216 619v85h65v-85h-65z" />
    <glyph glyph-name="Zcaron" unicode="&#x17d;" horiz-adv-x="579" 
d="M262 752l-83 119h66l54 -80h2l54 80h66l-84 -119h-75zM35 0v49l364 528q11 17 23.5 33t19.5 24l6 7v2q-17 -2 -52 -2h-341v62h479v-49l-364 -528q-11 -17 -23.5 -33t-18.5 -23l-7 -8v-2q17 2 52 2h364v-62h-502z" />
    <glyph glyph-name="zcaron" unicode="&#x17e;" horiz-adv-x="498" 
d="M210 585l-83 119h66l54 -80h2l54 80h66l-84 -119h-75zM37 0v44l281 353l40 46v2q-17 -2 -50 -2h-259v60h401v-45l-281 -352l-41 -46v-2q17 2 50 2h282v-60h-423z" />
    <glyph glyph-name="longs" unicode="&#x17f;" horiz-adv-x="270" 
d="M100 0v442h-63v57h63v23q0 58 18.5 98t48.5 57.5t55.5 24t51.5 6.5l31 -3v-60q-9 2 -24 2q-18 0 -34.5 -4.5t-35.5 -16t-30.5 -39t-11.5 -66.5v-521h-69z" />
    <glyph glyph-name="florin" unicode="&#x192;" horiz-adv-x="568" 
d="M34 -40q33 -5 64 -5q18 0 35 4.5t37 16.5t33.5 39.5t17.5 67.5l24 282h-89v57h94l10 107q5 58 27 98t53.5 57.5t57.5 24t53 6.5q18 0 38.5 -1.5t32.5 -3.5l11 -2v-60q-45 7 -81 7q-18 0 -34.5 -4.5t-36.5 -17t-34 -40t-18 -67.5l-10 -104h125v-57h-130l-25 -285
q-4 -47 -20 -82.5t-36.5 -54.5t-46.5 -31t-46 -15t-40 -3l-66 6v60z" />
    <glyph glyph-name="Scommaaccent" unicode="&#x218;" horiz-adv-x="534" 
d="M232 -63h65q6 -27 6 -49q0 -39 -23 -90h-56q19 47 19 81q0 28 -11 58zM47 78l41 53q35 -34 83.5 -55.5t98.5 -21.5q63 0 102.5 33t39.5 87q0 36 -19.5 63.5t-50 46t-68 35t-75 34.5t-68 39.5t-50 56t-19.5 78.5q0 85 63 136.5t158 51.5q113 0 186 -68l-34 -58
q-29 27 -71 43.5t-84 16.5q-62 0 -104.5 -32t-42.5 -86q0 -34 19.5 -60.5t50 -43.5t68 -33t75 -34t68 -40t50 -57.5t19.5 -81.5q0 -84 -58 -138.5t-157 -54.5q-131 0 -221 90z" />
    <glyph glyph-name="scommaaccent" unicode="&#x219;" horiz-adv-x="438" 
d="M187 -63h65q6 -27 6 -49q0 -39 -23 -90h-56q19 47 19 81q0 28 -11 58zM37 61l36 48q59 -61 152 -61q44 0 72.5 21.5t28.5 59.5q0 31 -27.5 52.5t-67 36t-79 31.5t-67 48.5t-27.5 77.5q0 66 49 103t122 37q97 0 155 -55l-32 -51q-21 21 -56 33.5t-70 12.5q-43 0 -72 -19.5
t-29 -58.5q0 -31 27.5 -53t67.5 -36.5t79.5 -31.5t67 -48.5t27.5 -77.5q0 -62 -48 -102t-122 -40q-117 0 -187 73z" />
    <glyph glyph-name="uni021A" unicode="&#x21a;" horiz-adv-x="607" 
d="M269 -63h65q6 -27 6 -49q0 -39 -23 -90h-56q19 47 19 81q0 28 -11 58zM269 0v641h-252v62h574v-62h-253v-641h-69z" />
    <glyph glyph-name="uni021B" unicode="&#x21b;" horiz-adv-x="325" 
d="M169 -63h65q6 -27 6 -49q0 -39 -23 -90h-56q19 47 19 81q0 28 -11 58zM99 183v259h-66v57h67v143h67v-143h127v-57h-127v-252q0 -41 12 -69.5t31 -41t36 -17.5t35 -5q14 0 23 2v-61q-12 -2 -29 -2q-21 0 -41 3t-45.5 14.5t-44.5 30.5t-32 55t-13 84z" />
    <glyph glyph-name="circumflex" unicode="&#x2c6;" horiz-adv-x="504" 
d="M131 752l83 119h75l84 -119h-66l-54 80h-2l-54 -80h-66z" />
    <glyph glyph-name="caron" unicode="&#x2c7;" horiz-adv-x="504" 
d="M214 752l-83 119h66l54 -80h2l54 80h66l-84 -119h-75z" />
    <glyph glyph-name="breve" unicode="&#x2d8;" horiz-adv-x="505" 
d="M253 749q-48 0 -82 28t-34 79v15h55v-14q0 -31 17 -46t44 -15q25 0 42.5 15.5t17.5 46.5v13h55v-15q0 -51 -34 -79t-81 -28z" />
    <glyph glyph-name="dotaccent" unicode="&#x2d9;" horiz-adv-x="505" 
d="M220 786v85h65v-85h-65z" />
    <glyph glyph-name="ring" unicode="&#x2da;" horiz-adv-x="505" 
d="M253 742q-32 0 -54 19.5t-22 50.5t22 51t54 20q31 0 53 -20t22 -51t-22 -50.5t-53 -19.5zM253 779q14 0 23 9.5t9 23.5q0 15 -9 24.5t-23 9.5q-15 0 -24 -9.5t-9 -24.5q0 -14 9 -23.5t24 -9.5z" />
    <glyph glyph-name="ogonek" unicode="&#x2db;" horiz-adv-x="504" 
d="M179 -113q0 22 10 44.5t24.5 38t29 28t24.5 18.5l10 6l49 -13q-9 -6 -23 -17t-37.5 -39.5t-23.5 -51.5q0 -20 15.5 -32.5t30.5 -14.5l16 -3l-15 -56q-4 0 -11.5 1t-26.5 7t-33.5 15t-26.5 27t-12 42z" />
    <glyph glyph-name="tilde" unicode="&#x2dc;" horiz-adv-x="504" 
d="M96 755q0 116 92 116q29 0 50.5 -17.5t39.5 -35.5t36 -18q22 0 31 21.5t9 46.5h54q0 -116 -92 -116q-29 0 -50.5 18t-39.5 35.5t-36 17.5q-39 0 -39 -68h-55z" />
    <glyph glyph-name="hungarumlaut" unicode="&#x2dd;" horiz-adv-x="504" 
d="M246 752l70 119h77l-87 -119h-60zM112 752l65 119h68l-68 -119h-65z" />
    <glyph glyph-name="uni0400" unicode="&#x400;" horiz-adv-x="560" 
d="M101 0v703h395v-62h-326v-256h267v-62h-267v-261h345v-62h-414zM294 752l-86 119h79l69 -119h-62z" />
    <glyph glyph-name="uni0401" unicode="&#x401;" horiz-adv-x="560" 
d="M350 785v86h62v-86h-62zM199 785v86h61v-86h-61zM101 0v703h395v-62h-326v-256h267v-62h-267v-261h345v-62h-414z" />
    <glyph glyph-name="uni0402" unicode="&#x402;" horiz-adv-x="727" 
d="M216 0v641h-200v62h508v-62h-239v-230l-1 -30h2q92 44 183 44q105 0 162.5 -58.5t57.5 -152.5q0 -111 -63 -168.5t-157 -57.5q-17 0 -47 2v60q18 -2 40 -2q65 0 111.5 38.5t46.5 124.5q0 69 -40 109.5t-120 40.5q-44 0 -87.5 -11.5t-65.5 -23.5l-22 -11v-315h-69z" />
    <glyph glyph-name="uni0403" unicode="&#x403;" horiz-adv-x="485" 
d="M241 752l69 119h79l-87 -119h-61zM101 0v703h369v-62h-300v-641h-69z" />
    <glyph glyph-name="uni0404" unicode="&#x404;" horiz-adv-x="717" 
d="M55 356q0 153 100 256t253 103q47 0 90.5 -9.5t72 -22.5t50 -26.5t31.5 -22.5l10 -10l-37 -51q-3 3 -9.5 8.5t-28 19t-45 23.5t-59.5 18.5t-73 8.5q-116 0 -194.5 -76.5t-86.5 -192.5h396v-60h-396q10 -117 88.5 -193.5t195.5 -76.5q40 0 78 9.5t64 23t46.5 27.5t30.5 24
l10 9l38 -49l-11.5 -11.5t-33 -26t-54.5 -33t-75 -26t-95 -11.5q-154 0 -255 106t-101 262z" />
    <glyph glyph-name="uni0405" unicode="&#x405;" horiz-adv-x="534" 
d="M47 78l41 53q35 -34 83.5 -55.5t98.5 -21.5q63 0 102.5 33t39.5 87q0 36 -19.5 63.5t-50 46t-68 35t-75 34.5t-68 39.5t-50 56t-19.5 78.5q0 85 63 136.5t158 51.5q113 0 186 -68l-34 -58q-29 27 -71 43.5t-84 16.5q-62 0 -104.5 -32t-42.5 -86q0 -34 19.5 -60.5
t50 -43.5t68 -33t75 -34t68 -40t50 -57.5t19.5 -81.5q0 -84 -58 -138.5t-157 -54.5q-131 0 -221 90z" />
    <glyph glyph-name="uni0406" unicode="&#x406;" horiz-adv-x="271" 
d="M101 0v703h69v-703h-69z" />
    <glyph glyph-name="uni0407" unicode="&#x407;" horiz-adv-x="271" 
d="M101 0v703h69v-703h-69zM182 785v86h62v-86h-62zM31 785v86h61v-86h-61z" />
    <glyph glyph-name="uni0408" unicode="&#x408;" horiz-adv-x="520" 
d="M32 197v28h69v-26q0 -63 32 -104.5t95 -41.5q55 0 92 35t37 109v444h-172v62h241v-506q0 -106 -57.5 -157.5t-139.5 -51.5t-139.5 52t-57.5 157z" />
    <glyph glyph-name="uni0409" unicode="&#x409;" horiz-adv-x="937" 
d="M21 -7v65q94 11 130 133.5t36 360.5v151h358v-300h142q97 0 157 -54t60 -148q0 -91 -60.5 -146t-151.5 -55h-216v641h-220v-89q0 -86 -3.5 -151.5t-12.5 -131t-26 -111.5t-42.5 -83.5t-63 -57.5t-87.5 -24zM545 62h138q66 0 107.5 36.5t41.5 102.5q0 65 -41.5 102.5
t-108.5 37.5h-137v-279z" />
    <glyph glyph-name="uni040A" unicode="&#x40a;" horiz-adv-x="998" 
d="M101 0v703h69v-302h363v302h69v-301h151q93 0 152 -54t59 -147q0 -91 -60.5 -146t-150.5 -55h-220v339h-363v-339h-69zM602 62h141q66 0 107.5 36.5t41.5 102.5q0 65 -41.5 102t-108.5 37h-140v-278z" />
    <glyph glyph-name="uni040B" unicode="&#x40b;" horiz-adv-x="723" 
d="M216 0v641h-200v62h507v-62h-238v-233l-2 -33h2q92 50 193 50q193 0 193 -201v-224h-70v213q0 74 -32 111t-103 37q-53 0 -103 -17t-78 -37v-307h-69z" />
    <glyph glyph-name="uni040C" unicode="&#x40c;" horiz-adv-x="592" 
d="M273 752l69 119h79l-87 -119h-61zM101 0v703h69v-305h118l190 305h79l-211 -332v-2l225 -369h-81l-202 336h-118v-336h-69z" />
    <glyph glyph-name="uni040D" unicode="&#x40d;" horiz-adv-x="751" 
d="M101 0v703h69v-506l-6 -95h2q37 62 61 97l356 504h67v-703h-69v506l6 95h-2q-35 -60 -59 -95l-358 -506h-67zM352 752l-86 119h79l69 -119h-62z" />
    <glyph glyph-name="uni040E" unicode="&#x40e;" horiz-adv-x="587" 
d="M83 31l33 53q48 -34 82 -34q32 0 50.5 23t37.5 72l-279 558h77l193 -392l40 -92h2q16 49 31 91l146 393h74l-230 -592q-48 -123 -141 -123q-55 0 -116 43zM292 736q-54 0 -93 32t-39 86v17h59v-15q0 -32 21.5 -50.5t51.5 -18.5t52 18.5t22 51.5v14h58v-17q0 -54 -39 -86
t-93 -32z" />
    <glyph glyph-name="uni040F" unicode="&#x40f;" horiz-adv-x="723" 
d="M101 0v703h69v-641h383v641h70v-703h-229v-140h-65v140h-228z" />
    <glyph glyph-name="uni0410" unicode="&#x410;" horiz-adv-x="632" 
d="M21 0l258 703h74l258 -703h-73l-81 224h-283l-80 -224h-73zM195 284h241l-92 255l-27 92h-2q-15 -59 -27 -92z" />
    <glyph glyph-name="uni0411" unicode="&#x411;" horiz-adv-x="594" 
d="M101 0v703h398v-62h-329v-230h168q92 0 150 -54t58 -153q0 -92 -56.5 -148t-145.5 -56h-243zM170 62h164q66 0 103.5 38t37.5 104q0 67 -39 106t-103 39h-163v-287z" />
    <glyph glyph-name="uni0412" unicode="&#x412;" horiz-adv-x="616" 
d="M101 0v703h240q84 0 137 -48t53 -129q0 -108 -89 -153v-2q54 -15 86 -63t32 -111q0 -91 -60 -144t-151 -53h-248zM170 398h171q53 0 86 34t33 89q0 54 -32.5 87t-88.5 33h-169v-243zM170 62h180q64 0 101 37t37 100t-38.5 101t-100.5 38h-179v-276z" />
    <glyph glyph-name="uni0413" unicode="&#x413;" horiz-adv-x="485" 
d="M101 0v703h369v-62h-300v-641h-69z" />
    <glyph glyph-name="uni0414" unicode="&#x414;" horiz-adv-x="700" 
d="M150 62h360v579h-250v-77q0 -344 -110 -502zM5 62h71q71 95 94 221t23 283v137h386v-641h79v-202h-65v140h-522v-140h-66v202z" />
    <glyph glyph-name="uni0415" unicode="&#x415;" horiz-adv-x="560" 
d="M101 0v703h395v-62h-326v-256h267v-62h-267v-261h345v-62h-414z" />
    <glyph glyph-name="uni0416" unicode="&#x416;" horiz-adv-x="854" 
d="M22 0l210 369v2l-196 332h78l177 -305h101v305h69v-305h102l177 305h77l-196 -332v-2l211 -369h-79l-190 336h-102v-336h-69v336h-101l-190 -336h-79z" />
    <glyph glyph-name="uni0417" unicode="&#x417;" horiz-adv-x="538" 
d="M32 79l41 50q30 -34 76 -55.5t95 -21.5q73 0 120 40t47 107q0 63 -42.5 99t-106.5 36h-89v60h71q60 0 102 36.5t42 93.5q0 55 -35 91.5t-106 36.5q-90 0 -162 -60l-32 54q84 69 201 69q95 0 150 -50t55 -134q0 -110 -105 -159v-2q59 -16 94 -61.5t35 -111.5
q0 -94 -67 -151.5t-169 -57.5q-61 0 -119.5 24t-95.5 67z" />
    <glyph glyph-name="uni0418" unicode="&#x418;" horiz-adv-x="751" 
d="M101 0v703h69v-506l-6 -95h2q37 62 61 97l356 504h67v-703h-69v506l6 95h-2q-35 -60 -59 -95l-358 -506h-67z" />
    <glyph glyph-name="uni0419" unicode="&#x419;" horiz-adv-x="751" 
d="M378 736q-54 0 -93 32t-39 86v17h59v-15q0 -32 21.5 -50.5t51.5 -18.5t52 18.5t22 51.5v14h58v-17q0 -54 -39 -86t-93 -32zM101 0v703h69v-506l-6 -95h2q37 62 61 97l356 504h67v-703h-69v506l6 95h-2q-35 -60 -59 -95l-358 -506h-67z" />
    <glyph glyph-name="uni041A" unicode="&#x41a;" horiz-adv-x="592" 
d="M101 0v703h69v-305h118l190 305h79l-211 -332v-2l225 -369h-81l-202 336h-118v-336h-69z" />
    <glyph glyph-name="uni041B" unicode="&#x41b;" horiz-adv-x="664" 
d="M11 57q94 13 130.5 138t36.5 366v142h386v-703h-70v641h-249v-81q0 -134 -10 -228.5t-35 -173t-72 -120t-117 -46.5v65z" />
    <glyph glyph-name="uni041C" unicode="&#x41c;" horiz-adv-x="842" 
d="M74 0l56 703h71l185 -413l34 -86h2q18 50 34 86l185 413h71l56 -703h-69l-39 492l-2 98h-2q-21 -62 -37 -98l-166 -361h-64l-165 361l-38 100h-2q1 -62 -2 -100l-39 -492h-69z" />
    <glyph glyph-name="uni041D" unicode="&#x41d;" horiz-adv-x="747" 
d="M101 0v703h69v-320h407v320h70v-703h-70v321h-407v-321h-69z" />
    <glyph glyph-name="uni041E" unicode="&#x41e;" horiz-adv-x="825" 
d="M54 357q0 150 104 254t254 104t254 -103.5t104 -254.5q0 -155 -104 -262t-254 -107t-254 107t-104 262zM126 357q0 -128 83.5 -216t202.5 -88q120 0 203 88t83 216q0 124 -83 208.5t-203 84.5q-119 0 -202.5 -84.5t-83.5 -208.5z" />
    <glyph glyph-name="uni041F" unicode="&#x41f;" horiz-adv-x="738" 
d="M101 0v703h536v-703h-69v641h-398v-641h-69z" />
    <glyph glyph-name="uni0420" unicode="&#x420;" horiz-adv-x="596" 
d="M101 0v703h243q95 0 156 -58t61 -154q0 -97 -61 -156t-156 -59h-174v-276h-69zM170 338h165q71 0 113 41t42 112q0 70 -41.5 110t-112.5 40h-166v-303z" />
    <glyph glyph-name="uni0421" unicode="&#x421;" horiz-adv-x="718" 
d="M55 356q0 154 99.5 256.5t253.5 102.5q159 0 254 -91l-37 -51q-41 36 -99 56.5t-116 20.5q-126 0 -204.5 -83.5t-78.5 -209.5q0 -128 79 -216t207 -88q132 0 227 93l40 -49q-111 -109 -269 -109t-257 105.5t-99 262.5z" />
    <glyph glyph-name="uni0422" unicode="&#x422;" horiz-adv-x="608" 
d="M269 0v641h-252v62h574v-62h-253v-641h-69z" />
    <glyph glyph-name="uni0423" unicode="&#x423;" horiz-adv-x="587" 
d="M83 31l33 53q48 -34 82 -34q32 0 50.5 23t37.5 72l-279 558h77l193 -392l40 -92h2q16 49 31 91l146 393h74l-230 -592q-48 -123 -141 -123q-55 0 -116 43z" />
    <glyph glyph-name="uni0424" unicode="&#x424;" horiz-adv-x="820" 
d="M44 373q0 134 91 213.5t240 79.5v84h70v-84q148 0 239.5 -79.5t91.5 -213.5q0 -135 -91 -214.5t-240 -79.5v-91h-70v91q-149 0 -240 79.5t-91 214.5zM445 138q120 0 190 62t70 173q0 110 -70 171.5t-190 61.5v-468zM116 373q0 -111 70 -173t189 -62v468
q-119 0 -189 -61.5t-70 -171.5z" />
    <glyph glyph-name="uni0425" unicode="&#x425;" horiz-adv-x="576" 
d="M19 0l224 367l-205 336h81l123 -208l45 -79h2q22 43 44 79l124 208h81l-206 -336l225 -367h-79l-147 243l-44 77h-2q-21 -41 -43 -78l-144 -242h-79z" />
    <glyph glyph-name="uni0426" unicode="&#x426;" horiz-adv-x="744" 
d="M101 0v703h69v-641h383v641h70v-641h79v-202h-64v140h-537z" />
    <glyph glyph-name="uni0427" unicode="&#x427;" horiz-adv-x="618" 
d="M265 277q-209 0 -209 199v227h70v-213q0 -75 35.5 -112t113.5 -37q91 0 173 54v308h70v-703h-70v296l2 33h-2q-94 -52 -183 -52z" />
    <glyph glyph-name="uni0428" unicode="&#x428;" horiz-adv-x="993" 
d="M101 0v703h69v-641h292v641h69v-641h292v641h70v-703h-792z" />
    <glyph glyph-name="uni0429" unicode="&#x429;" horiz-adv-x="1019" 
d="M101 0v703h69v-641h292v641h69v-641h292v641h70v-641h86v-202h-65v140h-813z" />
    <glyph glyph-name="uni042A" unicode="&#x42a;" horiz-adv-x="669" 
d="M195 0v641h-185v62h254v-284h160q92 0 150.5 -55t58.5 -156q0 -94 -57 -151t-146 -57h-235zM264 62h156q66 0 103.5 38.5t37.5 107.5t-39 109t-103 40h-155v-295z" />
    <glyph glyph-name="uni042B" unicode="&#x42b;" horiz-adv-x="813" 
d="M643 0v703h69v-703h-69zM101 0v703h69v-284h158q92 0 150 -55t58 -156q0 -94 -56.5 -151t-145.5 -57h-233zM170 62h154q66 0 103.5 38.5t37.5 107.5t-39 109t-103 40h-153v-295z" />
    <glyph glyph-name="uni042C" unicode="&#x42c;" horiz-adv-x="575" 
d="M101 0v703h69v-284h160q92 0 150.5 -55t58.5 -156q0 -94 -57 -151t-146 -57h-235zM170 62h156q66 0 103.5 38.5t37.5 107.5t-39 109t-103 40h-155v-295z" />
    <glyph glyph-name="uni042D" unicode="&#x42d;" horiz-adv-x="717" 
d="M38 95l38 49q38 -41 101 -66.5t129 -25.5q115 0 193.5 77t88.5 193h-396v60h397q-8 117 -87 193t-195 76q-122 0 -216 -80l-37 52q46 44 114 68t140 24q154 0 254 -103t100 -256q0 -155 -101.5 -261.5t-254.5 -106.5q-76 0 -147 28t-121 79z" />
    <glyph glyph-name="uni042E" unicode="&#x42e;" horiz-adv-x="1050" 
d="M101 0v703h69v-320h129q9 141 108.5 236.5t238.5 95.5q146 0 247.5 -104t101.5 -254q0 -155 -101.5 -262t-247.5 -107q-136 0 -235 95t-110 238h-131v-321h-69zM370 357q0 -128 80.5 -216t195.5 -88t196 88t81 216q0 123 -81 207.5t-196 84.5t-195.5 -84.5t-80.5 -207.5z
" />
    <glyph glyph-name="uni042F" unicode="&#x42f;" horiz-adv-x="611" 
d="M28 0l167 276l19 29v2q-70 21 -106 72.5t-36 126.5q0 63 28.5 108.5t75.5 68.5q45 20 129 20h206v-703h-70v296h-156l-177 -296h-80zM282 357h159v284h-132q-67 0 -95 -15q-33 -16 -51.5 -48t-18.5 -73q0 -67 37.5 -107.5t100.5 -40.5z" />
    <glyph glyph-name="uni0430" unicode="&#x430;" horiz-adv-x="517" 
d="M37 135q0 175 306 175h30v14q0 130 -124 130q-77 0 -143 -48l-31 52q30 26 79 41.5t99 15.5q91 0 139.5 -49.5t48.5 -143.5v-322h-65v59l3 42h-2q-21 -48 -66.5 -80.5t-103.5 -32.5q-69 0 -119.5 39t-50.5 108zM106 141q0 -38 30 -67t83 -29q69 0 111.5 58t42.5 130v23
h-29q-32 0 -55.5 -1t-61 -7.5t-61.5 -17.5t-42 -34t-18 -55z" />
    <glyph glyph-name="uni0431" unicode="&#x431;" horiz-adv-x="576" 
d="M59 285q0 136 44 219t163 137l186 87l25 -57l-194 -89q-83 -39 -119.5 -94t-41.5 -138h2q59 106 188 106q94 0 153.5 -62.5t59.5 -169.5q0 -104 -64 -170t-165 -66q-119 0 -178 81t-59 216zM133 225q0 -81 46 -129t115 -48t115 47.5t46 127.5q0 81 -45.5 128.5
t-111.5 47.5q-73 0 -119 -50t-46 -124z" />
    <glyph glyph-name="uni0432" unicode="&#x432;" horiz-adv-x="503" 
d="M81 0v503h182q78 0 122 -33.5t44 -94.5q0 -83 -76 -111v-2q48 -10 75 -43t27 -78q0 -65 -48.5 -103t-133.5 -38h-192zM149 285h107q50 0 76.5 22.5t26.5 63.5q0 80 -107 80h-103v-166zM149 53h115q61 0 91 23.5t30 65.5q0 44 -31.5 67.5t-90.5 23.5h-114v-180z" />
    <glyph glyph-name="uni0433" unicode="&#x433;" horiz-adv-x="404" 
d="M81 0v503h300v-59h-232v-444h-68z" />
    <glyph glyph-name="uni0434" unicode="&#x434;" horiz-adv-x="572" 
d="M146 58h258v387h-176v-30q0 -233 -82 -357zM11 58h62q88 115 88 363v82h311v-445h71v-178h-65v120h-402v-120h-65v178z" />
    <glyph glyph-name="uni0435" unicode="&#x435;" horiz-adv-x="553" 
d="M47 251q0 120 71.5 192t177.5 72q100 0 155 -66.5t55 -165.5q0 -12 -2 -34h-386q2 -93 58 -146t137 -53q87 0 153 60l31 -52q-35 -32 -85.5 -51t-100.5 -19q-113 0 -188.5 74t-75.5 189zM121 303h316q-3 75 -43 115.5t-100 40.5q-65 0 -113 -41t-60 -115z" />
    <glyph glyph-name="uni0436" unicode="&#x436;" horiz-adv-x="721" 
d="M20 0l170 257v2l-154 244h74l136 -216h81v216h66v-216h81l136 216h75l-154 -244v-2l170 -257h-80l-147 227h-81v-227h-66v227h-80l-148 -227h-79z" />
    <glyph glyph-name="uni0437" unicode="&#x437;" horiz-adv-x="439" 
d="M30 61l36 47q59 -62 135 -62q50 0 85.5 25.5t35.5 72.5q0 89 -122 89h-61v54h53q53 0 82.5 21.5t29.5 63.5t-28 63.5t-76 21.5q-66 0 -123 -45l-30 48q66 55 163 55q73 0 118.5 -35t45.5 -100q0 -85 -77 -115v-2q43 -11 69 -42t26 -79q0 -73 -54.5 -113.5t-132.5 -40.5
q-100 0 -175 73z" />
    <glyph glyph-name="uni0438" unicode="&#x438;" horiz-adv-x="591" 
d="M81 0v503h66v-330q0 -69 -3 -75h2q4 7 52 75l247 330h65v-503h-67v331q0 13 0.5 30t1.5 29.5t1 13.5h-2q0 -2 -8.5 -14t-22 -30t-20.5 -29l-247 -331h-65z" />
    <glyph glyph-name="uni0439" unicode="&#x439;" horiz-adv-x="591" 
d="M295 569q-54 0 -93 32t-39 86v17h59v-15q0 -32 21.5 -50.5t51.5 -18.5t52 18.5t22 51.5v14h58v-17q0 -54 -39 -86t-93 -32zM81 0v503h66v-330q0 -69 -3 -75h2q4 7 52 75l247 330h65v-503h-67v331q0 13 0.5 30t1.5 29.5t1 13.5h-2q0 -2 -8.5 -14t-22 -30t-20.5 -29
l-247 -331h-65z" />
    <glyph glyph-name="uni043A" unicode="&#x43a;" horiz-adv-x="495" 
d="M81 0v503h68v-213h80l151 213h80l-175 -239v-2l195 -262h-83l-167 230h-81v-230h-68z" />
    <glyph glyph-name="uni043B" unicode="&#x43b;" horiz-adv-x="530" 
d="M20 -4v61q62 10 91 81.5t29 212.5v152h308v-503h-68v444h-174v-93q0 -178 -44.5 -262.5t-141.5 -92.5z" />
    <glyph glyph-name="uni043C" unicode="&#x43c;" horiz-adv-x="717" 
d="M62 0l41 503h72l151 -310l31 -71h2q16 39 31 71l152 310h71l42 -503h-67l-25 325v87h-2q-11 -32 -32 -73l-140 -281h-62l-139 279l-33 75h-2q2 -60 0 -87l-25 -325h-66z" />
    <glyph glyph-name="uni043D" unicode="&#x43d;" horiz-adv-x="592" 
d="M81 0v503h68v-215h294v215h68v-503h-68v228h-294v-228h-68z" />
    <glyph glyph-name="uni043E" unicode="&#x43e;" horiz-adv-x="624" 
d="M47 254q0 111 77 186t188 75t188.5 -75t77.5 -186q0 -113 -77.5 -189.5t-188.5 -76.5t-188 76.5t-77 189.5zM117 254q0 -88 56.5 -146t138.5 -58t139 58t57 146q0 85 -57 142.5t-139 57.5t-138.5 -57.5t-56.5 -142.5z" />
    <glyph glyph-name="uni043F" unicode="&#x43f;" horiz-adv-x="583" 
d="M81 0v503h421v-503h-68v443h-285v-443h-68z" />
    <glyph glyph-name="uni0440" unicode="&#x440;" horiz-adv-x="589" 
d="M81 -200v703h65v-53l-3 -39h2q23 49 69.5 76.5t105.5 27.5q101 0 160 -72.5t59 -190.5q0 -119 -63 -191.5t-162 -72.5q-53 0 -97 26.5t-69 73.5h-2q3 -18 3 -44v-244h-68zM147 250q0 -81 43.5 -141t116.5 -60q69 0 116 54.5t47 147.5q0 91 -44.5 146.5t-115.5 55.5
q-69 0 -116 -51t-47 -152z" />
    <glyph glyph-name="uni0441" unicode="&#x441;" horiz-adv-x="542" 
d="M47 251q0 115 76 189.5t188 74.5q52 0 102 -18.5t82 -53.5l-35 -51q-27 28 -66.5 45t-80.5 17q-84 0 -140 -57t-56 -146q0 -88 56.5 -144.5t141.5 -56.5q44 0 88 18.5t73 50.5l31 -51q-33 -37 -85.5 -58.5t-110.5 -21.5q-113 0 -188.5 73.5t-75.5 189.5z" />
    <glyph glyph-name="uni0442" unicode="&#x442;" horiz-adv-x="481" 
d="M206 0v443h-183v60h435v-60h-184v-443h-68z" />
    <glyph glyph-name="uni0443" unicode="&#x443;" horiz-adv-x="526" 
d="M45 -126q28 -23 60 -23q60 0 96 82l30 72l-209 498h75l147 -367l19 -53h2q7 28 17 53l145 367h73l-248 -608q-20 -49 -57.5 -77t-86.5 -28q-23 0 -45.5 7.5t-32.5 14.5l-11 8z" />
    <glyph glyph-name="uni0444" unicode="&#x444;" horiz-adv-x="704" 
d="M48 254q0 113 75.5 184t195.5 76v186h66v-186q120 -5 195.5 -76t75.5 -184q0 -115 -75.5 -187.5t-195.5 -77.5v-189h-66v189q-120 5 -195.5 77.5t-75.5 187.5zM385 48q91 5 146.5 60.5t55.5 145.5q0 89 -55.5 142t-146.5 58v-406zM117 254q0 -90 55.5 -145.5t146.5 -60.5
v406q-91 -5 -146.5 -58t-55.5 -142z" />
    <glyph glyph-name="uni0445" unicode="&#x445;" horiz-adv-x="479" 
d="M20 0l176 262l-162 241h80l108 -169l17 -29h2q9 16 17 29l108 169h79l-162 -241l177 -262h-80l-122 189l-17 28h-2q-8 -14 -17 -28l-123 -189h-79z" />
    <glyph glyph-name="uni0446" unicode="&#x446;" horiz-adv-x="596" 
d="M81 0v503h68v-443h278v443h69v-443h70v-180h-64v120h-421z" />
    <glyph glyph-name="uni0447" unicode="&#x447;" horiz-adv-x="502" 
d="M216 184q-85 0 -127 41.5t-42 117.5v160h67v-153q0 -48 23.5 -76.5t90.5 -28.5q72 0 125 41v217h68v-503h-68v191l2 32h-2q-63 -39 -137 -39z" />
    <glyph glyph-name="uni0448" unicode="&#x448;" horiz-adv-x="791" 
d="M81 0v503h66v-443h216v443h66v-443h215v443h66v-503h-629z" />
    <glyph glyph-name="uni0449" unicode="&#x449;" horiz-adv-x="811" 
d="M81 0v503h66v-443h216v443h66v-443h215v443h66v-443h71v-180h-64v120h-636z" />
    <glyph glyph-name="uni044A" unicode="&#x44a;" horiz-adv-x="537" 
d="M151 0v444h-139v59h207v-192h109q76 0 125.5 -37t49.5 -120q0 -71 -44.5 -112.5t-132.5 -41.5h-175zM219 54h100q115 0 115 101q0 48 -28 75t-85 27h-102v-203z" />
    <glyph glyph-name="uni044B" unicode="&#x44b;" horiz-adv-x="667" 
d="M518 0v503h68v-503h-68zM81 0v503h68v-192h108q76 0 126 -37t50 -120q0 -71 -45 -112.5t-133 -41.5h-174zM149 54h100q114 0 114 101q0 48 -28 75t-85 27h-101v-203z" />
    <glyph glyph-name="uni044C" unicode="&#x44c;" horiz-adv-x="468" 
d="M81 0v503h68v-192h109q76 0 126 -37t50 -120q0 -71 -45 -112.5t-133 -41.5h-175zM149 54h101q114 0 114 101q0 48 -28 75t-85 27h-102v-203z" />
    <glyph glyph-name="uni044D" unicode="&#x44d;" horiz-adv-x="541" 
d="M35 65l30 51q63 -69 164 -69q77 0 132.5 49t63.5 128h-259v54h259q-8 80 -63 129t-131 49q-87 0 -151 -62l-35 50q31 34 82 52.5t105 18.5q111 0 186.5 -74.5t75.5 -189.5q0 -116 -75 -189.5t-189 -73.5q-119 0 -195 77z" />
    <glyph glyph-name="uni044E" unicode="&#x44e;" horiz-adv-x="805" 
d="M81 0v503h68v-222h100q10 101 82 167.5t171 66.5q107 0 182 -75t75 -186q0 -113 -74.5 -189.5t-181.5 -76.5q-99 0 -170.5 66.5t-82.5 167.5h-101v-222h-68zM317 254q0 -88 54 -146t132 -58q77 0 131 58t54 146q0 85 -54 142.5t-131 57.5q-78 0 -132 -57.5t-54 -142.5z
" />
    <glyph glyph-name="uni044F" unicode="&#x44f;" horiz-adv-x="495" 
d="M30 0l121 173l23 30v2q-48 10 -82 48.5t-34 96.5q0 74 48.5 113.5t129.5 39.5h177v-503h-68v193h-104l-132 -193h-79zM244 246h101v205h-96q-121 0 -121 -101q0 -49 32.5 -76.5t83.5 -27.5z" />
    <glyph glyph-name="uni0450" unicode="&#x450;" horiz-adv-x="553" 
d="M47 251q0 120 71.5 192t177.5 72q100 0 155 -66.5t55 -165.5q0 -12 -2 -34h-386q2 -93 58 -146t137 -53q87 0 153 60l31 -52q-35 -32 -85.5 -51t-100.5 -19q-113 0 -188.5 74t-75.5 189zM121 303h316q-3 75 -43 115.5t-100 40.5q-65 0 -113 -41t-60 -115zM277 585
l-86 119h79l69 -119h-62z" />
    <glyph glyph-name="uni0451" unicode="&#x451;" horiz-adv-x="553" 
d="M334 618v86h62v-86h-62zM183 618v86h61v-86h-61zM47 251q0 120 71.5 192t177.5 72q100 0 155 -66.5t55 -165.5q0 -12 -2 -34h-386q2 -93 58 -146t137 -53q87 0 153 60l31 -52q-35 -32 -85.5 -51t-100.5 -19q-113 0 -188.5 74t-75.5 189zM121 303h316q-3 75 -43 115.5
t-100 40.5q-65 0 -113 -41t-60 -115z" />
    <glyph glyph-name="uni0452" unicode="&#x452;" horiz-adv-x="594" 
d="M81 0v565h-64v54h64v84h68v-84h223v-54h-223v-187l-2 -42h2q19 46 71 86t129 40q90 0 129.5 -49.5t39.5 -145.5v-283q0 -60 -18 -101.5t-48 -60t-55 -25.5t-52 -7l-32 2v60q11 -2 25 -2q18 0 34.5 4.5t35.5 17.5t30.5 41.5t11.5 70.5v265q0 71 -22 110t-88 39
q-64 0 -114.5 -40t-67.5 -103q-9 -27 -9 -67v-188h-68z" />
    <glyph glyph-name="uni0453" unicode="&#x453;" horiz-adv-x="404" 
d="M181 585l69 119h79l-87 -119h-61zM81 0v503h300v-59h-232v-444h-68z" />
    <glyph glyph-name="uni0454" unicode="&#x454;" horiz-adv-x="542" 
d="M47 251q0 115 76 189.5t188 74.5q35 0 66.5 -7.5t52.5 -17.5t36.5 -20.5t22.5 -17.5l7 -8l-35 -50q-6 7 -18 17t-50.5 27t-79.5 17q-78 0 -132.5 -47t-64.5 -125h259v-54h-259q6 -81 62 -131.5t136 -50.5q29 0 57 7.5t46 17.5t32.5 20.5t20.5 17.5l7 8l30 -52
q-3 -3 -8 -8.5t-24 -19t-40 -23.5t-54.5 -18.5t-69.5 -8.5q-113 0 -188.5 73.5t-75.5 189.5z" />
    <glyph glyph-name="uni0455" unicode="&#x455;" horiz-adv-x="438" 
d="M37 61l36 48q59 -61 152 -61q44 0 72.5 21.5t28.5 59.5q0 31 -27.5 52.5t-67 36t-79 31.5t-67 48.5t-27.5 77.5q0 66 49 103t122 37q97 0 155 -55l-32 -51q-21 21 -56 33.5t-70 12.5q-43 0 -72 -19.5t-29 -58.5q0 -31 27.5 -53t67.5 -36.5t79.5 -31.5t67 -48.5
t27.5 -77.5q0 -62 -48 -102t-122 -40q-117 0 -187 73z" />
    <glyph glyph-name="uni0456" unicode="&#x456;" horiz-adv-x="230" 
d="M78 618v85h74v-85h-74zM81 0v503h68v-503h-68z" />
    <glyph glyph-name="uni0457" unicode="&#x457;" horiz-adv-x="230" 
d="M161 618v86h62v-86h-62zM10 618v86h61v-86h-61zM81 0v503h68v-503h-68z" />
    <glyph glyph-name="uni0458" unicode="&#x458;" horiz-adv-x="230" 
d="M78 618v85h74v-85h-74zM81 -16v519h68v-521q0 -59 -18.5 -99.5t-48.5 -58t-55.5 -24t-52.5 -6.5q-14 0 -29 3v60q8 -2 22 -2q18 0 34.5 4.5t36 16.5t31.5 40t12 68z" />
    <glyph glyph-name="uni0459" unicode="&#x459;" horiz-adv-x="728" 
d="M29 -4v61q63 10 92 81t29 211v154h260v-195h108q76 0 126 -37t50 -119q0 -70 -45 -111t-132 -41h-175v444h-126v-94q0 -180 -44.5 -263t-142.5 -91zM410 54h102q114 0 114 98q0 48 -28 75t-85 27h-103v-200z" />
    <glyph glyph-name="uni045A" unicode="&#x45a;" horiz-adv-x="797" 
d="M81 0v503h68v-200h263v200h68v-200h103q76 0 128.5 -36t52.5 -113q0 -70 -45 -112t-133 -42h-174v245h-263v-245h-68zM480 54h102q114 0 114 100q0 95 -118 95h-98v-195z" />
    <glyph glyph-name="uni045B" unicode="&#x45b;" horiz-adv-x="594" 
d="M81 0v565h-64v54h64v84h68v-84h223v-54h-223v-187l-2 -42h2q19 46 71 86t129 40q91 0 130 -49t39 -146v-267h-68v249q0 71 -22 110t-88 39q-64 0 -114.5 -40t-67.5 -103q-9 -26 -9 -67v-188h-68z" />
    <glyph glyph-name="uni045C" unicode="&#x45c;" horiz-adv-x="495" 
d="M215 585l69 119h79l-87 -119h-61zM81 0v503h68v-213h80l151 213h80l-175 -239v-2l195 -262h-83l-167 230h-81v-230h-68z" />
    <glyph glyph-name="uni045D" unicode="&#x45d;" horiz-adv-x="591" 
d="M81 0v503h66v-330q0 -69 -3 -75h2q4 7 52 75l247 330h65v-503h-67v331q0 13 0.5 30t1.5 29.5t1 13.5h-2q0 -2 -8.5 -14t-22 -30t-20.5 -29l-247 -331h-65zM288 585l-86 119h79l69 -119h-62z" />
    <glyph glyph-name="uni045E" unicode="&#x45e;" horiz-adv-x="526" 
d="M45 -126q28 -23 60 -23q60 0 96 82l30 72l-209 498h75l147 -367l19 -53h2q7 28 17 53l145 367h73l-248 -608q-20 -49 -57.5 -77t-86.5 -28q-23 0 -45.5 7.5t-32.5 14.5l-11 8zM263 569q-54 0 -93 32t-39 86v17h59v-15q0 -32 21.5 -50.5t51.5 -18.5t52 18.5t22 51.5v14h58
v-17q0 -54 -39 -86t-93 -32z" />
    <glyph glyph-name="uni045F" unicode="&#x45f;" horiz-adv-x="562" 
d="M81 0v503h68v-443h263v443h68v-503h-167v-120h-64v120h-168z" />
    <glyph glyph-name="uni0462" unicode="&#x462;" horiz-adv-x="678" 
d="M198 0v540h-184v58h185v112h68v-112h204v-58h-204v-129h163q93 0 153 -54.5t60 -147.5q0 -95 -60.5 -152t-151.5 -57h-233zM267 62h154q67 0 108.5 39t41.5 108q0 65 -42 102.5t-108 37.5h-154v-287z" />
    <glyph glyph-name="uni0463" unicode="&#x463;" horiz-adv-x="511" 
d="M122 0v461h-122v54h121v188h69v-188h168v-54h-168v-150h110q76 0 126 -37t50 -120q0 -71 -45 -112.5t-133 -41.5h-176zM190 54h102q114 0 114 101q0 48 -28 75t-85 27h-103v-203z" />
    <glyph glyph-name="uni0472" unicode="&#x472;" horiz-adv-x="825" 
d="M54 357q0 151 103 254.5t255 103.5t255 -103.5t103 -254.5q0 -156 -103 -262.5t-255 -106.5t-255 106.5t-103 262.5zM413 51q114 0 194 78t91 197h-572q11 -119 91.5 -197t195.5 -78zM413 651q-116 0 -196.5 -75.5t-90.5 -190.5h572q-10 115 -90 190.5t-195 75.5z" />
    <glyph glyph-name="uni0473" unicode="&#x473;" horiz-adv-x="624" 
d="M47 254q0 111 77 186t188 75t188.5 -75t77.5 -186q0 -113 -77.5 -189.5t-188.5 -76.5t-188 76.5t-77 189.5zM312 45q77 0 133.5 52t64.5 132h-396q9 -80 65 -132t133 -52zM312 458q-77 0 -133 -50.5t-65 -128.5h396q-8 78 -64.5 128.5t-133.5 50.5z" />
    <glyph glyph-name="uni0474" unicode="&#x474;" horiz-adv-x="684" 
d="M279 0l-260 703h75l194 -534l27 -90h2q15 54 27 90l152 446q20 58 45 73t86 15h44v-63h-22q-46 0 -58 -7q-19 -10 -34 -53l-204 -580h-74z" />
    <glyph glyph-name="uni0475" unicode="&#x475;" horiz-adv-x="551" 
d="M218 0l-193 503h72l140 -369l17 -61h2q9 36 18 61l96 280q16 50 43 69.5t79 19.5h38v-62h-21q-35 0 -51 -11t-29 -47l-136 -383h-75z" />
    <glyph glyph-name="uni048A" unicode="&#x48a;" horiz-adv-x="778" 
d="M101 0v703h69v-506l-6 -95h2q37 62 61 97l356 504h67v-641h99v-45l-66 -157h-55l46 140h-93v506l6 95h-2q-35 -60 -59 -95l-358 -506h-67zM379 736q-54 0 -93 32t-39 86v17h59v-15q0 -32 21.5 -50.5t51.5 -18.5t52 18.5t22 51.5v14h58v-17q0 -54 -39 -86t-93 -32z" />
    <glyph glyph-name="uni048B" unicode="&#x48b;" horiz-adv-x="618" 
d="M81 0v503h66v-330q0 -69 -3 -75h2q4 7 52 75l247 330h65v-444h80v-43l-56 -136h-53l40 120h-78v331q0 13 0.5 30t1.5 29.5t1 13.5h-2q0 -2 -8.5 -14t-22 -30t-20.5 -29l-247 -331h-65zM299 569q-54 0 -93 32t-39 86v17h59v-15q0 -32 21.5 -50.5t51.5 -18.5t52 18.5
t22 51.5v14h58v-17q0 -54 -39 -86t-93 -32z" />
    <glyph glyph-name="uni048C" unicode="&#x48c;" horiz-adv-x="662" 
d="M176 0v578h-164v58h164v114h69v-114h177v-58h-177v-159h171q92 0 152 -57t60 -153q0 -94 -60.5 -151.5t-150.5 -57.5h-241zM245 62h162q66 0 107.5 39t41.5 108q0 68 -41.5 108t-108.5 40h-161v-295z" />
    <glyph glyph-name="uni048D" unicode="&#x48d;" horiz-adv-x="519" 
d="M129 0v461h-122v54h121v188h69v-188h168v-54h-168v-150h110q76 0 126 -37t50 -120q0 -71 -45 -112.5t-133 -41.5h-176zM197 54h102q114 0 114 101q0 48 -28 75t-85 27h-103v-203z" />
    <glyph glyph-name="uni048E" unicode="&#x48e;" horiz-adv-x="615" 
d="M101 0v703h243q95 0 156 -58t61 -154q0 -101 -67 -162l61 -84l-43 -33l-63 87q-48 -23 -105 -23h-174v-276h-69zM342 447l43 33l71 -99q37 40 37 108q0 72 -42 112t-114 40h-167v-307h167q43 0 76 15z" />
    <glyph glyph-name="uni048F" unicode="&#x48f;" horiz-adv-x="598" 
d="M81 -200v703h65v-53l-3 -39h2l5.5 11t18 25t32.5 32t50 25t69 11q101 0 160 -72.5t59 -190.5q0 -117 -62 -190l57 -67l-41 -36l-55 66q-54 -37 -124 -37q-34 0 -63.5 10.5t-47.5 25t-31 29t-18 25.5l-6 10h-2q3 -18 3 -44v-244h-68zM326 160l41 35l67 -81q39 54 39 136
q0 92 -45 147.5t-116 55.5q-70 0 -117.5 -51t-47.5 -153q0 -82 43.5 -141.5t117.5 -59.5q50 0 88 27z" />
    <glyph glyph-name="uni0490" unicode="&#x490;" horiz-adv-x="489" 
d="M101 0v703h312v88h62v-150h-305v-641h-69z" />
    <glyph glyph-name="uni0491" unicode="&#x491;" horiz-adv-x="399" 
d="M81 0v503h237v80h58v-139h-227v-444h-68z" />
    <glyph glyph-name="uni0492" unicode="&#x492;" horiz-adv-x="497" 
d="M106 0v319h-63v55h63v329h370v-62h-301v-267h162v-55h-162v-319h-69z" />
    <glyph glyph-name="uni0493" unicode="&#x493;" horiz-adv-x="410" 
d="M83 0v220h-63v51h63v232h300v-59h-232v-173h132v-51h-132v-220h-68z" />
    <glyph glyph-name="uni0494" unicode="&#x494;" horiz-adv-x="596" 
d="M101 0v703h370v-62h-301v-257q23 13 65 24t79 11q39 0 71.5 -7t63.5 -26t52 -49.5t34 -81t13 -117.5q0 -161 -65.5 -236.5t-175.5 -75.5v59q74 0 122 57t48 196q0 118 -42 168.5t-130 50.5q-61 0 -135 -33v-324h-69z" />
    <glyph glyph-name="uni0495" unicode="&#x495;" horiz-adv-x="487" 
d="M81 0v503h303v-58h-235v-191q60 30 119 30q51 0 88 -18.5t56.5 -50.5t28.5 -67.5t9 -76.5q0 -182 -143 -277l-34 50q110 75 110 224q0 156 -124 156q-61 0 -110 -31v-193h-68z" />
    <glyph glyph-name="uni0496" unicode="&#x496;" horiz-adv-x="899" 
d="M22 0l210 369v2l-196 332h78l177 -305h101v305h69v-305h102l177 305h77l-196 -332v-2l175 -307h89v-202h-65v140h-67l-190 336h-102v-336h-69v336h-101l-190 -336h-79z" />
    <glyph glyph-name="uni0497" unicode="&#x497;" horiz-adv-x="756" 
d="M20 0l170 257v2l-154 244h74l136 -216h81v216h66v-216h81l136 216h75l-154 -244v-2l130 -197h76v-180h-65v120h-51l-147 227h-81v-227h-66v227h-80l-148 -227h-79z" />
    <glyph glyph-name="uni0498" unicode="&#x498;" horiz-adv-x="540" 
d="M32 79l41 50q30 -34 76 -55.5t95 -21.5q73 0 120 40t47 107q0 63 -42.5 99t-106.5 36h-89v60h71q60 0 102 36.5t42 93.5q0 55 -35 91.5t-106 36.5q-90 0 -162 -60l-32 54q84 69 201 69q95 0 150 -50t55 -134q0 -110 -105 -159v-2q59 -16 94 -61.5t35 -111.5
q0 -85 -55.5 -140.5t-143.5 -65.5v-131h-64v130q-55 5 -105.5 28t-82.5 61z" />
    <glyph glyph-name="uni0499" unicode="&#x499;" horiz-adv-x="441" 
d="M30 61l36 47q59 -62 135 -62q50 0 85.5 25.5t35.5 72.5q0 89 -122 89h-61v54h53q53 0 82.5 21.5t29.5 63.5t-28 63.5t-76 21.5q-66 0 -123 -45l-30 48q66 55 163 55q73 0 118.5 -35t45.5 -100q0 -85 -77 -115v-2q43 -11 69 -42t26 -79q0 -62 -41 -101t-104 -49v-112h-63
v109q-90 8 -154 72z" />
    <glyph glyph-name="uni049A" unicode="&#x49a;" horiz-adv-x="637" 
d="M101 0v703h69v-305h118l190 305h79l-211 -332v-2l187 -307h89v-202h-64v140h-68l-202 336h-118v-336h-69z" />
    <glyph glyph-name="uni049B" unicode="&#x49b;" horiz-adv-x="528" 
d="M81 0v503h68v-213h80l151 213h80l-175 -239v-2l150 -202h74v-180h-64v120h-48l-167 230h-81v-230h-68z" />
    <glyph glyph-name="uni049C" unicode="&#x49c;" horiz-adv-x="664" 
d="M101 0v703h69v-305h79v125h57v-125h54l190 305h79l-210 -332v-2l224 -369h-81l-202 336h-54v-125h-57v125h-79v-336h-69z" />
    <glyph glyph-name="uni049D" unicode="&#x49d;" horiz-adv-x="563" 
d="M81 0v503h68v-213h63v106h54v-106h31l151 213h80l-175 -239v-2l195 -262h-83l-167 230h-32v-108h-54v108h-63v-230h-68z" />
    <glyph glyph-name="uni049E" unicode="&#x49e;" horiz-adv-x="596" 
d="M11 529v55h94v119h69v-119h104v-55h-104v-131h118l190 305h79l-211 -332v-2l225 -369h-81l-202 336h-118v-336h-69v529h-94z" />
    <glyph glyph-name="uni049F" unicode="&#x49f;" horiz-adv-x="496" 
d="M81 0v529h-62v53h62v121h68v-121h126v-53h-126v-220h81l150 194h82l-175 -221v-2l193 -280h-82l-167 249h-82v-249h-68z" />
    <glyph glyph-name="uni04A0" unicode="&#x4a0;" horiz-adv-x="731" 
d="M240 0v641h-222v62h291v-305h119l189 305h79l-210 -332v-2l224 -369h-81l-201 336h-119v-336h-69z" />
    <glyph glyph-name="uni04A1" unicode="&#x4a1;" horiz-adv-x="564" 
d="M151 0v444h-139v59h207v-213h79l152 213h79l-174 -239v-2l195 -262h-83l-168 230h-80v-230h-68z" />
    <glyph glyph-name="uni04A2" unicode="&#x4a2;" horiz-adv-x="775" 
d="M101 0v703h69v-320h407v320h70v-641h91v-202h-64v140h-97v321h-407v-321h-69z" />
    <glyph glyph-name="uni04A3" unicode="&#x4a3;" horiz-adv-x="616" 
d="M81 0v503h68v-215h294v215h68v-443h79v-180h-64v120h-83v228h-294v-228h-68z" />
    <glyph glyph-name="uni04A4" unicode="&#x4a4;" horiz-adv-x="922" 
d="M101 0v703h69v-320h367v320h370v-62h-301v-641h-69v321h-367v-321h-69z" />
    <glyph glyph-name="uni04A5" unicode="&#x4a5;" horiz-adv-x="716" 
d="M81 0v503h68v-215h262v215h282v-59h-214v-444h-68v228h-262v-228h-68z" />
    <glyph glyph-name="uni04A6" unicode="&#x4a6;" horiz-adv-x="994" 
d="M101 0v703h472v-309q23 13 65 24t79 11q39 0 71.5 -7t63.5 -27t52 -51.5t34 -84t13 -121.5q0 -161 -65 -236.5t-176 -75.5v59q74 0 122 57t48 196q0 125 -42 178t-130 53q-58 0 -135 -34v-335h-69v642h-334v-642h-69z" />
    <glyph glyph-name="uni04A7" unicode="&#x4a7;" horiz-adv-x="798" 
d="M81 0v503h368v-224q60 30 119 30q100 0 146.5 -65t46.5 -160q0 -191 -143 -290l-34 50q111 78 111 238q0 74 -32 120t-103 46q-59 0 -111 -31v-217h-68v443h-232v-443h-68z" />
    <glyph glyph-name="uni04A8" unicode="&#x4a8;" horiz-adv-x="932" 
d="M56 361q0 76 24.5 140.5t64 106.5t85 69t93.5 38l16 -64q-86 -24 -149 -98.5t-63 -192.5q0 -130 74.5 -218.5t203.5 -88.5q67 0 136 25q-83 55 -129.5 140t-46.5 189q0 73 23 131t61 93t82.5 53.5t90.5 18.5q107 0 178 -75.5t71 -217.5q0 -96 -52 -183t-139 -148
q66 -19 139 -19h43v-60h-43q-110 0 -205 39q-102 -51 -209 -51q-156 0 -252.5 102.5t-96.5 270.5zM437 407q0 -95 44.5 -173.5t126.5 -123.5q86 50 138.5 129.5t52.5 170.5q0 116 -51 172t-126 56q-69 0 -127 -59t-58 -172z" />
    <glyph glyph-name="uni04A9" unicode="&#x4a9;" horiz-adv-x="768" 
d="M48 258q0 101 56 167t130 90l22 -58q-56 -19 -98.5 -71t-42.5 -129q0 -92 54 -151t163 -59q55 0 109 18q-64 40 -101.5 101t-37.5 138q0 87 60 149t150 62t145 -56.5t55 -148.5q0 -69 -37.5 -131.5t-100.5 -109.5q46 -11 94 -11h47v-58h-45q-86 0 -162 30
q-86 -42 -177 -42q-137 0 -210 76.5t-73 193.5zM369 305q0 -69 37.5 -123.5t100.5 -87.5q62 36 100 91t38 122q0 70 -37 110t-97 40q-59 0 -100.5 -43t-41.5 -109z" />
    <glyph glyph-name="uni04AA" unicode="&#x4aa;" horiz-adv-x="719" 
d="M55 356q0 154 99.5 256.5t253.5 102.5q159 0 254 -91l-37 -51q-41 36 -99 56.5t-116 20.5q-126 0 -204.5 -83.5t-78.5 -209.5q0 -128 79 -216t207 -88q132 0 227 93l40 -49q-101 -99 -242 -108v-129h-65v130q-143 13 -230.5 116t-87.5 250z" />
    <glyph glyph-name="uni04AB" unicode="&#x4ab;" horiz-adv-x="544" 
d="M47 251q0 115 76 189.5t188 74.5q52 0 102 -18.5t82 -53.5l-35 -51q-27 28 -66.5 45t-80.5 17q-84 0 -140 -57t-56 -146q0 -88 56.5 -144.5t141.5 -56.5q44 0 88 18.5t73 50.5l31 -51q-63 -69 -173 -79v-109h-63v111q-98 13 -161 84t-63 176z" />
    <glyph glyph-name="uni04AC" unicode="&#x4ac;" horiz-adv-x="608" 
d="M267 0l1 2v639h-252v62h574v-62h-253v-579h91v-202h-64v140h-97z" />
    <glyph glyph-name="uni04AD" unicode="&#x4ad;" horiz-adv-x="485" 
d="M206 0v443h-183v60h435v-60h-184v-383h80v-180h-64v120h-84z" />
    <glyph glyph-name="uni04AE" unicode="&#x4ae;" horiz-adv-x="567" 
d="M249 0v302l-238 401h79l149 -255l43 -84h2q22 47 43 84l149 255h79l-237 -401v-302h-69z" />
    <glyph glyph-name="uni04AF" unicode="&#x4af;" horiz-adv-x="511" 
d="M223 31l-199 472h72l139 -338l19 -58h2q9 31 19 58l140 338h71l-197 -472v-231h-66v231z" />
    <glyph glyph-name="uni04B0" unicode="&#x4b0;" horiz-adv-x="567" 
d="M120 250v55h127l-236 398h79l149 -255l43 -84h2q22 47 43 84l149 255h79l-235 -398h125v-55h-127v-250h-69v250h-129z" />
    <glyph glyph-name="uni04B1" unicode="&#x4b1;" horiz-adv-x="510" 
d="M107 0v54h106l-187 449h72l137 -338l19 -58h2q9 31 19 58l138 338h72l-187 -449h106v-54h-115v-200h-66v200h-116z" />
    <glyph glyph-name="uni04B2" unicode="&#x4b2;" horiz-adv-x="621" 
d="M19 0l224 367l-205 336h81l123 -208l46 -81h2q21 45 43 81l124 208h81l-206 -336l187 -305h89v-202h-64v140h-66l-147 243l-44 78h-2q-21 -42 -43 -79l-144 -242h-79z" />
    <glyph glyph-name="uni04B3" unicode="&#x4b3;" horiz-adv-x="512" 
d="M20 0l176 262l-162 241h80l108 -169l17 -29h2q9 16 17 29l108 169h79l-162 -241l136 -202h72v-180h-64v120h-47l-122 189l-17 28h-2q-8 -14 -17 -28l-123 -189h-79z" />
    <glyph glyph-name="uni04B4" unicode="&#x4b4;" horiz-adv-x="891" 
d="M240 0v641h-222v62h513v-62h-222v-579h387v641h69v-641h88v-202h-64v140h-549z" />
    <glyph glyph-name="uni04B5" unicode="&#x4b5;" horiz-adv-x="719" 
d="M195 0v443h-172v60h412v-60h-172v-383h286v443h68v-443h73v-180h-65v120h-430z" />
    <glyph glyph-name="uni04B6" unicode="&#x4b6;" horiz-adv-x="646" 
d="M265 277q-209 0 -209 199v227h70v-213q0 -75 35.5 -112t113.5 -37q91 0 173 54v308h70v-641h91v-202h-64v140h-97v296l2 33h-2q-94 -52 -183 -52z" />
    <glyph glyph-name="uni04B7" unicode="&#x4b7;" horiz-adv-x="530" 
d="M216 184q-85 0 -127 41.5t-42 117.5v160h67v-153q0 -48 23.5 -76.5t90.5 -28.5q72 0 125 41v217h68v-443h86v-180h-64v120h-90v191l2 32h-2q-63 -39 -137 -39z" />
    <glyph glyph-name="uni04B8" unicode="&#x4b8;" horiz-adv-x="625" 
d="M265 169v110q-211 1 -211 199v225h70v-213q0 -72 33.5 -109.5t107.5 -39.5v144h57v-140q74 12 132 50v308h70v-703h-70v297l2 33h-2q-59 -33 -132 -46v-115h-57z" />
    <glyph glyph-name="uni04B9" unicode="&#x4b9;" horiz-adv-x="514" 
d="M219 104v80q-87 0 -129.5 42t-42.5 117v160h67v-153q0 -45 22 -73.5t83 -31.5v125h54v-122q54 11 92 38v217h68v-503h-68v193l2 32h-2q-36 -23 -92 -35v-86h-54z" />
    <glyph glyph-name="uni04BA" unicode="&#x4ba;" horiz-adv-x="615" 
d="M101 0v703h69v-261l-2 -33h2q92 50 193 50q193 0 193 -201v-258h-70v247q0 149 -136 149q-53 0 -102.5 -17t-77.5 -37v-342h-69z" />
    <glyph glyph-name="uni04BB" unicode="&#x4bb;" horiz-adv-x="594" 
d="M81 0v703h68v-276l-3 -41h2q18 46 71.5 87.5t129.5 41.5q91 0 130 -49t39 -146v-320h-68v302q0 71 -22 110t-88 39q-80 0 -135.5 -59t-55.5 -149v-243h-68z" />
    <glyph glyph-name="uni04BC" unicode="&#x4bc;" horiz-adv-x="860" 
d="M44 509q0 48 7 80l9 42h66l-9 -42q-7 -35 -7 -75q0 -44 21 -72t62 -28h11q18 132 103.5 216.5t212.5 84.5q129 0 205.5 -85.5t76.5 -236.5l-1 -37h-530q-1 -141 77 -222t188 -81q126 0 227 87l35 -56l-2 -2q-86 -79 -219 -92q-23 -2 -46 -2q-145 0 -238.5 100t-93.5 260
v8h-8q-69 0 -108 41t-39 112zM274 414h457q0 99 -53.5 168.5t-157.5 69.5q-100 0 -165.5 -68.5t-80.5 -169.5z" />
    <glyph glyph-name="uni04BD" unicode="&#x4bd;" horiz-adv-x="665" 
d="M39 382q0 34 13 77h60q-13 -34 -13 -72q0 -84 62 -84h3q15 98 83 155t161 57q100 0 155.5 -66.5t55.5 -165.5l-3 -34h-386q2 -93 58 -146t138 -53q40 0 78 15t56 30l18 15l31 -52q-8 -8 -23.5 -19.5t-64 -31t-98.5 -19.5q-113 0 -187.5 73t-75.5 188h-4q-117 0 -117 133z
M233 303h316q-3 75 -43 115t-100 40q-65 0 -113 -41t-60 -114z" />
    <glyph glyph-name="uni04BE" unicode="&#x4be;" horiz-adv-x="861" 
d="M44 509q0 48 7 80l9 42h66l-9 -42q-7 -35 -7 -75q0 -44 21 -72t62 -28h11q18 132 103.5 216.5t212.5 84.5q129 0 205.5 -85.5t76.5 -236.5l-1 -37h-530q-1 -141 77 -222t188 -81q126 0 227 87l35 -56l-2 -2q-87 -79 -222 -92q-10 -1 -21 -1v-129h-64v131
q-129 14 -209.5 111.5t-80.5 245.5v8h-8q-69 0 -108 41t-39 112zM274 414h457q0 99 -53.5 168.5t-157.5 69.5q-100 0 -165.5 -68.5t-80.5 -169.5z" />
    <glyph glyph-name="uni04BF" unicode="&#x4bf;" horiz-adv-x="666" 
d="M39 382q0 34 13 77h60q-13 -34 -13 -72q0 -84 62 -84h3q15 98 83 155t161 57q100 0 155.5 -66.5t55.5 -165.5l-3 -34h-386q2 -93 58 -146t138 -53q40 0 78 15t56 30l18 15l31 -52q-8 -7 -22.5 -18.5t-60.5 -30.5t-94 -21v-108h-64v113q-92 18 -149.5 87t-58.5 169h-4
q-117 0 -117 133zM233 303h316q-3 75 -43 115t-100 40q-65 0 -113 -41t-60 -114z" />
    <glyph glyph-name="uni04C0" unicode="&#x4c0;" horiz-adv-x="270" 
d="M101 0v703h68v-703h-68z" />
    <glyph glyph-name="uni04C1" unicode="&#x4c1;" horiz-adv-x="854" 
d="M22 0l210 369v2l-196 332h78l177 -305h101v305h69v-305h102l177 305h77l-196 -332v-2l211 -369h-79l-190 336h-102v-336h-69v336h-101l-190 -336h-79zM427 736q-54 0 -93 32t-39 86v17h59v-15q0 -32 21.5 -50.5t51.5 -18.5t52 18.5t22 51.5v14h58v-17q0 -54 -39 -86
t-93 -32z" />
    <glyph glyph-name="uni04C2" unicode="&#x4c2;" horiz-adv-x="721" 
d="M20 0l170 257v2l-154 244h74l136 -216h81v216h66v-216h81l136 216h75l-154 -244v-2l170 -257h-80l-147 227h-81v-227h-66v227h-80l-148 -227h-79zM360 569q-54 0 -93 32t-39 86v17h59v-15q0 -32 21.5 -50.5t51.5 -18.5t52 18.5t22 51.5v14h58v-17q0 -54 -39 -86t-93 -32z
" />
    <glyph glyph-name="uni04C3" unicode="&#x4c3;" horiz-adv-x="615" 
d="M101 0v703h69v-305h118l190 305h79l-200 -320q49 -11 86 -34t59 -50t36 -60t19 -61.5t5 -57.5q0 -139 -66 -216.5t-171 -77.5v60q69 0 117.5 55t48.5 176q0 113 -68.5 166.5t-179.5 53.5h-73v-337h-69z" />
    <glyph glyph-name="uni04C4" unicode="&#x4c4;" horiz-adv-x="504" 
d="M81 0v503h68v-215h78l153 215h80l-166 -227v-2q163 -44 163 -226q0 -93 -41.5 -156t-103.5 -98l-33 52q111 58 111 202q0 91 -51 135.5t-141 44.5h-49v-228h-68z" />
    <glyph glyph-name="uni04C5" unicode="&#x4c5;" horiz-adv-x="692" 
d="M11 57q94 13 130.5 138t36.5 366v142h386v-641h99v-45l-66 -157h-55l46 140h-94v641h-249v-81q0 -134 -10 -228.5t-35 -173t-72 -120t-117 -46.5v65z" />
    <glyph glyph-name="uni04C6" unicode="&#x4c6;" horiz-adv-x="556" 
d="M20 -4v61q62 10 91 81.5t29 212.5v152h308v-444h79v-43l-56 -136h-53l40 120h-78v444h-174v-93q0 -178 -44.5 -262.5t-141.5 -92.5z" />
    <glyph glyph-name="uni04C7" unicode="&#x4c7;" horiz-adv-x="747" 
d="M101 0v703h69v-320h407v320h70v-671q0 -65 -18.5 -109t-49 -64t-58 -27t-57.5 -6v60q19 0 35.5 5t35.5 19t30.5 44.5t11.5 75.5v291h-407v-321h-69z" />
    <glyph glyph-name="uni04C8" unicode="&#x4c8;" horiz-adv-x="593" 
d="M81 0v503h68v-215h294v215h69v-463q0 -99 -38 -152.5t-107 -93.5l-35 53q111 55 111 193v188h-294v-228h-68z" />
    <glyph glyph-name="uni04C9" unicode="&#x4c9;" horiz-adv-x="775" 
d="M101 0v703h69v-320h407v320h70v-641h99v-45l-66 -157h-55l45 140h-93v321h-407v-321h-69z" />
    <glyph glyph-name="uni04CA" unicode="&#x4ca;" horiz-adv-x="618" 
d="M81 0v503h68v-215h294v215h68v-444h79v-43l-57 -136h-52l39 120h-77v228h-294v-228h-68z" />
    <glyph glyph-name="uni04CB" unicode="&#x4cb;" horiz-adv-x="618" 
d="M265 277q-209 0 -209 199v227h70v-213q0 -75 35.5 -112t113.5 -37q91 0 173 54v308h70v-703h-98v-140h-64v202h92v234l2 33h-2q-94 -52 -183 -52z" />
    <glyph glyph-name="uni04CC" unicode="&#x4cc;" horiz-adv-x="508" 
d="M279 52h80v144l2 32h-2q-27 -16 -71.5 -28t-79.5 -12q-81 0 -121 42t-40 116v157h67v-150q0 -47 23 -76t85 -29q78 0 137 41v214h68v-503h-83v-120h-65v172z" />
    <glyph glyph-name="uni04CD" unicode="&#x4cd;" horiz-adv-x="872" 
d="M74 0l56 703h71l185 -413l34 -86h2q18 50 34 86l185 413h71l51 -641h98v-45l-65 -157h-55l45 140h-87l-39 492l-2 98h-2q-21 -62 -37 -98l-166 -361h-64l-165 361l-38 100h-2q1 -62 -2 -100l-39 -492h-69z" />
    <glyph glyph-name="uni04CE" unicode="&#x4ce;" horiz-adv-x="745" 
d="M62 0l41 503h72l151 -310l31 -71h2q16 39 31 71l152 310h71l37 -444h79v-43l-56 -136h-53l39 120h-71l-25 325v87h-2q-11 -32 -32 -73l-140 -281h-62l-139 279l-33 75h-2q2 -60 0 -87l-25 -325h-66z" />
    <glyph glyph-name="uni04CF" unicode="&#x4cf;" horiz-adv-x="230" 
d="M81 0v703h68v-703h-68z" />
    <glyph glyph-name="uni04D0" unicode="&#x4d0;" horiz-adv-x="632" 
d="M21 0l258 703h74l258 -703h-73l-81 224h-283l-80 -224h-73zM195 284h241l-92 255l-27 92h-2q-15 -59 -27 -92zM315 736q-54 0 -93 32t-39 86v17h59v-15q0 -32 21.5 -50.5t51.5 -18.5t52 18.5t22 51.5v14h58v-17q0 -54 -39 -86t-93 -32z" />
    <glyph glyph-name="uni04D1" unicode="&#x4d1;" horiz-adv-x="518" 
d="M37 135q0 175 306 175h30v14q0 130 -124 130q-77 0 -143 -48l-31 52q30 26 79 41.5t99 15.5q91 0 139.5 -49.5t48.5 -143.5v-322h-65v59l3 42h-2q-21 -48 -66.5 -80.5t-103.5 -32.5q-69 0 -119.5 39t-50.5 108zM106 141q0 -38 30 -67t83 -29q69 0 111.5 58t42.5 130v23
h-29q-32 0 -55.5 -1t-61 -7.5t-61.5 -17.5t-42 -34t-18 -55zM265 569q-54 0 -93 32t-39 86v17h59v-15q0 -32 21.5 -50.5t51.5 -18.5t52 18.5t22 51.5v14h58v-17q0 -54 -39 -86t-93 -32z" />
    <glyph glyph-name="uni04D2" unicode="&#x4d2;" horiz-adv-x="632" 
d="M21 0l258 703h74l258 -703h-73l-81 224h-283l-80 -224h-73zM195 284h241l-92 255l-27 92h-2q-15 -59 -27 -92zM361 785v86h62v-86h-62zM210 785v86h61v-86h-61z" />
    <glyph glyph-name="uni04D3" unicode="&#x4d3;" horiz-adv-x="518" 
d="M37 135q0 175 306 175h30v14q0 130 -124 130q-77 0 -143 -48l-31 52q30 26 79 41.5t99 15.5q91 0 139.5 -49.5t48.5 -143.5v-322h-65v59l3 42h-2q-21 -48 -66.5 -80.5t-103.5 -32.5q-69 0 -119.5 39t-50.5 108zM106 141q0 -38 30 -67t83 -29q69 0 111.5 58t42.5 130v23
h-29q-32 0 -55.5 -1t-61 -7.5t-61.5 -17.5t-42 -34t-18 -55zM301 618v86h62v-86h-62zM150 618v86h61v-86h-61z" />
    <glyph glyph-name="uni04D4" unicode="&#x4d4;" horiz-adv-x="848" 
d="M16 0l289 703h481v-62h-327v-256h267v-62h-267v-261h345v-62h-414v324h-171l-130 -324h-73zM244 384h146v257h-41z" />
    <glyph glyph-name="uni04D5" unicode="&#x4d5;" horiz-adv-x="867" 
d="M38 137q0 34 11.5 61t28.5 44.5t44.5 30t51.5 19t58 10t55.5 4t52.5 0.5h33v18q0 130 -128 130q-75 0 -139 -48l-32 51q30 27 78 42.5t97 15.5q135 0 170 -104h2q62 104 190 104q98 0 153.5 -65.5t55.5 -163.5q0 -1 -3 -34h-378q2 -96 54 -149t134 -53q89 0 152 60
l31 -52q-33 -31 -84.5 -50.5t-101.5 -19.5q-77 0 -135 37t-86 103h-2q-3 -11 -9.5 -25t-22.5 -35.5t-35.5 -38t-52 -29t-70.5 -12.5q-73 0 -123 39.5t-50 109.5zM443 306h307q-3 74 -43.5 112.5t-98.5 38.5q-65 0 -109 -39t-56 -112zM108 141q0 -39 29.5 -67.5t82.5 -28.5
q69 0 111.5 58.5t42.5 130.5v18h-59q-39 0 -69.5 -3.5t-65 -13.5t-53.5 -34t-19 -60z" />
    <glyph glyph-name="uni04D6" unicode="&#x4d6;" horiz-adv-x="560" 
d="M101 0v703h395v-62h-326v-256h267v-62h-267v-261h345v-62h-414zM303 736q-54 0 -93 32t-39 86v17h59v-15q0 -32 21.5 -50.5t51.5 -18.5t52 18.5t22 51.5v14h58v-17q0 -54 -39 -86t-93 -32z" />
    <glyph glyph-name="uni04D7" unicode="&#x4d7;" horiz-adv-x="553" 
d="M47 251q0 120 71.5 192t177.5 72q100 0 155 -66.5t55 -165.5q0 -12 -2 -34h-386q2 -93 58 -146t137 -53q87 0 153 60l31 -52q-35 -32 -85.5 -51t-100.5 -19q-113 0 -188.5 74t-75.5 189zM121 303h316q-3 75 -43 115.5t-100 40.5q-65 0 -113 -41t-60 -115zM290 569
q-54 0 -93 32t-39 86v17h59v-15q0 -32 21.5 -50.5t51.5 -18.5t52 18.5t22 51.5v14h58v-17q0 -54 -39 -86t-93 -32z" />
    <glyph glyph-name="uni04D8" unicode="&#x4d8;" horiz-adv-x="720" 
d="M55 341l2 39h533q-2 119 -73.5 194.5t-181.5 75.5q-59 0 -116 -20t-77 -33t-32 -24l-37 51q4 4 12.5 11t34 22.5t54 27t74 21t93.5 9.5q142 0 232 -100t90 -260t-85 -263.5t-229 -103.5q-135 0 -214.5 89t-79.5 264zM127 321q0 -269 229 -269q102 0 167 73.5t65 195.5
h-461z" />
    <glyph glyph-name="uni04D9" unicode="&#x4d9;" horiz-adv-x="554" 
d="M47 233l2 36h387q-2 82 -53.5 134t-126.5 52q-45 0 -87 -15t-61 -30l-20 -15l-31 51l6 4q6 4 12.5 8.5t18.5 11.5t24 12.5t29 12t34 10.5t38.5 7t42.5 3q107 0 175.5 -73.5t68.5 -189.5q0 -124 -68 -194t-172 -70q-106 0 -162.5 67t-56.5 178zM118 215q3 -90 44 -130
t106 -40t112.5 43.5t51.5 126.5h-314z" />
    <glyph glyph-name="uni04DA" unicode="&#x4da;" horiz-adv-x="720" 
d="M400 785v86h62v-86h-62zM249 785v86h61v-86h-61zM55 341l2 39h533q-2 119 -73.5 194.5t-181.5 75.5q-59 0 -116 -20t-77 -33t-32 -24l-37 51q4 4 12.5 11t34 22.5t54 27t74 21t93.5 9.5q142 0 232 -100t90 -260t-85 -263.5t-229 -103.5q-135 0 -214.5 89t-79.5 264z
M127 321q0 -269 229 -269q102 0 167 73.5t65 195.5h-461z" />
    <glyph glyph-name="uni04DB" unicode="&#x4db;" horiz-adv-x="554" 
d="M310 618v86h62v-86h-62zM159 618v86h61v-86h-61zM47 233l2 36h387q-2 82 -53.5 134t-126.5 52q-45 0 -87 -15t-61 -30l-20 -15l-31 51l6 4q6 4 12.5 8.5t18.5 11.5t24 12.5t29 12t34 10.5t38.5 7t42.5 3q107 0 175.5 -73.5t68.5 -189.5q0 -124 -68 -194t-172 -70
q-106 0 -162.5 67t-56.5 178zM118 215q3 -90 44 -130t106 -40t112.5 43.5t51.5 126.5h-314z" />
    <glyph glyph-name="uni04DC" unicode="&#x4dc;" horiz-adv-x="854" 
d="M22 0l210 369v2l-196 332h78l177 -305h101v305h69v-305h102l177 305h77l-196 -332v-2l211 -369h-79l-190 336h-102v-336h-69v336h-101l-190 -336h-79zM473 785v86h62v-86h-62zM322 785v86h61v-86h-61z" />
    <glyph glyph-name="uni04DD" unicode="&#x4dd;" horiz-adv-x="721" 
d="M404 618v86h62v-86h-62zM253 618v86h61v-86h-61zM20 0l170 257v2l-154 244h74l136 -216h81v216h66v-216h81l136 216h75l-154 -244v-2l170 -257h-80l-147 227h-81v-227h-66v227h-80l-148 -227h-79z" />
    <glyph glyph-name="uni04DE" unicode="&#x4de;" horiz-adv-x="538" 
d="M309 785v86h62v-86h-62zM158 785v86h61v-86h-61zM32 79l41 50q30 -34 76 -55.5t95 -21.5q73 0 120 40t47 107q0 63 -42.5 99t-106.5 36h-89v60h71q60 0 102 36.5t42 93.5q0 55 -35 91.5t-106 36.5q-90 0 -162 -60l-32 54q84 69 201 69q95 0 150 -50t55 -134
q0 -110 -105 -159v-2q59 -16 94 -61.5t35 -111.5q0 -94 -67 -151.5t-169 -57.5q-61 0 -119.5 24t-95.5 67z" />
    <glyph glyph-name="uni04DF" unicode="&#x4df;" horiz-adv-x="439" 
d="M260 618v86h62v-86h-62zM109 618v86h61v-86h-61zM30 61l36 47q59 -62 135 -62q50 0 85.5 25.5t35.5 72.5q0 89 -122 89h-61v54h53q53 0 82.5 21.5t29.5 63.5t-28 63.5t-76 21.5q-66 0 -123 -45l-30 48q66 55 163 55q73 0 118.5 -35t45.5 -100q0 -85 -77 -115v-2
q43 -11 69 -42t26 -79q0 -73 -54.5 -113.5t-132.5 -40.5q-100 0 -175 73z" />
    <glyph glyph-name="uni04E0" unicode="&#x4e0;" horiz-adv-x="521" 
d="M64 105q31 -25 75.5 -39.5t86.5 -14.5q78 0 125.5 41t47.5 106q0 57 -29.5 89.5t-96.5 41.5q-20 3 -151 3v49l200 221l43 41v2q-27 -2 -61 -2h-251v60h397v-51l-214 -235l-28 -25v-2q71 -1 95 -6q165 -26 165 -181q0 -95 -67 -154t-173 -59q-105 0 -192 61z" />
    <glyph glyph-name="uni04E1" unicode="&#x4e1;" horiz-adv-x="479" 
d="M40 -95q31 -25 75.5 -39.5t86.5 -14.5q78 0 125.5 41t47.5 106q0 57 -29.5 89.5t-96.5 41.5q-20 3 -151 3v49l200 221l43 41v2q-27 -2 -61 -2h-251v60h397v-51l-214 -235l-28 -25v-2q71 -1 95 -6q165 -26 165 -181q0 -95 -67 -154t-173 -59q-105 0 -192 61z" />
    <glyph glyph-name="uni04E2" unicode="&#x4e2;" horiz-adv-x="751" 
d="M257 785v55h246v-55h-246zM101 0v703h69v-506l-6 -95h2q37 62 61 97l356 504h67v-703h-69v506l6 95h-2q-35 -60 -59 -95l-358 -506h-67z" />
    <glyph glyph-name="uni04E3" unicode="&#x4e3;" horiz-adv-x="591" 
d="M81 0v503h66v-330q0 -69 -3 -75h2q4 7 52 75l247 330h65v-503h-67v331q0 13 0.5 30t1.5 29.5t1 13.5h-2q0 -2 -8.5 -14t-22 -30t-20.5 -29l-247 -331h-65zM174 618v55h246v-55h-246z" />
    <glyph glyph-name="uni04E4" unicode="&#x4e4;" horiz-adv-x="751" 
d="M420 785v86h62v-86h-62zM269 785v86h61v-86h-61zM101 0v703h69v-506l-6 -95h2q37 62 61 97l356 504h67v-703h-69v506l6 95h-2q-35 -60 -59 -95l-358 -506h-67z" />
    <glyph glyph-name="uni04E5" unicode="&#x4e5;" horiz-adv-x="591" 
d="M344 618v86h62v-86h-62zM193 618v86h61v-86h-61zM81 0v503h66v-330q0 -69 -3 -75h2q4 7 52 75l247 330h65v-503h-67v331q0 13 0.5 30t1.5 29.5t1 13.5h-2q0 -2 -8.5 -14t-22 -30t-20.5 -29l-247 -331h-65z" />
    <glyph glyph-name="uni04E6" unicode="&#x4e6;" horiz-adv-x="825" 
d="M455 785v86h62v-86h-62zM304 785v86h61v-86h-61zM54 357q0 151 102.5 254.5t255.5 103.5q154 0 256 -103t102 -255q0 -156 -102 -262.5t-256 -106.5q-153 0 -255.5 106.5t-102.5 262.5zM126 357q0 -129 81.5 -216.5t204.5 -87.5t204.5 87t81.5 217q0 125 -81.5 209
t-204.5 84t-204.5 -84t-81.5 -209z" />
    <glyph glyph-name="uni04E7" unicode="&#x4e7;" horiz-adv-x="624" 
d="M358 618v86h62v-86h-62zM207 618v86h61v-86h-61zM47 254q0 111 77 186t188 75t188.5 -75t77.5 -186q0 -113 -77.5 -189.5t-188.5 -76.5t-188 76.5t-77 189.5zM117 254q0 -88 56.5 -146t138.5 -58t139 58t57 146q0 85 -57 142.5t-139 57.5t-138.5 -57.5t-56.5 -142.5z" />
    <glyph glyph-name="uni04E8" unicode="&#x4e8;" horiz-adv-x="825" 
d="M54 357q0 151 103 254.5t255 103.5t255 -103.5t103 -254.5q0 -156 -103 -262.5t-255 -106.5t-255 106.5t-103 262.5zM413 51q114 0 194 78t91 197h-572q11 -119 91.5 -197t195.5 -78zM413 651q-116 0 -196.5 -75.5t-90.5 -190.5h572q-10 115 -90 190.5t-195 75.5z" />
    <glyph glyph-name="uni04E9" unicode="&#x4e9;" horiz-adv-x="624" 
d="M47 254q0 111 77 186t188 75t188.5 -75t77.5 -186q0 -113 -77.5 -189.5t-188.5 -76.5t-188 76.5t-77 189.5zM312 45q77 0 133.5 52t64.5 132h-396q9 -80 65 -132t133 -52zM312 458q-77 0 -133 -50.5t-65 -128.5h396q-8 78 -64.5 128.5t-133.5 50.5z" />
    <glyph glyph-name="uni04EA" unicode="&#x4ea;" horiz-adv-x="825" 
d="M54 357q0 151 103 254.5t255 103.5t255 -103.5t103 -254.5q0 -156 -103 -262.5t-255 -106.5t-255 106.5t-103 262.5zM413 51q114 0 194 78t91 197h-572q11 -119 91.5 -197t195.5 -78zM413 651q-116 0 -196.5 -75.5t-90.5 -190.5h572q-10 115 -90 190.5t-195 75.5z
M457 785v86h62v-86h-62zM306 785v86h61v-86h-61z" />
    <glyph glyph-name="uni04EB" unicode="&#x4eb;" horiz-adv-x="624" 
d="M47 254q0 111 77 186t188 75t188.5 -75t77.5 -186q0 -113 -77.5 -189.5t-188.5 -76.5t-188 76.5t-77 189.5zM312 45q77 0 133.5 52t64.5 132h-396q9 -80 65 -132t133 -52zM312 458q-77 0 -133 -50.5t-65 -128.5h396q-8 78 -64.5 128.5t-133.5 50.5zM354 618v86h62v-86
h-62zM203 618v86h61v-86h-61z" />
    <glyph glyph-name="uni04EC" unicode="&#x4ec;" horiz-adv-x="717" 
d="M371 785v86h62v-86h-62zM220 785v86h61v-86h-61zM38 95l38 49q38 -41 101 -66.5t129 -25.5q115 0 193.5 77t88.5 193h-396v60h397q-8 117 -87 193t-195 76q-122 0 -216 -80l-37 52q46 44 114 68t140 24q154 0 254 -103t100 -256q0 -155 -101.5 -261.5t-254.5 -106.5
q-76 0 -147 28t-121 79z" />
    <glyph glyph-name="uni04ED" unicode="&#x4ed;" horiz-adv-x="541" 
d="M297 618v86h62v-86h-62zM146 618v86h61v-86h-61zM35 65l30 51q63 -69 164 -69q77 0 132.5 49t63.5 128h-259v54h259q-8 80 -63 129t-131 49q-87 0 -151 -62l-35 50q31 34 82 52.5t105 18.5q111 0 186.5 -74.5t75.5 -189.5q0 -116 -75 -189.5t-189 -73.5q-119 0 -195 77z
" />
    <glyph glyph-name="uni04EE" unicode="&#x4ee;" horiz-adv-x="587" 
d="M171 785v55h246v-55h-246zM83 31l33 53q48 -34 82 -34q32 0 50.5 23t37.5 72l-279 558h77l193 -392l40 -92h2q16 49 31 91l146 393h74l-230 -592q-48 -123 -141 -123q-55 0 -116 43z" />
    <glyph glyph-name="uni04EF" unicode="&#x4ef;" horiz-adv-x="526" 
d="M45 -126q28 -23 60 -23q60 0 96 82l30 72l-209 498h75l147 -367l19 -53h2q7 28 17 53l145 367h73l-248 -608q-20 -49 -57.5 -77t-86.5 -28q-23 0 -45.5 7.5t-32.5 14.5l-11 8zM139 618v55h246v-55h-246z" />
    <glyph glyph-name="uni04F0" unicode="&#x4f0;" horiz-adv-x="587" 
d="M341 785v86h62v-86h-62zM190 785v86h61v-86h-61zM83 31l33 53q48 -34 82 -34q32 0 50.5 23t37.5 72l-279 558h77l193 -392l40 -92h2q16 49 31 91l146 393h74l-230 -592q-48 -123 -141 -123q-55 0 -116 43z" />
    <glyph glyph-name="uni04F1" unicode="&#x4f1;" horiz-adv-x="526" 
d="M45 -126q28 -23 60 -23q60 0 96 82l30 72l-209 498h75l147 -367l19 -53h2q7 28 17 53l145 367h73l-248 -608q-20 -49 -57.5 -77t-86.5 -28q-23 0 -45.5 7.5t-32.5 14.5l-11 8zM307 618v86h62v-86h-62zM156 618v86h61v-86h-61z" />
    <glyph glyph-name="uni04F2" unicode="&#x4f2;" horiz-adv-x="587" 
d="M83 31l33 53q48 -34 82 -34q32 0 50.5 23t37.5 72l-279 558h77l193 -392l40 -92h2q16 49 31 91l146 393h74l-230 -592q-48 -123 -141 -123q-55 0 -116 43zM328 752l70 119h77l-87 -119h-60zM194 752l65 119h68l-68 -119h-65z" />
    <glyph glyph-name="uni04F3" unicode="&#x4f3;" horiz-adv-x="526" 
d="M45 -126q28 -23 60 -23q60 0 96 82l30 72l-209 498h75l147 -367l19 -53h2q7 28 17 53l145 367h73l-248 -608q-20 -49 -57.5 -77t-86.5 -28q-23 0 -45.5 7.5t-32.5 14.5l-11 8zM289 585l70 119h77l-87 -119h-60zM155 585l65 119h68l-68 -119h-65z" />
    <glyph glyph-name="uni04F4" unicode="&#x4f4;" horiz-adv-x="618" 
d="M265 277q-209 0 -209 199v227h70v-213q0 -75 35.5 -112t113.5 -37q91 0 173 54v308h70v-703h-70v296l2 33h-2q-94 -52 -183 -52zM338 785v86h62v-86h-62zM187 785v86h61v-86h-61z" />
    <glyph glyph-name="uni04F5" unicode="&#x4f5;" horiz-adv-x="502" 
d="M287 618v86h62v-86h-62zM136 618v86h61v-86h-61zM216 184q-85 0 -127 41.5t-42 117.5v160h67v-153q0 -48 23.5 -76.5t90.5 -28.5q72 0 125 41v217h68v-503h-68v191l2 32h-2q-63 -39 -137 -39z" />
    <glyph glyph-name="uni04F6" unicode="&#x4f6;" horiz-adv-x="488" 
d="M101 0v703h369v-62h-300v-579h91v-202h-64v140h-96z" />
    <glyph glyph-name="uni04F7" unicode="&#x4f7;" horiz-adv-x="407" 
d="M81 0v503h300v-59h-232v-384h80v-180h-64v120h-84z" />
    <glyph glyph-name="uni04F8" unicode="&#x4f8;" horiz-adv-x="813" 
d="M451 785v86h62v-86h-62zM300 785v86h61v-86h-61zM643 0v703h69v-703h-69zM101 0v703h69v-284h158q92 0 150 -55t58 -156q0 -94 -56.5 -151t-145.5 -57h-233zM170 62h154q66 0 103.5 38.5t37.5 107.5t-39 109t-103 40h-153v-295z" />
    <glyph glyph-name="uni04F9" unicode="&#x4f9;" horiz-adv-x="667" 
d="M377 618v86h62v-86h-62zM226 618v86h61v-86h-61zM518 0v503h68v-503h-68zM81 0v503h68v-192h108q76 0 126 -37t50 -120q0 -71 -45 -112.5t-133 -41.5h-174zM149 54h100q114 0 114 101q0 48 -28 75t-85 27h-101v-203z" />
    <glyph glyph-name="uni0524" unicode="&#x524;" horiz-adv-x="765" 
d="M101 0v703h536v-641h92v-202h-64v140h-97v641h-398v-641h-69z" />
    <glyph glyph-name="uni0525" unicode="&#x525;" horiz-adv-x="607" 
d="M81 0v503h421v-443h79v-180h-64v120h-83v443h-285v-443h-68z" />
    <glyph glyph-name="uni1E9E" unicode="&#x1e9e;" horiz-adv-x="666" 
d="M95 0v516q0 80 54 133.5t134 53.5h304v-48l-157 -223l-26 -35v-2h31q77 -3 129 -60t52 -135q0 -83 -58.5 -141.5t-141.5 -58.5h-161v62h156q58 0 96 40.5t38 97.5t-37.5 97t-94.5 40h-90v49l135 196q13 20 24.5 35t15.5 19l5 5v2q-7 -2 -43 -2h-172q-54 0 -88.5 -35.5
t-34.5 -88.5v-517h-70z" />
    <glyph glyph-name="thinspace" unicode="&#x2009;" horiz-adv-x="12" 
 />
    <glyph glyph-name="endash" unicode="&#x2013;" horiz-adv-x="649" 
d="M75 255v58h500v-58h-500z" />
    <glyph glyph-name="emdash" unicode="&#x2014;" horiz-adv-x="849" 
d="M75 255v58h700v-58h-700z" />
    <glyph glyph-name="quoteleft" unicode="&#x2018;" horiz-adv-x="238" 
d="M67 541l57 171h54l-39 -171h-72z" />
    <glyph glyph-name="quoteright" unicode="&#x2019;" horiz-adv-x="234" 
d="M70 541l39 171h72l-56 -171h-55z" />
    <glyph glyph-name="quotesinglbase" unicode="&#x201a;" horiz-adv-x="250" 
d="M59 -90l39 172h70l-56 -172h-53z" />
    <glyph glyph-name="quotedblleft" unicode="&#x201c;" horiz-adv-x="358" 
d="M187 541l56 171h55l-39 -171h-72zM67 541l57 171h54l-39 -171h-72z" />
    <glyph glyph-name="quotedblright" unicode="&#x201d;" horiz-adv-x="353" 
d="M190 541l38 171h72l-56 -171h-54zM70 541l39 171h72l-56 -171h-55z" />
    <glyph glyph-name="quotedblbase" unicode="&#x201e;" horiz-adv-x="369" 
d="M177 -90l39 172h71l-56 -172h-54zM59 -90l39 172h70l-56 -172h-53z" />
    <glyph glyph-name="dagger" unicode="&#x2020;" horiz-adv-x="401" 
d="M165 -50v495h-117v58h117v200h67v-200h121v-58h-121v-495h-67z" />
    <glyph glyph-name="daggerdbl" unicode="&#x2021;" horiz-adv-x="427" 
d="M61 179v58h117v208h-117v58h117v200h67v-200h121v-58h-121v-208h121v-58h-121v-229h-67v229h-117z" />
    <glyph glyph-name="bullet" unicode="&#x2022;" horiz-adv-x="459" 
d="M230 148q-59 0 -101 42t-42 101t42 101t101 42t100.5 -42t41.5 -101t-41.5 -101t-100.5 -42z" />
    <glyph glyph-name="ellipsis" unicode="&#x2026;" horiz-adv-x="699" 
d="M544 0v83h81v-83h-81zM309 0v83h80v-83h-80zM74 0v83h80v-83h-80z" />
    <glyph glyph-name="perthousand" unicode="&#x2030;" horiz-adv-x="1048" 
d="M196 437q-58 0 -99 40.5t-41 98.5q0 57 41 98t99 41t99.5 -41t41.5 -98q0 -58 -41 -98.5t-100 -40.5zM62 0l535 703h72l-535 -703h-72zM196 493q34 0 57.5 24t23.5 59q0 34 -23.5 58.5t-57.5 24.5t-57.5 -24.5t-23.5 -58.5q0 -35 23.5 -59t57.5 -24zM730 126q0 58 41 99
t99 41t99.5 -41t41.5 -99q0 -57 -41.5 -97.5t-99.5 -40.5t-99 40.5t-41 97.5zM394 126q0 58 41 99t99 41t99.5 -41t41.5 -99q0 -57 -41.5 -97.5t-99.5 -40.5t-99 40.5t-41 97.5zM790 127q0 -35 23 -59t57 -24t58 24t24 59q0 34 -24 58.5t-58 24.5t-57 -24.5t-23 -58.5z
M453 127q0 -35 23.5 -59t57.5 -24t57.5 24t23.5 59q0 34 -23.5 58.5t-57.5 24.5t-57.5 -24.5t-23.5 -58.5z" />
    <glyph glyph-name="guilsinglleft" unicode="&#x2039;" horiz-adv-x="346" 
d="M214 77l-164 205l164 206h74l-164 -206l164 -205h-74z" />
    <glyph glyph-name="guilsinglright" unicode="&#x203a;" horiz-adv-x="346" 
d="M58 77l164 205l-164 206h74l164 -206l-164 -205h-74z" />
    <glyph glyph-name="fraction" unicode="&#x2044;" horiz-adv-x="159" 
d="M-58 0h-59l336 703h58z" />
    <glyph glyph-name="zerosuperior" unicode="&#x2070;" 
d="M190 413q-152 0 -152 228t152 228q153 0 153 -228t-153 -228zM190 465q96 0 96 176t-96 176t-96 -176t96 -176z" />
    <glyph glyph-name="foursuperior" unicode="&#x2074;" 
d="M233 423v114h-211v38l212 284h54v-272h65v-50h-65v-114h-55zM90 587h143v136l4 62h-2q-16 -27 -33 -49l-112 -147v-2z" />
    <glyph glyph-name="fivesuperior" unicode="&#x2075;" 
d="M179 413q-85 0 -136 69l38 35q14 -23 40.5 -37.5t55.5 -14.5q42 0 71.5 27.5t29.5 67.5t-30 68t-72 28q-43 0 -78 -24l-34 13l25 214h218v-51h-172l-9 -78l-6 -37h2q31 12 61 12q65 0 108 -42.5t43 -102.5q0 -61 -44.5 -104t-110.5 -43z" />
    <glyph glyph-name="sixsuperior" unicode="&#x2076;" 
d="M201 413q-71 0 -114.5 56t-43.5 145q0 60 18.5 116t64 97.5t108.5 41.5q44 0 88 -21l-22 -47q-30 16 -65 16q-53 0 -87.5 -44.5t-43.5 -109.5h2q15 18 42.5 29t52.5 11q63 0 102.5 -39t39.5 -102q0 -69 -40 -109t-102 -40zM201 465q40 0 63 27.5t23 69.5q0 43 -25 69
t-66 26q-37 0 -66 -21t-29 -45q0 -45 28.5 -85.5t71.5 -40.5z" />
    <glyph glyph-name="sevensuperior" unicode="&#x2077;" 
d="M69 423l174 328l33 57v2q-19 -2 -50 -2h-175v51h290v-38l-211 -398h-61z" />
    <glyph glyph-name="eightsuperior" unicode="&#x2078;" 
d="M190 413q-61 0 -106.5 36t-45.5 98q0 69 74 116q-52 36 -52 93q0 53 40 83t95 30t95.5 -31t40.5 -85q0 -59 -57 -116q65 -40 65 -99q0 -53 -43.5 -89t-105.5 -36zM232 657q45 49 45 94q0 32 -24.5 49.5t-58.5 17.5q-33 0 -56 -16.5t-23 -47.5q0 -11 3 -20t10.5 -17.5
t14 -14t20 -13t21 -11t24.5 -11t24 -10.5zM190 463q36 0 64.5 21.5t28.5 54.5q0 16 -7 28.5t-22.5 23t-28.5 17.5t-37 17.5t-36 16.5q-59 -41 -59 -93q0 -39 29 -62.5t68 -23.5z" />
    <glyph glyph-name="ninesuperior" unicode="&#x2079;" 
d="M59 434l21 47q30 -16 65 -16q53 0 87.5 44t44.5 109h-2q-16 -17 -43 -28.5t-53 -11.5q-62 0 -101.5 39.5t-39.5 102.5q0 68 40 108.5t102 40.5q71 0 114.5 -56.5t43.5 -145.5q0 -60 -18.5 -115.5t-64 -97t-109.5 -41.5q-50 0 -87 21zM184 624q38 0 66.5 21t28.5 46
q0 45 -28.5 85.5t-70.5 40.5q-41 0 -64 -28t-23 -70t25.5 -68.5t65.5 -26.5z" />
    <glyph glyph-name="zeroinferior" unicode="&#x2080;" 
d="M190 -167q-152 0 -152 228t152 228q153 0 153 -228t-153 -228zM190 -115q96 0 96 176t-96 176t-96 -176t96 -176z" />
    <glyph glyph-name="oneinferior" unicode="&#x2081;" 
d="M78 -157v50h95v289l1 24h-1q-4 -8 -21 -24l-40 -39l-35 37l99 99h52v-386h92v-50h-242z" />
    <glyph glyph-name="twoinferior" unicode="&#x2082;" 
d="M51 -157q-3 17 -3 31q0 46 22.5 82t54 59t63.5 43t54.5 45.5t22.5 56.5q0 32 -23.5 54.5t-58.5 22.5q-49 0 -90 -49l-35 35q19 28 53.5 47t72.5 19q62 0 99.5 -36t37.5 -91q0 -41 -21.5 -73t-52.5 -53.5t-62 -40.5t-54 -45t-24 -57h222v-50h-278z" />
    <glyph glyph-name="threeinferior" unicode="&#x2083;" 
d="M181 -167q-41 0 -80 17t-63 49l35 38q15 -21 44 -36.5t63 -15.5q36 0 64.5 25.5t28.5 63.5t-29.5 61t-68.5 23h-33l-14 30l99 116l25 25v2q-18 -3 -37 -3h-153v51h262v-37l-119 -139q50 -5 87.5 -37t37.5 -92q0 -58 -43 -99.5t-106 -41.5z" />
    <glyph glyph-name="fourinferior" unicode="&#x2084;" 
d="M233 -157v114h-211v38l212 284h54v-272h65v-50h-65v-114h-55zM90 7h143v136l4 62h-2q-16 -27 -33 -49l-112 -147v-2z" />
    <glyph glyph-name="fiveinferior" unicode="&#x2085;" 
d="M179 -167q-85 0 -136 69l38 35q14 -23 40.5 -37.5t55.5 -14.5q42 0 71.5 27.5t29.5 67.5t-30 68t-72 28q-43 0 -78 -24l-34 13l25 214h218v-51h-172l-9 -78l-6 -37h2q31 12 61 12q65 0 108 -42.5t43 -102.5q0 -61 -44.5 -104t-110.5 -43z" />
    <glyph glyph-name="sixinferior" unicode="&#x2086;" 
d="M201 -167q-71 0 -114.5 56t-43.5 145q0 60 18.5 116t64 97.5t108.5 41.5q44 0 88 -21l-22 -47q-30 16 -65 16q-53 0 -87.5 -44.5t-43.5 -109.5h2q15 18 42.5 29t52.5 11q63 0 102.5 -39t39.5 -102q0 -69 -40 -109t-102 -40zM201 -115q40 0 63 27.5t23 69.5q0 43 -25 69
t-66 26q-37 0 -66 -21t-29 -45q0 -45 28.5 -85.5t71.5 -40.5z" />
    <glyph glyph-name="seveninferior" unicode="&#x2087;" 
d="M69 -157l174 328l33 57v2q-19 -2 -50 -2h-175v51h290v-38l-211 -398h-61z" />
    <glyph glyph-name="eightinferior" unicode="&#x2088;" 
d="M190 -166q-61 0 -106.5 36t-45.5 98q0 69 74 116q-52 36 -52 93q0 53 40 83t95 30t95.5 -31t40.5 -85q0 -59 -57 -116q65 -40 65 -99q0 -53 -43.5 -89t-105.5 -36zM232 78q45 49 45 94q0 32 -24.5 49.5t-58.5 17.5q-33 0 -56 -16.5t-23 -47.5q0 -11 3 -20t10.5 -17.5
t14 -14t20 -13t21 -11t24.5 -11t24 -10.5zM190 -116q36 0 64.5 21.5t28.5 54.5q0 16 -7 28.5t-22.5 23t-28.5 17.5t-37 17.5t-36 16.5q-59 -41 -59 -93q0 -39 29 -62.5t68 -23.5z" />
    <glyph glyph-name="nineinferior" unicode="&#x2089;" 
d="M59 -146l21 47q30 -16 65 -16q53 0 87.5 44t44.5 109h-2q-16 -17 -43 -28.5t-53 -11.5q-62 0 -101.5 39.5t-39.5 102.5q0 68 40 108.5t102 40.5q71 0 114.5 -56.5t43.5 -145.5q0 -60 -18.5 -115.5t-64 -97t-109.5 -41.5q-50 0 -87 21zM184 44q38 0 66.5 21t28.5 46
q0 45 -28.5 85.5t-70.5 40.5q-41 0 -64 -28t-23 -70t25.5 -68.5t65.5 -26.5z" />
    <glyph glyph-name="Euro" unicode="&#x20ac;" horiz-adv-x="568" 
d="M27 266v51h54q-6 37 1 81h-55v51h64q30 118 122 192t214 74q47 0 94 -12l-16 -65q-36 11 -79 11q-95 0 -165 -54.5t-96 -145.5h306l-11 -51h-306q-6 -38 -1 -81h292l-9 -51h-272q23 -95 94.5 -153t168.5 -58q50 0 89 13l16 -65q-47 -15 -105 -15q-127 0 -219 77t-119 201
h-62z" />
    <glyph glyph-name="numero" unicode="&#x2116;" horiz-adv-x="1036" 
d="M94 0v703h68l359 -506l57 -95h2q-5 58 -5 95v506h69v-703h-67l-359 506l-58 95h-2q6 -58 6 -95v-506h-70zM720 475q0 55 38.5 93t93.5 38q56 0 94 -38t38 -93q0 -56 -38 -94.5t-94 -38.5q-55 0 -93.5 38.5t-38.5 94.5zM776 475q0 -34 22 -57t54 -23t54 23t22 57
q0 33 -22 55t-54 22t-54 -22t-22 -55zM729 221v53h245v-53h-245z" />
    <glyph glyph-name="trademark" unicode="&#x2122;" horiz-adv-x="980" 
d="M470 265l35 438h51l116 -251l14 -41h2q5 22 13 41l116 251h51l35 -438h-56l-24 297l1 29h-2l-112 -244h-47l-112 244h-2l1 -29l-24 -297h-56zM220 265v386h-156v52h369v-52h-157v-386h-56z" />
    <glyph glyph-name="minus" unicode="&#x2212;" horiz-adv-x="568" 
d="M31 255v58h506v-58h-506z" />
    <glyph glyph-name="infinity" unicode="&#x221e;" horiz-adv-x="470" 
d="M235 176q-71 0 -122 51t-51 122q0 72 50.5 122t122.5 50t122.5 -50t50.5 -122q0 -71 -50.5 -122t-122.5 -51z" />
    <glyph glyph-name="approxequal" unicode="&#x2248;" horiz-adv-x="568" 
d="M72 321l-33 44q69 69 146 69q50 0 107.5 -35t90.5 -35q61 0 113 56l33 -44q-67 -69 -146 -69q-50 0 -107.5 35t-90.5 35q-59 0 -113 -56zM72 148l-33 43q69 69 146 69q50 0 107.5 -35t90.5 -35q61 0 113 56l33 -44q-67 -69 -146 -69q-50 0 -107.5 35t-90.5 35
q-60 0 -113 -55z" />
    <glyph glyph-name="notequal" unicode="&#x2260;" horiz-adv-x="568" 
d="M107 83l62 85h-119v58h159l86 116h-245v58h286l85 116l42 -29l-65 -87h118v-58h-158l-86 -116h244v-58h-284l-84 -114z" />
    <glyph glyph-name="lessequal" unicode="&#x2264;" horiz-adv-x="568" 
d="M51 259v50l452 202v-67l-368 -159v-2l368 -159v-67zM52 -104h451v-58h-451v58z" />
    <glyph glyph-name="greaterequal" unicode="&#x2265;" horiz-adv-x="568" 
d="M65 57v67l367 159v2l-367 159v67l452 -202v-50zM64 -104h451v-58h-451v58z" />
    <glyph glyph-name="commaaccent" unicode="&#xf6c3;" horiz-adv-x="335" 
d="M135 -63h65q6 -27 6 -49q0 -39 -23 -90h-56q19 47 19 81q0 28 -11 58z" />
    <glyph glyph-name="cyrbreve" unicode="&#xf6d4;" horiz-adv-x="305" 
d="M152 736q-54 0 -93 32t-39 86v17h59v-15q0 -32 21.5 -50.5t51.5 -18.5t52 18.5t22 51.5v14h58v-17q0 -54 -39 -86t-93 -32z" />
    <glyph glyph-name="apple" unicode="&#xf8ff;" horiz-adv-x="1130" 
d="M168 -5v152l-126 72v278l126 71v151l265 142l134 -71l132 71l265 -142v-151l124 -71v-278l-124 -72v-152l-265 -141l-132 71l-134 -71zM208 30l238 -126l121 66l118 -66l238 126v139l114 64v249l-114 66v136l-238 126l-118 -64l-121 64l-238 -126v-136l-114 -66v-249
l114 -64v-139zM242 64v121l-99 60v225l99 58v123l215 114l110 -59l107 59l214 -114v-123l100 -58v-225l-100 -60v-121l-214 -114l-107 58l-110 -58zM447 91h43v228h228v40h-228v192h199q17 0 23 -6.5t6 -22.5v-42h42v54q0 30 -13 43.5t-45 13.5h-320v-40h65v-460z" />
    <glyph glyph-name="zero.tnum" horiz-adv-x="568" 
d="M284 -12q-128 0 -185 99t-57 265q0 79 12.5 142.5t40 114.5t75.5 78.5t114 27.5q88 0 144 -50t77.5 -128t21.5 -185q0 -80 -12.5 -143.5t-40 -114t-75.5 -78.5t-115 -28zM284 53q64 0 103.5 41t53.5 104t14 154q0 66 -8 117.5t-27 93t-53 64t-83 22.5q-170 0 -170 -297
q0 -140 38.5 -219.5t131.5 -79.5z" />
    <glyph glyph-name="one.tnum" horiz-adv-x="568" 
d="M104 0v62h158v516l1 39h-2q-7 -14 -35 -42l-75 -74l-44 44l159 158h64v-641h155v-62h-381z" />
    <glyph glyph-name="two.tnum" horiz-adv-x="568" 
d="M63 0q-4 32 -4 45q0 50 20 93.5t51.5 75t70.5 60t77.5 54.5t70 52.5t51.5 61t20 72.5q0 59 -40.5 97t-105.5 38q-48 0 -89.5 -26.5t-68.5 -69.5l-51 35q31 56 87.5 91.5t125.5 35.5q97 0 155.5 -56t58.5 -141q0 -48 -19.5 -89.5t-51 -72t-69.5 -58t-76 -53t-69.5 -52
t-51.5 -60t-20 -71.5h368v-62h-440z" />
    <glyph glyph-name="three.tnum" horiz-adv-x="568" 
d="M51 84l43 53q32 -35 80 -58.5t100 -23.5q65 0 112.5 42.5t47.5 108.5q0 71 -51.5 110.5t-124.5 39.5h-49l-17 41l176 206l37 39v2q-20 -3 -57 -3h-264v62h411v-46l-209 -242q36 -2 72 -13.5t70 -34t55.5 -64t21.5 -95.5q0 -91 -66 -155.5t-165 -64.5q-61 0 -120 25.5
t-103 70.5z" />
    <glyph glyph-name="four.tnum" horiz-adv-x="568" 
d="M21 195v45l345 463h75v-448h100v-60h-100v-195h-69v195h-351zM104 255h268v295l4 67h-2q-17 -29 -35 -54l-235 -306v-2z" />
    <glyph glyph-name="five.tnum" horiz-adv-x="568" 
d="M59 87l45 49q56 -81 158 -81q74 0 124.5 46.5t50.5 117.5q0 72 -51 119t-127 47q-71 0 -128 -39l-44 16l38 341h340v-62h-279l-21 -180l-6 -40h2q43 27 106 27q104 0 173 -66.5t69 -162.5q0 -97 -70.5 -164t-173.5 -67q-61 0 -116 26t-90 73z" />
    <glyph glyph-name="six.tnum" horiz-adv-x="568" 
d="M51 317q0 69 18 137t54 127.5t97 96.5t139 37q72 0 130 -29l-26 -61q-42 24 -104 24q-101 0 -161.5 -83.5t-70.5 -197.5h2q25 37 74 59.5t104 22.5q96 0 157 -64t61 -166q0 -104 -63 -168t-157 -64q-113 0 -183.5 93t-70.5 236zM309 53q65 0 105.5 47.5t40.5 121.5
q0 76 -43.5 121t-115.5 45q-67 0 -118.5 -36.5t-51.5 -91.5q0 -40 19.5 -86t63.5 -83.5t100 -37.5z" />
    <glyph glyph-name="seven.tnum" horiz-adv-x="568" 
d="M123 0l284 576l38 65v2q-17 -2 -52 -2h-329v62h457v-48l-326 -655h-72z" />
    <glyph glyph-name="eight.tnum" horiz-adv-x="568" 
d="M45 198q0 40 14 75.5t36 60.5t38 38t31 23q-85 56 -85 140q0 75 56 127.5t157 52.5q97 0 156 -50.5t59 -131.5q0 -43 -20 -87.5t-37.5 -66.5t-33.5 -38q100 -58 100 -150q0 -84 -66 -143.5t-167 -59.5q-98 0 -168 58.5t-70 151.5zM359 369q78 78 78 159q0 57 -40.5 90
t-105.5 33t-103.5 -33t-38.5 -82q0 -22 9.5 -41.5t22.5 -32.5t37.5 -27.5t42 -22.5t50 -21.5t48.5 -21.5zM117 203q0 -66 50 -108.5t115 -42.5q64 0 113.5 39.5t49.5 98.5q0 27 -12.5 49t-39 40t-49 29t-63.5 28t-61 27q-103 -64 -103 -160z" />
    <glyph glyph-name="nine.tnum" horiz-adv-x="568" 
d="M78 17l27 61q46 -25 102 -25q70 0 122.5 43t78.5 104.5t33 134.5h-2q-26 -37 -75 -59.5t-103 -22.5q-97 0 -158 63.5t-61 164.5q0 106 63 170t158 64q113 0 183 -93t70 -237q0 -69 -18.5 -136.5t-54 -127t-97 -96.5t-139.5 -37q-70 0 -129 29zM271 315q69 0 120 38t51 82
q0 76 -52 145t-126 69q-71 0 -111.5 -47t-40.5 -121q0 -75 43.5 -120.5t115.5 -45.5z" />
    <glyph glyph-name="hyphen.case" horiz-adv-x="432" 
d="M74 318v61h284v-61h-284z" />
    <glyph glyph-name="parenleft.case" horiz-adv-x="278" 
d="M170 -65q-112 195 -112 432q0 208 112 393h64q-113 -189 -113 -394q0 -230 113 -431h-64z" />
    <glyph glyph-name="parenright.case" horiz-adv-x="278" 
d="M44 -65q113 203 113 431q0 203 -113 394h63q113 -184 113 -393q0 -238 -113 -432h-63z" />
    <glyph glyph-name="bracketleft.case" horiz-adv-x="282" 
d="M92 -65v825h136v-56h-73v-713h73v-56h-136z" />
    <glyph glyph-name="bracketright.case" horiz-adv-x="282" 
d="M54 -9h73v713h-73v56h136v-825h-136v56z" />
    <glyph glyph-name="braceleft.case" horiz-adv-x="340" 
d="M129 113v95q0 45 -21.5 75.5t-63.5 38.5v62q40 8 62.5 38t22.5 77v82q0 47 12 82t28.5 53t39 28.5t38 13t31.5 2.5h15v-56h-9q-13 0 -25.5 -3.5t-29.5 -15t-27 -38.5t-10 -68v-98q0 -43 -21 -77t-59 -50v-2q80 -31 80 -127v-110q0 -41 10 -68t27 -38.5t29.5 -15
t25.5 -3.5h9v-56q-6 -1 -15 -1q-16 0 -31.5 2.5t-38 13.5t-39 29t-28.5 53t-12 82z" />
    <glyph glyph-name="braceright.case" horiz-adv-x="340" 
d="M47 -10h9q13 0 25.5 3.5t29 15t27 38.5t10.5 68v110q0 46 21 79.5t59 47.5v2q-35 13 -57.5 47.5t-22.5 79.5v98q0 41 -10.5 68t-27 38.5t-29 15t-25.5 3.5h-9v56h15q16 0 31.5 -2.5t38 -13t39 -28.5t28.5 -53t12 -82v-82q0 -45 22 -76.5t63 -38.5v-62q-41 -7 -63 -38.5
t-22 -75.5v-95q0 -47 -12 -82t-28.5 -53t-39 -29t-38 -13.5t-31.5 -2.5l-15 1v56z" />
    <glyph glyph-name="at.case" horiz-adv-x="778" 
d="M60 350q0 153 104 260.5t251 107.5q127 0 186 -54t59 -136v-315h71v-56h-269q-85 0 -142 56.5t-57 135.5t57 135.5t142 56.5h130q-2 51 -45.5 84.5t-126.5 33.5q-122 0 -206.5 -91t-84.5 -218q0 -129 84.5 -217.5t211.5 -88.5v-60q-155 0 -260 106t-105 260zM333 350
q0 -57 39 -97t96 -40h124v275h-122q-58 0 -97.5 -40.5t-39.5 -97.5z" />
    <glyph glyph-name="guillemotleft.case" horiz-adv-x="526" 
d="M394 137l-164 205l164 206h74l-164 -206l164 -205h-74zM214 137l-164 205l164 206h74l-164 -206l164 -205h-74z" />
    <glyph glyph-name="guillemotright.case" horiz-adv-x="526" 
d="M238 137l164 205l-164 206h74l164 -206l-164 -205h-74zM58 137l164 205l-164 206h74l164 -206l-164 -205h-74z" />
    <glyph glyph-name="guilsinglleft.case" horiz-adv-x="347" 
d="M214 137l-164 205l164 206h74l-164 -206l164 -205h-74z" />
    <glyph glyph-name="guilsinglright.case" horiz-adv-x="347" 
d="M58 137l164 205l-164 206h74l164 -206l-164 -205h-74z" />
    <glyph glyph-name="endash.case" horiz-adv-x="648" 
d="M74 315v58h500v-58h-500z" />
    <glyph glyph-name="emdash.case" horiz-adv-x="848" 
d="M74 315v58h700v-58h-700z" />
    <glyph glyph-name="periodcentered.case" horiz-adv-x="226" 
d="M74 306v80h77v-80h-77z" />
    <glyph glyph-name="questiondown.case" horiz-adv-x="450" 
d="M292 518v-45q0 -44 -18 -79.5t-43.5 -59.5t-51 -47.5t-43.5 -54t-18 -66.5q0 -49 37 -82t94 -33q65 0 120 42l38 -50q-28 -25 -72 -41t-89 -16q-86 0 -143 50t-57 127q0 46 18.5 83t45 61.5t52.5 47.5t44.5 53.5t18.5 66.5v43h67zM298 702v-79h-79v79h79z" />
    <glyph glyph-name="exclamdown.case" horiz-adv-x="260" 
d="M162 518l3 -519h-70l3 519h64zM168 702v-79h-78v79h78z" />
    <glyph glyph-name="bullet.case" horiz-adv-x="457" 
d="M229 208q-59 0 -101 42t-42 101t42 101t101 42t100.5 -42t41.5 -101t-41.5 -101t-100.5 -42z" />
    <glyph glyph-name="zero.p_osf" horiz-adv-x="584" 
d="M57 270q0 116 61.5 200.5t173.5 84.5t173.5 -84.5t61.5 -200.5t-61 -199t-174 -83t-174 83.5t-61 198.5zM127 272q0 -91 43 -156.5t122 -65.5t122 65.5t43 155.5q0 91 -43 157t-122 66t-122 -66t-43 -156z" />
    <glyph glyph-name="one.p_osf" horiz-adv-x="468" 
d="M71 0v60h156v360l1 53h-2q-16 -13 -39 -27l-104 -63l-32 48l180 112h63v-483h139v-60h-362z" />
    <glyph glyph-name="two.p_osf" horiz-adv-x="535" 
d="M64 0v49q169 113 245.5 187.5t76.5 143.5q0 56 -38 84.5t-96 28.5q-83 0 -157 -78l-39 47q32 38 87.5 65.5t116.5 27.5q92 0 144 -49.5t52 -117.5q0 -84 -67.5 -159t-216.5 -169v-2q20 2 57 2h253v-60h-418z" />
    <glyph glyph-name="three.p_osf" horiz-adv-x="530" 
d="M40 -38l41 47q68 -75 165 -75q65 0 112.5 39t47.5 103q0 68 -52 104t-124 36h-49l-17 41l172 193q8 9 16.5 17t13.5 12l5 4v2q-20 -2 -57 -2h-232v60h384v-42l-210 -229q37 -2 72 -12t70 -30.5t56.5 -59.5t21.5 -91q0 -91 -65.5 -149t-164.5 -58q-58 0 -112.5 23.5
t-93.5 66.5z" />
    <glyph glyph-name="four.p_osf" horiz-adv-x="585" 
d="M34 37v45l330 461h74v-446h108v-60h-108v-153h-68v153h-336zM116 97h254v295l4 67h-2q-17 -34 -35 -59z" />
    <glyph glyph-name="five.p_osf" horiz-adv-x="535" 
d="M48 -28l42 44q25 -34 67.5 -54t86.5 -20q71 0 122.5 41t51.5 112t-50.5 111t-120.5 40q-32 0 -64 -9t-48 -17l-16 -9l-42 15l37 317h329v-60h-270l-20 -165l-6 -37h2q46 24 109 24q97 0 163.5 -55.5t66.5 -151.5q0 -99 -68.5 -158t-171.5 -59q-58 0 -112 23.5t-88 67.5z
" />
    <glyph glyph-name="six.p_osf" horiz-adv-x="588" 
d="M62 290q0 66 18 131t53.5 122t96.5 92.5t138 35.5q69 0 129 -27l-26 -57q-46 23 -102 23q-102 0 -163 -80.5t-71 -190.5h2q26 38 74.5 59.5t104.5 21.5q96 0 157 -59t61 -152q0 -100 -63 -160.5t-157 -60.5q-113 0 -182.5 84.5t-69.5 217.5zM135 248q0 -71 51 -134.5
t127 -63.5q71 0 111 44t40 115q0 68 -43.5 110t-115.5 42q-68 0 -119 -36t-51 -77z" />
    <glyph glyph-name="seven.p_osf" horiz-adv-x="507" 
d="M100 -116l271 539l35 60v2q-17 -2 -52 -2h-314v60h443v-45l-311 -614h-72z" />
    <glyph glyph-name="eight.p_osf" horiz-adv-x="584" 
d="M59 189q0 35 14 67.5t36 55.5t38 35.5t31 21.5q-87 53 -87 135q0 69 54.5 118t152.5 49q95 0 152.5 -47t57.5 -124q0 -90 -89 -179q101 -57 101 -142q0 -79 -65.5 -135t-162.5 -56t-165 55t-68 146zM362 349q78 68 78 148q0 52 -40 82.5t-103 30.5t-100.5 -30.5
t-37.5 -76.5q0 -21 9.5 -38.5t21 -29.5t36 -26t40 -20.5t49 -20t47.5 -19.5zM128 192q0 -64 49 -103.5t115 -39.5q62 0 110 37t48 93q0 25 -11.5 45t-37.5 36.5t-47 27t-61 26.5t-59 25q-106 -64 -106 -147z" />
    <glyph glyph-name="nine.p_osf" horiz-adv-x="571" 
d="M110 -44q41 -22 102 -22q102 0 163 80t71 190h-2q-26 -38 -75 -59.5t-104 -21.5q-96 0 -157 59t-61 152q0 100 63 160.5t157 60.5q113 0 182.5 -84.5t69.5 -217.5q0 -66 -18 -131t-53.5 -122t-96.5 -92.5t-138 -35.5q-72 0 -129 27zM276 182q68 0 119 35.5t51 77.5
q0 71 -51 135t-127 64q-70 0 -110.5 -44t-40.5 -115q0 -69 43.5 -111t115.5 -42z" />
    <glyph glyph-name="zero.t_osf" horiz-adv-x="568" 
d="M49 270q0 116 61.5 200.5t173.5 84.5t173.5 -84.5t61.5 -200.5t-61 -199t-174 -83t-174 83.5t-61 198.5zM119 272q0 -91 43 -156.5t122 -65.5t122 65.5t43 155.5q0 91 -43 157t-122 66t-122 -66t-43 -156z" />
    <glyph glyph-name="one.t_osf" horiz-adv-x="568" 
d="M120 0v60h156v360l1 53h-2q-16 -13 -39 -27l-104 -63l-32 48l180 112h63v-483h139v-60h-362z" />
    <glyph glyph-name="two.t_osf" horiz-adv-x="568" 
d="M80 0v49q169 113 245.5 187.5t76.5 143.5q0 56 -38 84.5t-96 28.5q-83 0 -157 -78l-39 47q32 38 87.5 65.5t116.5 27.5q92 0 144 -49.5t52 -117.5q0 -84 -67.5 -159t-216.5 -169v-2q20 2 57 2h253v-60h-418z" />
    <glyph glyph-name="three.t_osf" horiz-adv-x="568" 
d="M59 -38l41 47q68 -75 165 -75q65 0 112.5 39t47.5 103q0 68 -52 104t-124 36h-49l-17 41l172 193q8 9 16.5 17t13.5 12l5 4v2q-20 -2 -57 -2h-232v60h384v-42l-210 -229q37 -2 72 -12t70 -30.5t56.5 -59.5t21.5 -91q0 -91 -65.5 -149t-164.5 -58q-58 0 -112.5 23.5
t-93.5 66.5z" />
    <glyph glyph-name="four.t_osf" horiz-adv-x="568" 
d="M26 37v45l330 461h74v-446h108v-60h-108v-153h-68v153h-336zM108 97h254v295l4 67h-2q-17 -34 -35 -59z" />
    <glyph glyph-name="five.t_osf" horiz-adv-x="568" 
d="M64 -28l42 44q25 -34 67.5 -54t86.5 -20q71 0 122.5 41t51.5 112t-50.5 111t-120.5 40q-32 0 -64 -9t-48 -17l-16 -9l-42 15l37 317h329v-60h-270l-20 -165l-6 -37h2q46 24 109 24q97 0 163.5 -55.5t66.5 -151.5q0 -99 -68.5 -158t-171.5 -59q-58 0 -112 23.5t-88 67.5z
" />
    <glyph glyph-name="six.t_osf" horiz-adv-x="568" 
d="M53 290q0 66 18 131t53.5 122t96.5 92.5t138 35.5q69 0 129 -27l-26 -57q-46 23 -102 23q-102 0 -163 -80.5t-71 -190.5h2q26 38 74.5 59.5t104.5 21.5q96 0 157 -59t61 -152q0 -100 -63 -160.5t-157 -60.5q-113 0 -182.5 84.5t-69.5 217.5zM126 248q0 -71 51 -134.5
t127 -63.5q71 0 111 44t40 115q0 68 -43.5 110t-115.5 42q-68 0 -119 -36t-51 -77z" />
    <glyph glyph-name="seven.t_osf" horiz-adv-x="568" 
d="M130 -116l271 539l35 60v2q-17 -2 -52 -2h-314v60h443v-45l-311 -614h-72z" />
    <glyph glyph-name="eight.t_osf" horiz-adv-x="568" 
d="M52 189q0 35 14 67.5t36 55.5t38 35.5t31 21.5q-87 53 -87 135q0 69 54.5 118t152.5 49q95 0 152.5 -47t57.5 -124q0 -90 -89 -179q101 -57 101 -142q0 -79 -65.5 -135t-162.5 -56t-165 55t-68 146zM355 349q78 68 78 148q0 52 -40 82.5t-103 30.5t-100.5 -30.5
t-37.5 -76.5q0 -21 9.5 -38.5t21 -29.5t36 -26t40 -20.5t49 -20t47.5 -19.5zM121 192q0 -64 49 -103.5t115 -39.5q62 0 110 37t48 93q0 25 -11.5 45t-37.5 36.5t-47 27t-61 26.5t-59 25q-106 -64 -106 -147z" />
    <glyph glyph-name="nine.t_osf" horiz-adv-x="568" 
d="M109 -44q41 -22 102 -22q102 0 163 80t71 190h-2q-26 -38 -75 -59.5t-104 -21.5q-96 0 -157 59t-61 152q0 100 63 160.5t157 60.5q113 0 182.5 -84.5t69.5 -217.5q0 -66 -18 -131t-53.5 -122t-96.5 -92.5t-138 -35.5q-72 0 -129 27zM275 182q68 0 119 35.5t51 77.5
q0 71 -51 135t-127 64q-70 0 -110.5 -44t-40.5 -115q0 -69 43.5 -111t115.5 -42z" />
    <glyph glyph-name="dollar.osf" horiz-adv-x="506" 
d="M46 85l42 49q28 -35 75 -59t97 -24q52 0 87 26t35 71q0 35 -32 60.5t-77.5 42.5t-90.5 36.5t-77 55t-32 86.5q0 68 46 108.5t117 48.5v85h57v-85q93 -9 145 -61l-34 -54q-53 53 -140 53q-51 0 -85.5 -23t-34.5 -71q0 -35 32 -60.5t77 -42t90.5 -36t77.5 -55.5t32 -88
q0 -65 -47.5 -109t-122.5 -49v-93h-56v93q-52 6 -100.5 31.5t-80.5 63.5z" />
    <glyph glyph-name="cent.osf" horiz-adv-x="553" 
d="M264 -26v83q-95 12 -155 78t-60 163t60.5 163t154.5 78v86h57v-84q103 -8 169 -77l-34 -53q-24 31 -66 49.5t-85 18.5q-80 0 -133.5 -50.5t-53.5 -129.5t53.5 -130t133.5 -51q91 0 151 68l33 -53q-28 -33 -74.5 -54t-93.5 -24v-81h-57z" />
    <glyph glyph-name="sterling.osf" horiz-adv-x="589" 
d="M54 0v60h64v185h-45v52h45v106q0 78 60 131t152 53q94 0 164 -52l-38 -52q-52 41 -126 41q-66 0 -105 -36.5t-39 -88.5v-102h231v-52h-231v-185h339v-60h-471z" />
    <glyph glyph-name="yen.osf" horiz-adv-x="602" 
d="M100 149v51h167v27l-32 53h-135v51h105l-150 246h79l123 -209l43 -83h2q22 46 43 83l124 209h79l-150 -246h104v-51h-134l-32 -53v-27h166v-51h-166v-149h-69v149h-167z" />
    <glyph glyph-name="florin.osf" horiz-adv-x="496" 
d="M-22 -62q32 -5 63 -5q18 0 35 4.5t37.5 16.5t34 40t17.5 68l22 256h-89v57h94l10 111q4 47 20 82.5t36 54.5t46.5 30.5t46.5 15t41 3.5q18 0 38.5 -2t31.5 -4l12 -2v-60q-45 7 -81 7q-18 0 -35 -4.5t-37 -16.5t-33.5 -39.5t-17.5 -67.5l-11 -108h126v-57h-130l-23 -259
q-4 -48 -20 -83.5t-36 -54.5t-46.5 -31t-46 -15t-40.5 -3l-65 6v60z" />
    <glyph glyph-name="Euro.osf" horiz-adv-x="605" 
d="M54 203v49h65q-4 30 -1 68h-64v49h72q24 95 101.5 156.5t203.5 61.5q49 0 94 -12l-16 -59q-35 10 -79 10q-92 0 -150.5 -44t-80.5 -113h278l-11 -49h-279q-6 -34 1 -68h267l-10 -49h-243q22 -68 81 -110.5t149 -42.5q47 0 87 13l15 -60q-46 -15 -103 -15
q-120 0 -198 60.5t-105 154.5h-74z" />
    <glyph glyph-name="zero.numerator" 
d="M190 258q-152 0 -152 228t152 228q153 0 153 -228t-153 -228zM190 310q96 0 96 176t-96 176t-96 -176t96 -176z" />
    <glyph glyph-name="one.numerator" 
d="M78 268v50h95v289l1 24h-1q-4 -8 -21 -24l-40 -39l-35 37l99 99h52v-386h92v-50h-242z" />
    <glyph glyph-name="two.numerator" 
d="M51 268q-3 16 -3 31q0 46 22.5 82t54 59t63.5 43t54.5 45.5t22.5 56.5q0 32 -23.5 54.5t-58.5 22.5q-49 0 -90 -49l-35 35q19 28 53.5 47t72.5 19q62 0 99.5 -36t37.5 -91q0 -41 -21.5 -73t-52.5 -53.5t-62 -40.5t-54 -45t-24 -57h222v-50h-278z" />
    <glyph glyph-name="three.numerator" 
d="M181 258q-41 0 -80 17t-63 49l35 38q15 -21 44 -36.5t63 -15.5q36 0 64.5 25.5t28.5 63.5t-29.5 61t-68.5 23h-33l-14 30l99 116l25 25v2q-18 -3 -37 -3h-153v51h262v-37l-119 -139q50 -5 87.5 -37t37.5 -92q0 -58 -43 -99.5t-106 -41.5z" />
    <glyph glyph-name="four.numerator" 
d="M233 268v114h-211v38l212 284h54v-272h65v-50h-65v-114h-55zM90 432h143v136l4 62h-2q-16 -27 -33 -49l-112 -147v-2z" />
    <glyph glyph-name="five.numerator" 
d="M179 258q-85 0 -136 69l38 35q14 -23 40.5 -37.5t55.5 -14.5q42 0 71.5 27.5t29.5 67.5t-30 68t-72 28q-43 0 -78 -24l-34 13l25 214h218v-51h-172l-9 -78l-6 -37h2q31 12 61 12q65 0 108 -42.5t43 -102.5q0 -61 -44.5 -104t-110.5 -43z" />
    <glyph glyph-name="six.numerator" 
d="M201 258q-71 0 -114.5 56t-43.5 145q0 60 18.5 116t64 97.5t108.5 41.5q44 0 88 -21l-22 -47q-30 16 -65 16q-53 0 -87.5 -44.5t-43.5 -109.5h2q15 18 42.5 29t52.5 11q63 0 102.5 -39t39.5 -102q0 -69 -40 -109t-102 -40zM201 310q40 0 63 27.5t23 69.5q0 43 -25 69
t-66 26q-37 0 -66 -21t-29 -45q0 -45 28.5 -85.5t71.5 -40.5z" />
    <glyph glyph-name="seven.numerator" 
d="M69 268l174 328l33 57v2q-19 -2 -50 -2h-175v51h290v-38l-211 -398h-61z" />
    <glyph glyph-name="eight.numerator" 
d="M190 257q-61 0 -106.5 36t-45.5 98q0 69 74 116q-52 36 -52 93q0 53 40 83t95 30t95.5 -31t40.5 -85q0 -59 -57 -116q65 -40 65 -99q0 -53 -43.5 -89t-105.5 -36zM232 501q45 49 45 94q0 32 -24.5 49.5t-58.5 17.5q-33 0 -56 -16.5t-23 -47.5q0 -11 3 -20t10.5 -17.5
t14 -14t20 -13t21 -11t24.5 -11t24 -10.5zM190 307q36 0 64.5 21.5t28.5 54.5q0 16 -7 28.5t-22.5 23t-28.5 17.5t-37 17.5t-36 16.5q-59 -41 -59 -93q0 -39 29 -62.5t68 -23.5z" />
    <glyph glyph-name="nine.numerator" 
d="M59 279l21 47q30 -16 65 -16q53 0 87.5 44t44.5 109h-2q-16 -17 -43 -28.5t-53 -11.5q-62 0 -101.5 39.5t-39.5 102.5q0 68 40 108.5t102 40.5q71 0 114.5 -56.5t43.5 -145.5q0 -60 -18.5 -115.5t-64 -97t-109.5 -41.5q-50 0 -87 21zM184 469q38 0 66.5 21t28.5 46
q0 45 -28.5 85.5t-70.5 40.5q-41 0 -64 -28t-23 -70t25.5 -68.5t65.5 -26.5z" />
    <glyph glyph-name="zero.denominator" 
d="M190 -10q-152 0 -152 228t152 228q153 0 153 -228t-153 -228zM190 42q96 0 96 176t-96 176t-96 -176t96 -176z" />
    <glyph glyph-name="one.denominator" 
d="M78 0v50h95v289l1 24h-1q-4 -8 -21 -24l-40 -39l-35 37l99 99h52v-386h92v-50h-242z" />
    <glyph glyph-name="two.denominator" 
d="M51 0q-3 16 -3 31q0 46 22.5 82t54 59t63.5 43t54.5 45.5t22.5 56.5q0 32 -23.5 54.5t-58.5 22.5q-49 0 -90 -49l-35 35q19 28 53.5 47t72.5 19q62 0 99.5 -36t37.5 -91q0 -41 -21.5 -73t-52.5 -53.5t-62 -40.5t-54 -45t-24 -57h222v-50h-278z" />
    <glyph glyph-name="three.denominator" 
d="M181 -10q-41 0 -80 17t-63 49l35 38q15 -21 44 -36.5t63 -15.5q36 0 64.5 25.5t28.5 63.5t-29.5 61t-68.5 23h-33l-14 30l99 116l25 25v2q-18 -3 -37 -3h-153v51h262v-37l-119 -139q50 -5 87.5 -37t37.5 -92q0 -58 -43 -99.5t-106 -41.5z" />
    <glyph glyph-name="four.denominator" 
d="M233 0v114h-211v38l212 284h54v-272h65v-50h-65v-114h-55zM90 164h143v136l4 62h-2q-16 -27 -33 -49l-112 -147v-2z" />
    <glyph glyph-name="five.denominator" 
d="M179 -10q-85 0 -136 69l38 35q14 -23 40.5 -37.5t55.5 -14.5q42 0 71.5 27.5t29.5 67.5t-30 68t-72 28q-43 0 -78 -24l-34 13l25 214h218v-51h-172l-9 -78l-6 -37h2q31 12 61 12q65 0 108 -42.5t43 -102.5q0 -61 -44.5 -104t-110.5 -43z" />
    <glyph glyph-name="six.denominator" 
d="M201 -10q-71 0 -114.5 56t-43.5 145q0 60 18.5 116t64 97.5t108.5 41.5q44 0 88 -21l-22 -47q-30 16 -65 16q-53 0 -87.5 -44.5t-43.5 -109.5h2q15 18 42.5 29t52.5 11q63 0 102.5 -39t39.5 -102q0 -69 -40 -109t-102 -40zM201 42q40 0 63 27.5t23 69.5q0 43 -25 69
t-66 26q-37 0 -66 -21t-29 -45q0 -45 28.5 -85.5t71.5 -40.5z" />
    <glyph glyph-name="seven.denominator" 
d="M69 0l174 328l33 57v2q-19 -2 -50 -2h-175v51h290v-38l-211 -398h-61z" />
    <glyph glyph-name="eight.denominator" 
d="M190 -10q-61 0 -106.5 36t-45.5 98q0 69 74 116q-52 36 -52 93q0 53 40 83t95 30t95.5 -31t40.5 -85q0 -59 -57 -116q65 -40 65 -99q0 -53 -43.5 -89t-105.5 -36zM232 234q45 49 45 94q0 32 -24.5 49.5t-58.5 17.5q-33 0 -56 -16.5t-23 -47.5q0 -11 3 -20t10.5 -17.5
t14 -14t20 -13t21 -11t24.5 -11t24 -10.5zM190 40q36 0 64.5 21.5t28.5 54.5q0 16 -7 28.5t-22.5 23t-28.5 17.5t-37 17.5t-36 16.5q-59 -41 -59 -93q0 -39 29 -62.5t68 -23.5z" />
    <glyph glyph-name="nine.denominator" 
d="M59 11l21 47q30 -16 65 -16q53 0 87.5 44t44.5 109h-2q-16 -17 -43 -28.5t-53 -11.5q-62 0 -101.5 39.5t-39.5 102.5q0 68 40 108.5t102 40.5q71 0 114.5 -56.5t43.5 -145.5q0 -60 -18.5 -115.5t-64 -97t-109.5 -41.5q-50 0 -87 21zM184 201q38 0 66.5 21t28.5 46
q0 45 -28.5 85.5t-70.5 40.5q-41 0 -64 -28t-23 -70t25.5 -68.5t65.5 -26.5z" />
    <glyph glyph-name="uni0433.BUL" horiz-adv-x="438" 
d="M43 116q0 46 28 79.5t68 53.5t80 38t68 42t28 56q0 36 -26.5 52.5t-68.5 16.5q-76 0 -131 -46l-32 52q76 55 163 55q73 0 117.5 -32t44.5 -94q0 -46 -28 -81t-68 -55t-80 -37.5t-68 -41t-28 -54.5q0 -35 29 -53t73 -18q79 0 151 60l36 -48q-80 -73 -188 -73
q-76 0 -122 34.5t-46 93.5z" />
    <glyph glyph-name="uni0434.BUL" horiz-adv-x="582" 
d="M120 -114q66 -34 137 -34q79 0 127 38.5t48 118.5v50l4 37h-2q-49 -93 -160 -93q-101 0 -162.5 72t-61.5 186t59 184t159 70q54 0 99.5 -22t67.5 -66h2q-2 6 -2 17v59h66v-491q0 -112 -69.5 -167t-172.5 -55q-87 0 -164 41zM119 262q0 -90 45 -144t120 -54
q67 0 108.5 46.5t41.5 150.5q0 193 -159 193q-73 0 -114.5 -51t-41.5 -141z" />
    <glyph glyph-name="uni0436.BUL" horiz-adv-x="721" 
d="M20 0l170 257v2l-154 244h74l136 -216h81v416h66v-416h81l136 216h75l-154 -244v-2l170 -257h-80l-147 227h-81v-227h-66v227h-80l-148 -227h-79z" />
    <glyph glyph-name="uni0438.BUL" horiz-adv-x="588" 
d="M75 183v320h69v-302q0 -71 21.5 -110t87.5 -39q83 0 134.5 62t51.5 148v241h68v-503h-67v79l4 40h-2q-18 -47 -70.5 -89t-127.5 -42q-88 0 -128.5 48t-40.5 147z" />
    <glyph glyph-name="uni0439.BUL" horiz-adv-x="588" 
d="M75 183v320h69v-302q0 -71 21.5 -110t87.5 -39q83 0 134.5 62t51.5 148v241h68v-503h-67v79l4 40h-2q-18 -47 -70.5 -89t-127.5 -42q-88 0 -128.5 48t-40.5 147zM290 569q-54 0 -93 32t-39 86v17h59v-15q0 -32 21.5 -50.5t51.5 -18.5t52 18.5t22 51.5v14h58v-17
q0 -54 -39 -86t-93 -32z" />
    <glyph glyph-name="uni043A.BUL" horiz-adv-x="496" 
d="M81 0v703h68v-392h81l150 192h82l-175 -219v-2l193 -282h-82l-167 251h-82v-251h-68z" />
    <glyph glyph-name="uni043B.BUL" horiz-adv-x="510" 
d="M25 0l193 503h74l191 -503h-71l-139 369l-18 60h-2q-8 -35 -17 -60l-139 -369h-72z" />
    <glyph glyph-name="uni043F.BUL" horiz-adv-x="594" 
d="M81 0v503h67v-79l-4 -40h2q19 46 71.5 88.5t131.5 42.5q91 0 130 -49t39 -146v-320h-68v302q0 71 -22 110t-88 39q-81 0 -136 -59t-55 -146v-246h-68z" />
    <glyph glyph-name="uni0442.BUL" horiz-adv-x="916" 
d="M81 0v503h67v-79l-4 -40h2q19 52 73 91.5t112 39.5q133 0 155 -126h2q22 51 73.5 88.5t111.5 37.5q89 0 128 -49t39 -146v-320h-68v303q0 71 -22.5 110t-85.5 39q-73 0 -121 -63.5t-48 -145.5v-243h-68v303q0 70 -21 109.5t-85 39.5q-74 0 -123 -64.5t-49 -144.5v-243
h-68z" />
    <glyph glyph-name="uni0446.BUL" horiz-adv-x="611" 
d="M75 183v320h69v-302q0 -71 21.5 -110t87.5 -39q83 0 134.5 62t51.5 148v241h68v-443h78v-180h-64v120h-81v79l4 40h-2q-18 -47 -70.5 -89t-127.5 -42q-88 0 -128.5 48t-40.5 147z" />
    <glyph glyph-name="uni0448.BUL" horiz-adv-x="915" 
d="M834 502v-503h-67v79l4 40h-2q-19 -52 -73 -91.5t-112 -39.5q-133 0 -155 126h-2q-22 -51 -73.5 -88.5t-111.5 -37.5q-89 0 -128 49t-39 146v320h68v-303q0 -71 22.5 -110t85.5 -39q73 0 121 63.5t48 145.5v243h68v-303q0 -70 21 -109.5t85 -39.5q74 0 123 64.5t49 144.5
v243h68z" />
    <glyph glyph-name="uni0449.BUL" horiz-adv-x="936" 
d="M834 502v-442h76v-180h-64v120h-12v-1h-67v79l4 40h-2q-19 -52 -73 -91.5t-112 -39.5q-133 0 -155 126h-2q-22 -51 -73.5 -88.5t-111.5 -37.5q-89 0 -128 49t-39 146v320h68v-303q0 -71 22.5 -110t85.5 -39q73 0 121 63.5t48 145.5v243h68v-303q0 -70 21 -109.5t85 -39.5
q74 0 123 64.5t49 144.5v243h68z" />
    <glyph glyph-name="uni044A.BUL" horiz-adv-x="568" 
d="M141 179v265h-112v59h180v-145q0 -37 -2 -51h2q20 28 59 46t85 18q78 0 128 -49.5t50 -142.5q0 -81 -53 -136t-145 -55q-96 0 -144 54.5t-48 136.5zM209 177q0 -57 33 -94.5t91 -37.5q57 0 92 36t35 97q0 70 -33 102t-85 32q-61 0 -97 -36.5t-36 -98.5z" />
    <glyph glyph-name="uni044C.BUL" horiz-adv-x="502" 
d="M75 179v324h69v-145q0 -37 -2 -51h2q20 28 58.5 46t84.5 18q78 0 128 -49.5t50 -142.5q0 -81 -53 -136t-145 -55q-96 0 -144 54.5t-48 136.5zM143 177q0 -57 33 -94.5t91 -37.5q57 0 92.5 36t35.5 97q0 70 -33 102t-86 32q-61 0 -97 -36.5t-36 -98.5z" />
    <glyph glyph-name="uni044E.BUL" horiz-adv-x="805" 
d="M81 0v703h68v-422h100q10 101 82 167.5t171 66.5q107 0 182 -75t75 -186q0 -113 -74.5 -189.5t-181.5 -76.5q-99 0 -170.5 66.5t-82.5 167.5h-101v-222h-68zM317 254q0 -88 54 -146t132 -58q77 0 131 58t54 146q0 85 -54 142.5t-131 57.5q-78 0 -132 -57.5t-54 -142.5z
" />
    <glyph glyph-name="uni0432.BUL" horiz-adv-x="582" 
d="M73 239v195q0 121 62.5 201t175.5 80q70 0 117.5 -36.5t47.5 -94.5q0 -101 -131 -161v-2q31 -2 62 -13t61 -32.5t48.5 -59.5t18.5 -87q0 -105 -64.5 -173t-172.5 -68q-104 0 -164.5 66.5t-60.5 184.5zM139 345h2q23 44 83 73l71 35q62 32 88 60.5t26 66.5q0 37 -32 58
t-72 21q-83 0 -124.5 -60.5t-41.5 -151.5v-102zM140 220q0 -82 44.5 -127t112.5 -45q72 0 120 46.5t48 131.5q0 75 -49 111.5t-113 36.5q-63 0 -113 -40t-50 -114z" />
    <glyph glyph-name="uni0437.BUL" horiz-adv-x="437" 
d="M46 -109q57 -40 119 -40q73 0 117.5 42.5t44.5 110.5q0 69 -46 106.5t-128 37.5h-51v57h52q62 0 104.5 36t42.5 96q0 54 -33.5 86t-86.5 32q-70 0 -124 -51l-33 47q70 64 166 64q84 0 132 -47.5t50 -115.5q1 -56 -28 -101t-79 -68v-2q132 -41 132 -178
q0 -90 -61.5 -151.5t-163.5 -61.5q-90 0 -156 45z" />
    <glyph glyph-name="uni0414.ALT" horiz-adv-x="702" 
d="M16 62h72l226 641h73l226 -641h73v-202h-65v140h-540v-140h-65v202zM161 62h379l-163 468l-25 90h-2q-15 -57 -26 -90z" />
    <glyph glyph-name="uni041B.ALT" horiz-adv-x="620" 
d="M22 0l252 703h73l252 -703h-74l-188 530l-26 90h-2q-14 -57 -25 -90l-188 -530h-74z" />
    <glyph glyph-name="uni0434.ALT" horiz-adv-x="582" 
d="M24 58h56l173 445h76l171 -445h58v-178h-64v120h-406v-120h-64v178zM150 58h281l-121 315l-18 60h-2q-9 -35 -18 -60z" />
    <glyph glyph-name="uni043B.ALT" horiz-adv-x="510" 
d="M25 0l193 503h74l191 -503h-71l-139 369l-18 60h-2q-8 -35 -17 -60l-139 -369h-72z" />
    <glyph glyph-name="uni0409.ALT" horiz-adv-x="859" 
d="M18 0l293 703h155v-300h143q96 0 156 -54t60 -148q0 -91 -60.5 -146t-150.5 -55h-217v641h-38l-267 -641h-74zM466 62h138q67 0 108.5 36.5t41.5 102.5q0 65 -42 102.5t-109 37.5h-137v-279z" />
    <glyph glyph-name="uni0459.ALT" horiz-adv-x="711" 
d="M24 0l215 503h154v-195h108q76 0 126 -37t50 -119q0 -70 -45 -111t-133 -41h-174v447h-42l-190 -447h-69zM393 54h102q114 0 114 98q0 48 -28 75t-85 27h-103v-200z" />
    <glyph glyph-name="uni04C5.ALT" horiz-adv-x="680" 
d="M22 0l252 703h73l230 -641h99v-45l-65 -157h-55l45 140h-76l-188 530l-26 90h-2q-14 -57 -25 -90l-188 -530h-74z" />
    <glyph glyph-name="uni04C6.ALT" horiz-adv-x="560" 
d="M412 0l-139 369l-18 60h-2q-8 -35 -17 -60l-139 -369h-72l193 503h74l168 -444h93v-43l-57 -136h-52l39 120h-71z" />
    </font>
</defs>
</svg>
